<svg width="38" height="38" viewBox="0 0 38 38" fill="none" xmlns="http://www.w3.org/2000/svg">
<path d="M5.00125 7L8.00125 12H33.0013L29.0013 23H13.5479L10.0013 16" stroke="#F39422" stroke-width="2" stroke-miterlimit="79.8403" stroke-linecap="round" stroke-linejoin="round"/>
<path fill-rule="evenodd" clip-rule="evenodd" d="M15.0013 28C13.8973 28 13.0013 28.8933 13.0013 30C13.0013 31.1067 13.8973 32 15.0013 32C16.1053 32 17.0013 31.1067 17.0013 30C17.0013 28.8933 16.1053 28 15.0013 28Z" stroke="white" stroke-width="2" stroke-miterlimit="79.8403"/>
<path fill-rule="evenodd" clip-rule="evenodd" d="M27.0013 28C25.8973 28 25.0013 28.8933 25.0013 30C25.0013 31.1067 25.8973 32 27.0013 32C28.1053 32 29.0013 31.1067 29.0013 30C29.0013 28.8933 28.1053 28 27.0013 28Z" stroke="white" stroke-width="2" stroke-miterlimit="79.8403"/>
<path d="M15.0013 8H26.0013" stroke="white" stroke-width="2" stroke-miterlimit="79.8403" stroke-linecap="round" stroke-linejoin="round"/>
<path d="M17.0013 17H31.0013" stroke="#F39522" stroke-width="2" stroke-miterlimit="79.8403" stroke-linecap="round" stroke-linejoin="round"/>
</svg>
