<svg width="38" height="38" viewBox="0 0 38 38" fill="none" xmlns="http://www.w3.org/2000/svg">
<path d="M20.1107 28H5.19867C3.48267 28 2.57468 26.64 3.17601 24.9733L6.24402 16.4666" stroke="#F39422" stroke-width="2" stroke-miterlimit="79.8403" stroke-linecap="round" stroke-linejoin="round"/>
<path d="M30.1773 24.9731L35.9253 9.02653C36.5267 7.35986 35.6187 5.99984 33.9027 5.99984H2.56134" stroke="#F39422" stroke-width="2" stroke-miterlimit="79.8403" stroke-linecap="round" stroke-linejoin="round"/>
<path d="M8.08801 11H4.08801" stroke="#F39422" stroke-width="2" stroke-miterlimit="79.8403" stroke-linecap="round" stroke-linejoin="round"/>
<path d="M30.1707 24.9999L27.216 33.1999C26.4307 35.6266 23.996 35.2798 23.2707 33.8132L20.0894 27.9999" stroke="#F39422" stroke-width="2" stroke-miterlimit="79.8403" stroke-linecap="round" stroke-linejoin="round"/>
<path fill-rule="evenodd" clip-rule="evenodd" d="M20.1187 21.7866L20.7814 20.0667C20.9801 19.56 21.56 18.9732 22.0747 18.7732L23.7947 18.1199C25.3947 17.4932 25.3947 16.4933 23.7947 15.88L22.0747 15.2133C21.56 15.0267 20.9801 14.4399 20.7827 13.9332L20.1187 12.2133C19.5027 10.6133 18.5014 10.6133 17.8854 12.2133L17.2227 13.9332C17.0241 14.4399 16.4441 15.0267 15.9294 15.2133L14.2094 15.88C12.6094 16.4933 12.6094 17.4932 14.2094 18.1199L15.9294 18.7732C16.4441 18.9732 17.024 19.56 17.2214 20.0667L17.8854 21.7866C18.5014 23.3866 19.5027 23.3866 20.1187 21.7866Z" stroke="white" stroke-width="2" stroke-miterlimit="79.8403"/>
</svg>
