<svg width="18" height="18" viewBox="0 0 18 18" fill="none" xmlns="http://www.w3.org/2000/svg">
<path d="M10.7998 8.10254C12.4778 8.10245 13.8892 6.94896 14.2871 5.39453C14.3242 5.3992 14.362 5.40234 14.4004 5.40234H17.1006L17.1924 5.39746C17.6462 5.3514 17.9999 4.96787 18 4.50195C18 4.03596 17.6462 3.65252 17.1924 3.60645L17.1006 3.60156H14.4004C14.3619 3.60156 14.3243 3.60567 14.2871 3.61035C13.8897 2.05537 12.4784 0.902433 10.7998 0.902344C9.12311 0.902344 7.71383 2.05107 7.31348 3.60156H0.900391C0.403334 3.60156 0 4.0049 0 4.50195C0.000107291 4.99892 0.4034 5.40234 0.900391 5.40234H7.31348C7.71401 6.95275 9.1233 8.10254 10.7998 8.10254ZM10.7998 6.30176C9.80711 6.30176 9.00022 5.49324 9 4.50195C9.00011 3.51058 9.80705 2.70215 10.7998 2.70215C11.7915 2.70225 12.5995 3.5109 12.5996 4.50195C12.5994 5.49291 11.7915 6.30165 10.7998 6.30176ZM3.60156 17.1025C5.27687 17.1025 6.68634 15.9529 7.08691 14.4023H17.0996L17.1914 14.3975C17.6454 14.3516 17.9999 13.968 18 13.502C18 13.0358 17.6454 12.6523 17.1914 12.6064L17.0996 12.6016H7.08691C6.68651 11.0509 5.27706 9.90234 3.60156 9.90234C1.61272 9.90236 0.000105696 11.5173 0 13.502C0.00021488 15.4866 1.61279 17.1025 3.60156 17.1025ZM3.60156 15.3018C2.60742 15.3017 1.801 14.493 1.80078 13.502C1.80089 12.5108 2.60736 11.7022 3.60156 11.7021C4.58764 11.7021 5.39101 12.5011 5.40039 13.4844C5.40028 13.4902 5.39941 13.4961 5.39941 13.502C5.39942 13.5082 5.40026 13.5143 5.40039 13.5205C5.39017 14.503 4.58711 15.3018 3.60156 15.3018Z" fill="#FF6412"/>
</svg>
