<svg width="38" height="38" viewBox="0 0 38 38" fill="none" xmlns="http://www.w3.org/2000/svg">
<path d="M30.0013 29L29.232 26.7733C28.596 25.0799 27.7626 23.6933 26.0013 23C24.2013 22.4 22.2626 22 20.0013 22H19.0013" stroke="#F39422" stroke-width="2" stroke-miterlimit="79.8403" stroke-linecap="round" stroke-linejoin="round"/>
<path d="M8.00131 29L8.77064 26.7733C9.40664 25.0799 10.24 23.6933 12.0013 23C13.8013 22.4 15.74 22 18.0013 22H19.0013" stroke="#F39422" stroke-width="2" stroke-miterlimit="79.8403" stroke-linecap="round" stroke-linejoin="round"/>
<path fill-rule="evenodd" clip-rule="evenodd" d="M19.5013 7C22.5373 7 25.0027 9.46666 25.0027 12.4933C25.0027 15.5333 22.5373 18 19.5013 18C16.4653 18 14 15.5333 14 12.4933C14 9.46666 16.4653 7 19.5013 7Z" stroke="white" stroke-width="2" stroke-miterlimit="79.8403"/>
</svg>
