<svg width="18" height="18" viewBox="0 0 18 18" fill="none" xmlns="http://www.w3.org/2000/svg">
<path d="M10.8008 8.10254C12.4788 8.10245 13.8902 6.94896 14.2881 5.39453C14.3252 5.3992 14.363 5.40234 14.4014 5.40234H17.1016L17.1934 5.39746C17.6471 5.3514 18.0009 4.96787 18.001 4.50195C18.001 4.03596 17.6472 3.65252 17.1934 3.60645L17.1016 3.60156H14.4014C14.3629 3.60156 14.3253 3.60567 14.2881 3.61035C13.8907 2.05537 12.4793 0.902433 10.8008 0.902344C9.12409 0.902344 7.71481 2.05107 7.31445 3.60156H0.901367C0.404311 3.60156 0.000976562 4.0049 0.000976562 4.50195C0.00108385 4.99892 0.404377 5.40234 0.901367 5.40234H7.31445C7.71498 6.95275 9.12427 8.10254 10.8008 8.10254ZM10.8008 6.30176C9.80809 6.30176 9.00119 5.49324 9.00098 4.50195C9.00108 3.51058 9.80802 2.70215 10.8008 2.70215C11.7925 2.70225 12.6005 3.5109 12.6006 4.50195C12.6004 5.49291 11.7924 6.30165 10.8008 6.30176ZM3.60254 17.1025C5.27785 17.1025 6.68731 15.9529 7.08789 14.4023H17.1006L17.1924 14.3975C17.6464 14.3516 18.0009 13.968 18.001 13.502C18.001 13.0358 17.6464 12.6523 17.1924 12.6064L17.1006 12.6016H7.08789C6.68749 11.0509 5.27803 9.90234 3.60254 9.90234C1.6137 9.90236 0.00108226 11.5173 0.000976562 13.502C0.00119144 15.4866 1.61377 17.1025 3.60254 17.1025ZM3.60254 15.3018C2.6084 15.3017 1.80197 14.493 1.80176 13.502C1.80186 12.5108 2.60833 11.7022 3.60254 11.7021C4.58862 11.7021 5.39199 12.5011 5.40137 13.4844C5.40126 13.4902 5.40039 13.4961 5.40039 13.502C5.40039 13.5082 5.40124 13.5143 5.40137 13.5205C5.39114 14.503 4.58809 15.3018 3.60254 15.3018Z" fill="#FF6412"/>
</svg>
