<svg width="24" height="24" viewBox="0 0 24 24" fill="none" xmlns="http://www.w3.org/2000/svg">
<path fill-rule="evenodd" clip-rule="evenodd" d="M10.4893 8.14669L13.8173 9.98653C13.8786 10.0132 13.9573 10.0934 13.9906 10.16L15.7986 13.4934C16.168 14.1867 16.7733 14.1864 17.1493 13.5064L18.9906 10.1864C19.024 10.1197 19.104 10.0399 19.1653 10.0132L22.5093 8.19975C23.192 7.82642 23.196 7.2264 22.516 6.85307L19.188 5.01323C19.1266 4.97323 19.048 4.89306 19.0146 4.83973L17.2053 1.49337C16.836 0.813371 16.2306 0.800025 15.8546 1.48002L14.0146 4.81336C13.9813 4.86669 13.9013 4.94654 13.84 4.98654L10.496 6.78667C9.8133 7.16 9.80931 7.76002 10.4893 8.14669Z" stroke="currentColor" stroke-width="1.5" stroke-miterlimit="79.8403"/>
<path fill-rule="evenodd" clip-rule="evenodd" d="M9.00269 17C7.89869 17 7.00269 16.1067 7.00269 15C7.00269 13.8933 7.89869 13 9.00269 13C10.1067 13 11.0027 13.8933 11.0027 15C11.0027 16.1067 10.1067 17 9.00269 17Z" stroke="currentColor" stroke-width="1.5" stroke-miterlimit="79.8403"/>
<path d="M12.0027 2C6.48269 2 2.00269 6.48 2.00269 12V19.7734C2.00269 21.3601 2.8267 22 4.22536 22H12.0027C17.5227 22 22.0027 17.52 22.0027 12" stroke="currentColor" stroke-width="1.5" stroke-miterlimit="79.8403" stroke-linecap="round" stroke-linejoin="round"/>
</svg>
