<svg width="18" height="18" viewBox="0 0 18 18" fill="none" xmlns="http://www.w3.org/2000/svg">
<path d="M10.7998 7.95215C12.459 7.95206 13.8467 6.77531 14.1758 5.21387C14.2469 5.23625 14.3219 5.25195 14.4004 5.25195H17.1006L17.1768 5.24805C17.5549 5.20964 17.8505 4.89019 17.8506 4.50195C17.8506 4.11364 17.5549 3.79429 17.1768 3.75586L17.1006 3.75195H14.4004C14.3218 3.75195 14.2469 3.76764 14.1758 3.79004C13.847 2.22827 12.4592 1.05185 10.7998 1.05176C9.15284 1.05197 7.7755 2.20936 7.43262 3.75195H0.900391C0.486177 3.75195 0.150391 4.08774 0.150391 4.50195C0.150498 4.91608 0.486243 5.25195 0.900391 5.25195H7.43262C7.77571 6.79422 9.15304 7.95193 10.7998 7.95215ZM10.7998 6.45215C9.72439 6.4519 8.8508 5.57584 8.85059 4.50195C8.85069 3.42797 9.72433 2.55201 10.7998 2.55176C11.8744 2.55186 12.7499 3.4281 12.75 4.50195C12.7498 5.57571 11.8744 6.45204 10.7998 6.45215ZM3.60156 16.9521C5.24717 16.952 6.6254 15.7944 6.96875 14.252H17.0996C17.5138 14.252 17.8495 13.9161 17.8496 13.502C17.8496 13.0877 17.5138 12.752 17.0996 12.752H6.96875C6.62562 11.2092 5.24738 10.0519 3.60156 10.0518C1.69561 10.0518 0.150496 11.6001 0.150391 13.502C0.150605 15.4038 1.69568 16.9521 3.60156 16.9521ZM3.60156 15.4521C2.52454 15.4521 1.65061 14.5758 1.65039 13.502C1.6505 12.428 2.52447 11.5518 3.60156 11.5518C4.67005 11.5519 5.53989 12.4179 5.5498 13.4834V13.5205C5.53957 14.5857 4.66985 15.452 3.60156 15.4521Z" fill="black" fill-opacity="0.4"/>
</svg>
