<svg width="40" height="40" viewBox="0 0 40 40" fill="none" xmlns="http://www.w3.org/2000/svg">
<path d="M10.3344 22.9586C10.9707 18.6453 14.4095 16.5005 20.0026 16.5005" stroke="#D10C54" stroke-width="1.5" stroke-miterlimit="79.8403" stroke-linecap="round" stroke-linejoin="round"/>
<path fill-rule="evenodd" clip-rule="evenodd" d="M20.0027 5.83563C22.9462 5.83563 25.3351 8.2293 25.3351 11.1681C25.3351 14.1068 22.9462 16.5005 20.0027 16.5005C17.0592 16.5005 14.6703 14.1068 14.6703 11.1681C14.6703 8.2293 17.0592 5.83563 20.0027 5.83563Z" stroke="#D10C54" stroke-width="1.5" stroke-miterlimit="79.8403"/>
<path d="M4.00537 28.5754C9.07711 25.7906 14.3562 26.6557 20.248 29.239C26.3637 32.0474 31.093 32.474 36 29.2034" stroke="#D10C54" stroke-width="1.5" stroke-miterlimit="79.8403" stroke-linecap="round" stroke-linejoin="round"/>
<path d="M10.2266 30.7914C16.8779 30.0686 20.3487 35.5431 28.0014 35.1402" stroke="#D10C54" stroke-width="1.5" stroke-miterlimit="79.8403" stroke-linecap="round" stroke-linejoin="round"/>
<path d="M29.7788 27.1654V24.4992C29.8641 19.0838 26.2239 16.5005 20.0027 16.5005" stroke="#D10C54" stroke-width="1.5" stroke-miterlimit="79.8403" stroke-linecap="round" stroke-linejoin="round"/>
</svg>
