<svg width="14" height="14" viewBox="0 0 14 14" fill="none" xmlns="http://www.w3.org/2000/svg">
<path fill-rule="evenodd" clip-rule="evenodd" d="M0.360856 10.6118C0.182512 10.3114 0.277518 9.91939 0.57337 9.7378C0.868388 9.55622 1.25341 9.65295 1.43176 9.95418C2.41765 11.6173 4.20777 12.7272 6.2504 12.7272C9.35393 12.7272 11.8749 10.1612 11.8749 7.00042C11.8749 3.84048 9.35393 1.27365 6.2504 1.27365C4.58612 1.27365 3.09103 2.01018 2.06013 3.18201H3.75024C4.09443 3.18201 4.37528 3.46797 4.37528 3.81841C4.37528 4.16971 4.09443 4.45482 3.75024 4.45482H0.62504C0.280018 4.45482 0 4.16971 0 3.81841L0 0.636403C0 0.285957 0.280018 0 0.62504 0C0.969228 0 1.25008 0.285957 1.25008 0.636403L1.24925 2.19941C2.50183 0.84684 4.27944 0.000849724 6.2504 0.000849724C10.0448 0.000849724 13.125 3.13704 13.125 7.00042C13.125 10.8647 10.0448 14 6.2504 14C3.7519 14 1.56343 12.6398 0.360856 10.6118Z" fill="currentColor" fill-opacity="0.4"/>
</svg>
