<svg width="24" height="24" viewBox="0 0 24 24" fill="none" xmlns="http://www.w3.org/2000/svg">
<path fill-rule="evenodd" clip-rule="evenodd" d="M7.08809 15.5782C4.7476 13.2375 4.7476 9.42938 7.08809 7.08913C8.25834 5.9192 9.79751 5.33364 11.3327 5.33364C12.8679 5.33364 14.4071 5.9192 15.5773 7.08913C17.9178 9.42938 17.9178 13.2375 15.5773 15.5782C13.2369 17.9188 9.42859 17.9188 7.08809 15.5782ZM19.8035 18.8497L16.8506 15.8991C19.2207 13.0474 19.0721 8.79671 16.4009 6.12496C13.5654 3.29207 8.9582 3.29129 6.12662 6.12496C3.29113 8.95746 3.29113 13.5668 6.12662 16.3997C7.54241 17.8164 9.40015 18.5243 11.2618 18.5243C12.9122 18.5243 14.5588 17.9654 15.9003 16.8519L18.8492 19.8025C18.9822 19.9343 19.1542 20 19.3263 20C19.4984 20 19.6705 19.9343 19.8035 19.8025C20.0655 19.5393 20.0655 19.1129 19.8035 18.8497Z" fill="black" fill-opacity="0.4"/>
</svg>
