<svg width="19" height="18" viewBox="0 0 19 18" fill="none" xmlns="http://www.w3.org/2000/svg">
<path d="M14.1506 16.6328C14.1823 16.6328 14.2137 16.6308 14.2444 16.627C14.2483 16.6265 14.2522 16.6256 14.2561 16.625C14.2653 16.6237 14.2744 16.6217 14.2834 16.6201C14.2877 16.6194 14.2919 16.619 14.2961 16.6182C14.3088 16.6157 14.3208 16.6105 14.3333 16.6074C14.3616 16.6003 14.3897 16.5925 14.4172 16.582C14.4227 16.5799 14.4284 16.5784 14.4338 16.5762C14.4438 16.5721 14.4533 16.567 14.4631 16.5625C14.491 16.5497 14.5178 16.5349 14.5442 16.5186C14.5573 16.5104 14.5707 16.503 14.5833 16.4941L14.6243 16.4648L14.6809 16.4131L18.1506 12.9434L18.2024 12.8867C18.4426 12.5923 18.4251 12.1573 18.1506 11.8828C17.8761 11.6083 17.4412 11.5908 17.1467 11.8311L17.0901 11.8828L14.9006 14.0723V2.86719C14.9004 2.45331 14.5646 2.11816 14.1506 2.11816C13.7368 2.11823 13.4008 2.45335 13.4006 2.86719V14.0732L11.2102 11.8828C10.9174 11.59 10.4424 11.59 10.1497 11.8828C9.85704 12.1756 9.85693 12.6506 10.1497 12.9434L13.6194 16.4131C13.6529 16.4466 13.689 16.4761 13.7268 16.502C13.7289 16.5034 13.7306 16.5054 13.7327 16.5068C13.7536 16.5209 13.7771 16.5303 13.7991 16.542C13.8073 16.5464 13.8151 16.5516 13.8235 16.5557C13.8341 16.5608 13.8439 16.5676 13.8547 16.5723C13.857 16.5732 13.8593 16.5742 13.8616 16.5752C13.8821 16.5837 13.904 16.5881 13.925 16.5947C13.9472 16.6017 13.9688 16.6103 13.9915 16.6152C14.0012 16.6173 14.0109 16.6194 14.0208 16.6211C14.0483 16.6259 14.0763 16.6291 14.1047 16.6309C14.1106 16.6312 14.1164 16.6316 14.1223 16.6318C14.1317 16.6322 14.1412 16.6328 14.1506 16.6328ZM9.88892 4.48145C10.2667 4.44289 10.5616 4.12324 10.5618 3.73535C10.5618 3.34731 10.2668 3.02783 9.88892 2.98926L9.81177 2.98535H1.13501C0.721172 2.9856 0.38501 3.32146 0.38501 3.73535C0.385193 4.14909 0.721285 4.4851 1.13501 4.48535H9.81177L9.88892 4.48145ZM8.15356 9.6875C8.53132 9.64893 8.82627 9.32931 8.82642 8.94141C8.82642 8.55337 8.53141 8.23389 8.15356 8.19531L8.07642 8.19141H1.13501C0.721172 8.19166 0.38501 8.52751 0.38501 8.94141C0.38516 9.35517 0.721265 9.69116 1.13501 9.69141H8.07642L8.15356 9.6875ZM5.55005 14.8936C5.92804 14.8552 6.22278 14.5355 6.2229 14.1475C6.2229 13.7593 5.92812 13.4397 5.55005 13.4014L5.47388 13.3975H1.13501C0.721172 13.3977 0.38501 13.7336 0.38501 14.1475C0.385137 14.5612 0.721251 14.8972 1.13501 14.8975H5.47388L5.55005 14.8936Z" fill="black" fill-opacity="0.4"/>
</svg>
