<svg width="24" height="24" viewBox="0 0 24 24" fill="none" xmlns="http://www.w3.org/2000/svg">
<path d="M6.9999 4.49601H5.49995C4.71198 4.49601 4.37131 5.25624 4.31932 5.63637C4.05532 7.59702 4 10.1646 4 12.4987C4 13.4523 4.49998 13.9992 5.49995 13.9992H8.49985C10.9998 15.9998 11.7491 16.7734 11.9997 20.0012C12.0851 20.9348 12.6684 21.0215 12.9997 21.0015C14.143 20.8615 14.9996 19.6877 14.9996 18.0005C14.9996 15.9998 14.703 15.2196 14.4997 13.9992H17.4996C18.9995 13.9992 19.5488 13.5524 19.4995 11.9985C19.3528 9.77777 19.0502 7.41028 18.1669 5.62969C17.8562 5.00281 17.2956 3.99584 15.4996 3.99584H11.9997C9.9998 3.99584 8.49985 5.42299 8.49985 6.99685V10.9982" stroke="currentColor" stroke-width="2" stroke-miterlimit="79.8403" stroke-linecap="round" stroke-linejoin="round"/>
</svg>
