<svg width="18" height="18" viewBox="0 0 18 18" fill="none" xmlns="http://www.w3.org/2000/svg">
<path fill-rule="evenodd" clip-rule="evenodd" d="M3.60159 10.8031C5.09079 10.8031 6.30159 12.0151 6.30159 13.5031C6.30159 14.9911 5.09079 16.2031 3.60159 16.2031C2.10999 16.2031 0.900391 14.9911 0.900391 13.5031C0.900391 12.0151 2.10999 10.8031 3.60159 10.8031Z" stroke="currentColor" stroke-width="1.8" stroke-miterlimit="79.8403"/>
<path d="M6.2998 13.5H17.0998" stroke="currentColor" stroke-width="1.8" stroke-miterlimit="79.8403" stroke-linecap="round" stroke-linejoin="round"/>
<path fill-rule="evenodd" clip-rule="evenodd" d="M10.7996 1.80312C9.30921 1.80312 8.09961 3.01512 8.09961 4.50312C8.09961 5.99112 9.30921 7.20312 10.7996 7.20312C12.2888 7.20312 13.4996 5.99112 13.4996 4.50312C13.4996 3.01512 12.2888 1.80312 10.7996 1.80312Z" stroke="currentColor" stroke-width="1.8" stroke-miterlimit="79.8403"/>
<path d="M8.10039 4.5H0.900391" stroke="currentColor" stroke-width="1.8" stroke-miterlimit="79.8403" stroke-linecap="round" stroke-linejoin="round"/>
<path d="M17.1004 4.5H14.4004" stroke="currentColor" stroke-width="1.8" stroke-miterlimit="79.8403" stroke-linecap="round" stroke-linejoin="round"/>
</svg>
