<svg width="24" height="24" viewBox="0 0 24 24" fill="none" xmlns="http://www.w3.org/2000/svg">
<path d="M7.50088 19.088H6.00093C5.21295 19.088 4.87229 18.3671 4.82029 18.0035C4.5563 16.1217 4.50098 13.6659 4.50098 11.4333C4.50098 10.5274 5.00096 9.998 6.00093 9.998H9.00083C11.5007 8.08431 12.2501 7.35074 12.5007 4.25695C12.586 3.37028 13.1694 3.28735 13.5007 3.30011C14.644 3.44045 15.5006 4.56314 15.5006 6.17063C15.5006 8.08431 15.204 8.83065 15.0006 9.998H18.0005C19.5005 9.998 20.0498 10.4318 20.0005 11.9117C19.8538 14.0359 19.5511 16.3067 18.6678 18.0099C18.3572 18.6095 17.7965 19.5664 16.0006 19.5664H12.5007C10.5008 19.5664 9.00083 18.2013 9.00083 16.6959V12.8685" stroke="currentColor" stroke-width="2" stroke-miterlimit="79.8403" stroke-linecap="round" stroke-linejoin="round"/>
</svg>
