<svg width="25" height="18" viewBox="0 0 25 18" fill="none" xmlns="http://www.w3.org/2000/svg">
<path d="M18.6318 17.125C18.7711 17.125 18.9191 17.1016 19.0342 17.0479C19.1462 16.9955 19.2678 16.8904 19.2441 16.7217C19.0244 15.1673 19.2561 14.0424 19.957 13.3584C20.6593 12.6731 21.8698 12.3927 23.7002 12.623C23.863 12.6435 23.9761 12.5451 24.0381 12.4326C24.0983 12.323 24.124 12.1824 24.124 12.0508C24.124 11.919 24.0981 11.7781 24.0381 11.668C23.9766 11.5554 23.8647 11.4554 23.7021 11.4736H23.7012C22.0124 11.678 20.784 11.4636 20.0381 10.8135C19.2982 10.1683 18.9959 9.05879 19.2441 7.37598C19.2687 7.2071 19.1472 7.1013 19.0352 7.04883C18.9202 6.99504 18.7721 6.97168 18.6328 6.97168C18.4935 6.97169 18.3455 6.99509 18.2305 7.04883C18.1183 7.10121 17.9967 7.20709 18.0205 7.37598C18.2401 8.92749 18.0086 10.0527 17.3076 10.7373C16.6052 11.4232 15.3944 11.704 13.5645 11.4736C13.4017 11.4532 13.2885 11.5516 13.2266 11.6641C13.1661 11.7738 13.1406 11.915 13.1406 12.0469C13.1407 12.1787 13.1664 12.3196 13.2266 12.4297C13.2804 12.5282 13.3728 12.6166 13.5039 12.625L13.5625 12.624L13.5635 12.623C15.2521 12.4186 16.4806 12.6338 17.2266 13.2842C17.9664 13.9294 18.2687 15.038 18.0205 16.7207C17.9956 16.8898 18.1174 16.9953 18.2295 17.0479C18.3444 17.1016 18.4926 17.125 18.6318 17.125ZM18.6338 13.3008C18.4584 13.0125 18.2428 12.7517 17.9795 12.5215L17.9785 12.5205C17.7676 12.338 17.5362 12.1815 17.2861 12.0518C17.5869 11.8919 17.8618 11.6998 18.1055 11.46L18.293 11.2607C18.4192 11.1149 18.5296 10.9595 18.6279 10.7969C18.8034 11.0852 19.0202 11.3459 19.2842 11.5762L19.499 11.748C19.6488 11.8591 19.8068 11.9595 19.9736 12.0479C19.6741 12.2084 19.4005 12.4027 19.1592 12.6357V12.6367C18.9522 12.8389 18.7784 13.0613 18.6338 13.3008Z" fill="currentColor" stroke="currentColor" stroke-width="0.25"/>
<path d="M8.2832 15.6016C8.43097 15.6015 8.58754 15.5748 8.70898 15.5137C8.83063 15.4523 8.94686 15.3369 8.92383 15.1621C8.61301 12.8003 8.93747 11.0669 9.94434 10.0078C10.9496 8.95076 12.672 8.52722 15.251 8.87695H15.252C15.4262 8.90029 15.5419 8.78631 15.6035 8.66504C15.665 8.54406 15.6914 8.3875 15.6914 8.24023C15.6914 8.09316 15.6649 7.93728 15.6035 7.81641C15.5496 7.71024 15.4542 7.60849 15.3145 7.60059L15.252 7.60352C12.873 7.91079 11.1276 7.58799 10.0615 6.58691C8.99792 5.58812 8.57228 3.87762 8.92285 1.31445C8.94718 1.13971 8.82993 1.02516 8.70898 0.964844C8.58789 0.904549 8.43172 0.877949 8.28418 0.87793C8.13645 0.87793 7.97982 0.904519 7.8584 0.964844C7.73742 1.02497 7.61953 1.13894 7.64258 1.31348L7.69336 1.74902C7.91046 3.89211 7.5663 5.47779 6.62207 6.4707C5.6167 7.52785 3.89453 7.95071 1.31543 7.60352C1.14097 7.58005 1.02469 7.69497 0.962891 7.81641C0.90153 7.93727 0.875029 8.09322 0.875 8.24023C0.875 8.38748 0.901354 8.54405 0.962891 8.66504C1.02469 8.78649 1.14093 8.90046 1.31543 8.87695L1.75391 8.82715C3.90945 8.61091 5.50549 8.95311 6.50488 9.8916C7.56844 10.8904 7.99414 12.6007 7.64355 15.1611C7.61978 15.3359 7.73491 15.4522 7.85645 15.5137C7.97786 15.575 8.13527 15.6016 8.2832 15.6016ZM8.12207 10.2871L8.11816 10.2783C7.88507 9.84818 7.59096 9.4621 7.2334 9.125V9.12402C6.8793 8.79259 6.47813 8.52198 6.03711 8.3125L6.0293 8.30957L5.9834 8.42578L6.02832 8.30957L5.85645 8.24316L6.21973 8.08398L6.22949 8.08008L6.22852 8.0791L6.54688 7.89453C6.85588 7.69777 7.13792 7.46561 7.3916 7.19629L7.51465 7.06348C7.79337 6.74769 8.02262 6.39454 8.20703 6.00879L8.21094 6.00098L8.2793 5.82617L8.44336 6.19336L8.44727 6.20215C8.68043 6.63243 8.97484 7.01932 9.33301 7.35645L9.60742 7.59277C9.89024 7.81725 10.198 8.00617 10.5283 8.16309L10.5352 8.16602L10.7129 8.23828L10.3457 8.39746L10.3359 8.40137V8.40234C9.90043 8.634 9.51168 8.92593 9.17383 9.2793V9.28027C8.83904 9.63395 8.56921 10.0316 8.3584 10.4727L8.35449 10.4805L8.28516 10.6553L8.12207 10.2871Z" fill="currentColor" stroke="currentColor" stroke-width="0.25"/>
</svg>
