<svg width="18" height="18" viewBox="0 0 18 18" fill="none" xmlns="http://www.w3.org/2000/svg">
<path fill-rule="evenodd" clip-rule="evenodd" d="M1.80078 16.1992L2.63598 12.0112C2.15358 11.0392 1.88238 9.93529 1.88238 8.77129C1.88238 4.72729 5.17278 1.42715 9.22518 1.42715C13.2776 1.42715 16.568 4.72729 16.568 8.77129C16.568 12.8273 13.2776 16.1151 9.22518 16.1151C8.06118 16.1151 6.96078 15.8513 5.98278 15.3593L1.80078 16.1992Z" stroke="currentColor" stroke-width="1.6" stroke-miterlimit="79.8403" stroke-linecap="round" stroke-linejoin="round"/>
<path fill-rule="evenodd" clip-rule="evenodd" d="M12.342 12.4343C10.932 13.2983 9.00961 12.4341 7.29841 10.7181C5.42041 8.83408 4.67881 7.0461 5.55121 5.6421C5.80921 5.1981 6.13441 4.98229 6.44161 4.93429L6.97681 4.89826C7.26121 4.89826 7.37881 5.06605 7.45801 5.28205L8.04001 6.81808C8.14201 7.09408 8.04 7.31016 7.848 7.50216L7.53 7.80216C7.3272 7.93416 7.3056 8.0903 7.3788 8.2463C7.6368 8.7863 7.97281 9.24219 8.35801 9.62619C8.73961 10.0102 9.18961 10.3463 9.74161 10.5983C9.89521 10.6703 10.0452 10.6581 10.1796 10.4541L10.4808 10.1301C10.674 9.93809 10.8876 9.8422 11.166 9.9382L12.6996 10.5262C12.912 10.5982 13.0812 10.7181 13.08 11.0061L13.0404 11.5343C13.0032 11.8463 12.78 12.1703 12.342 12.4343Z" fill="currentColor"/>
</svg>
