<svg width="33" height="32" viewBox="0 0 33 32" fill="none" xmlns="http://www.w3.org/2000/svg">
<path fill-rule="evenodd" clip-rule="evenodd" d="M1.37898 15.6364C1.23408 12.2204 2.71861 11.1785 3.95512 10.6888L3.98355 10.679C5.47073 10.2407 6.47969 10.0745 7.78287 9.58028C9.10027 9.04782 9.35182 7.00688 9.35182 5.01482C9.35182 4.99704 9.35272 4.97838 9.35361 4.97127C9.36695 3.59167 10.3359 2.67609 11.5786 2.12674C12.8302 1.57295 14.4383 1.34183 15.9175 1.34183C17.3958 1.34183 19.0261 1.57295 20.299 2.12586C21.5604 2.67431 22.5587 3.58456 22.5712 4.97393C22.5721 4.98104 22.5739 4.99793 22.5739 5.01482C22.5739 6.98821 22.8094 8.94382 24.1642 9.59006C25.2895 10.1252 26.3714 10.3394 27.8852 10.6585C29.3413 11.0292 30.752 12.143 30.5458 15.6391C29.9742 24.9683 22.0307 29.4466 16.026 30.6102H15.8988C9.89409 29.4466 1.95056 24.9683 1.37898 15.6364ZM15.9619 29.9408L17.0171 29.7044C22.6867 28.259 29.3689 23.9309 29.88 15.5991C30.0702 12.3732 28.8213 11.5848 27.735 11.3083C26.2549 10.9963 25.0895 10.7679 23.877 10.1919C22.5827 9.57584 22.1312 8.12691 21.9791 6.66909C21.5658 7.18288 20.9693 7.57667 20.299 7.86735C19.0261 8.42025 17.3958 8.65048 15.9175 8.65048C14.4383 8.65048 12.8302 8.42025 11.5786 7.86646C10.9235 7.57667 10.3466 7.1891 9.94387 6.68509C9.79008 8.17135 9.33229 9.67273 8.02555 10.2016C7.02639 10.5803 6.14456 10.7883 5.17651 11.0417L4.19246 11.3128L3.4253 11.7092C2.64838 12.2444 1.94522 13.2737 2.04478 15.6018C2.55503 23.9309 9.23717 28.259 14.9068 29.7044L15.9619 29.9408ZM15.1263 15.7502C14.8872 15.6071 14.6997 15.4187 14.5485 15.2676C14.377 15.096 14.2508 14.968 14.0943 14.8649C13.9467 14.7689 13.7778 14.7004 13.5494 14.6871C13.3654 14.6764 13.2249 14.5191 13.2356 14.3351C13.2463 14.1511 13.4036 14.0106 13.5876 14.0213C13.945 14.0417 14.225 14.1537 14.4596 14.3075C14.5743 14.3831 14.6757 14.4675 14.7672 14.5502C14.8579 14.6329 14.9432 14.7191 15.0206 14.7964C15.1841 14.9609 15.3139 15.0862 15.4695 15.1787C15.6153 15.2667 15.7877 15.3253 16.026 15.3253C16.2464 15.3253 16.4117 15.2676 16.5566 15.1795C16.7078 15.088 16.8402 14.9627 17.0136 14.7938C17.1656 14.6444 17.3576 14.4533 17.5869 14.3057C17.8251 14.1537 18.1078 14.0417 18.4643 14.0213C18.6483 14.0106 18.8056 14.1511 18.8163 14.3351C18.827 14.5191 18.6865 14.6764 18.5025 14.6871C18.2741 14.7004 18.0998 14.7689 17.9469 14.8675C17.7905 14.968 17.6554 15.0978 17.4794 15.2702C17.3247 15.4222 17.1336 15.6098 16.9024 15.7493C16.6624 15.8951 16.3789 15.992 16.026 15.992C15.6615 15.992 15.3717 15.8969 15.1263 15.7502ZM20.0333 7.25577C21.1987 6.74998 21.9045 6.00774 21.9045 4.99615C21.9045 3.98546 21.1987 3.24322 20.0333 2.73743C18.8723 2.23252 17.3425 2.00852 15.9175 2.00852C14.4917 2.00852 12.9849 2.23252 11.848 2.73654C10.7137 3.23789 10.0212 3.98102 10.0212 4.99615C10.0212 6.01574 10.7092 6.75265 11.848 7.25666C12.9849 7.76068 14.4917 7.98379 15.9175 7.98379C17.3425 7.98379 18.8723 7.76068 20.0333 7.25577ZM9.35451 5.0006C9.35806 4.95704 9.35628 4.95438 9.35361 4.97127C9.3545 4.97749 9.35451 4.98727 9.35451 4.99615V5.0006ZM22.5703 5.0006L22.5712 4.99615C22.5712 4.98816 22.5703 4.97927 22.5712 4.97393C22.5685 4.95349 22.5659 4.95438 22.5703 5.0006Z" fill="currentColor"/>
</svg>
