<svg width="38" height="38" viewBox="0 0 38 38" fill="none" xmlns="http://www.w3.org/2000/svg">
<path fill-rule="evenodd" clip-rule="evenodd" d="M3.56659 32.4054L5.94378 13.3901C6.29846 11.4425 7.17883 10.6867 8.70947 10.6867H13.7279L14.3349 5.46368C14.5935 2.86378 16.6835 1.57174 18.7156 1.58335C20.7487 1.59391 22.8167 2.91022 23.0278 5.53652L23.488 10.6867H28.5021C30.0307 10.6867 30.9142 11.452 31.2689 13.4038L33.6441 32.4054C33.9871 34.7403 32.6802 36.0208 30.8773 36.0208H6.33435C4.53031 36.0208 3.22352 34.7403 3.56659 32.4054ZM32.8598 32.512L30.4835 13.5157L30.36 12.9721C30.0254 11.7961 29.4332 11.4784 28.5021 11.4784H23.5587L23.6981 13.028C23.7171 13.2455 23.5566 13.4386 23.3392 13.4576C23.1217 13.4766 22.9286 13.3162 22.9096 13.0987L22.7639 11.4784H14.433L14.2514 13.0459C14.2261 13.2623 14.0298 13.4186 13.8123 13.3932C13.5959 13.3679 13.4397 13.1716 13.465 12.9541L13.6361 11.4784H8.70947C7.77842 11.4784 7.18518 11.7877 6.85055 12.9689L6.72601 13.5157L4.35089 32.512C4.07327 34.4057 5.04228 35.2291 6.33435 35.2291H30.8773C32.1683 35.2291 33.1374 34.4057 32.8598 32.512ZM15.8422 29.6946V28.7921C15.8422 28.5747 16.0175 28.3973 16.236 28.3973C17.0213 28.3931 17.4151 28.0975 17.4331 27.3787V20.5744L16.6836 20.5818C16.559 20.587 16.4503 20.6324 16.3447 20.7285L16.2508 20.8298L15.0052 22.7848C14.9313 22.8998 14.8046 22.9695 14.6674 22.9674L13.9073 22.9611C13.6592 22.96 13.4734 22.7309 13.523 22.4871L14.3253 18.5244C14.3623 18.3397 14.5249 18.2067 14.7138 18.2067H23.2885C23.4743 18.2067 23.6358 18.3376 23.6748 18.5192L24.532 22.4818C24.5848 22.7267 24.399 22.96 24.1489 22.9611L23.3888 22.9674C23.2515 22.9695 23.1249 22.8998 23.051 22.7848L21.8043 20.8298L21.7104 20.7285C21.6048 20.6324 21.4961 20.587 21.3726 20.5818L20.5851 20.5744V27.3829C20.5851 27.9413 20.9999 28.3931 21.7674 28.3973C21.9827 28.3973 22.158 28.5715 22.1611 28.7868L22.1749 29.6894C22.1791 29.91 22.0007 30.0905 21.78 30.0905H16.2381C16.0196 30.0905 15.8422 29.9131 15.8422 29.6946ZM21.3779 29.2988L21.3652 29.1542C20.4394 28.9958 19.7934 28.3182 19.7934 27.3829V20.1743C19.7934 19.9548 19.9729 19.7764 20.1924 19.7795L21.3905 19.7911C21.8603 19.808 22.196 20.0466 22.4356 20.3506L22.4598 20.3833L23.6009 22.1746H23.6548L22.9686 18.9984H15.0368L14.3939 22.1746H14.4551L15.5963 20.3833L15.6205 20.3506C15.8602 20.0466 16.1959 19.808 16.6656 19.7911L17.8247 19.7795C18.0442 19.7764 18.2248 19.9548 18.2248 20.1743V27.3882C18.1973 28.4849 17.5513 29.037 16.6361 29.1616L16.6339 29.2988H21.3779ZM22.6931 10.6867L22.2392 5.60302C22.0672 3.46019 20.4173 2.38348 18.7114 2.37399C17.0034 2.36554 15.3324 3.4264 15.1213 5.54918L14.5249 10.6867H22.6931Z" fill="currentColor"/>
</svg>
