<svg width="32" height="32" viewBox="0 0 32 32" fill="none" xmlns="http://www.w3.org/2000/svg">
<path d="M7.93838 17.0001H7.00057C5.6974 17.0001 5.00049 16.2863 5.00049 15.0001V6.33329C5.00049 5.04882 5.81563 4.33325 7.00057 4.33325H24.3346C25.5195 4.33325 26.3347 5.04882 26.3347 6.33329V15.0001C26.3347 16.2863 25.6378 17.0001 24.3346 17.0001H23.435" stroke="currentColor" stroke-width="0.8" stroke-miterlimit="79.8403" stroke-linecap="round" stroke-linejoin="round"/>
<path d="M5.00049 6.33293C5.00049 4.1969 5.48939 2.38443 6.21386 1.52663C6.56676 1.18174 7.0699 0.999513 7.66726 0.999513H23.6679C24.2821 0.999513 24.8546 1.16218 25.1506 1.55597C26.0698 2.77821 26.3347 4.11334 26.3347 6.33293" stroke="currentColor" stroke-width="0.8" stroke-miterlimit="79.8403" stroke-linecap="round" stroke-linejoin="round"/>
<path d="M7.37228 17.0039C6.43091 17.0039 5.59443 17.339 5.28775 18.419L3.8077 23.5791C3.35435 25.0858 4.18105 25.6645 5.33665 25.6645L25.3712 25.6671C27.0566 25.6671 28.0531 25.1436 27.5153 23.3524L26.1259 18.6688C25.8904 17.5888 25.1792 17.0341 23.9987 17.0039" stroke="currentColor" stroke-width="0.8" stroke-miterlimit="79.8403" stroke-linecap="round" stroke-linejoin="round"/>
<path d="M3.67139 24.5703L3.67227 28.3072C3.67227 29.4006 4.40208 30.3419 6.00126 30.3419H25.3425C26.9416 30.3419 27.6714 29.4006 27.6714 28.3072L27.6723 24.1836" stroke="currentColor" stroke-width="0.8" stroke-miterlimit="79.8403" stroke-linecap="round" stroke-linejoin="round"/>
<path d="M7.65764 23.6603C6.32426 23.4203 6.19091 22.2737 6.44426 21.3136L7.32963 18.3989C7.64431 17.1882 8.17234 16.6967 9.81774 16.3313C13.7637 15.4691 17.6705 15.4184 21.5284 16.3313C23.1391 16.7278 23.6858 17.2985 24.0165 18.3989L24.9019 21.3136C25.1552 22.2737 25.0219 23.4203 23.6885 23.6603" stroke="currentColor" stroke-width="0.8" stroke-miterlimit="79.8403" stroke-linecap="round" stroke-linejoin="round"/>
<path d="M12.3352 18.3322V20.9989" stroke="currentColor" stroke-width="0.8" stroke-miterlimit="79.8403" stroke-linecap="round" stroke-linejoin="round"/>
<path d="M19.002 18.3322V20.9989" stroke="currentColor" stroke-width="0.8" stroke-miterlimit="79.8403" stroke-linecap="round" stroke-linejoin="round"/>
</svg>
