<svg width="24" height="24" viewBox="0 0 24 24" fill="none" xmlns="http://www.w3.org/2000/svg">
<path fill-rule="evenodd" clip-rule="evenodd" d="M8.30108 22.4864C5.39292 20.3824 3.00778 15.5402 3.00778 10.9861L3.0148 10.9561L3.00378 10.5001C3.00378 5.53389 7.03503 1.50275 12.0023 1.50275C16.9686 1.50275 21.0008 5.53389 21.0008 10.5001C21.0008 15.4672 16.9686 19.4973 12.0023 19.4973C11.2833 19.4973 10.5842 19.4143 9.91418 19.2553L9.74516 19.2083L9.75917 21.7004L9.75816 21.7354C9.73116 22.0474 9.62716 22.3724 9.36315 22.5614C9.28414 22.6175 9.19513 22.6575 9.09913 22.6795C8.82511 22.7425 8.55111 22.6475 8.3081 22.4914L8.30108 22.4864ZM9.00913 21.6784L8.99411 18.7163C8.99211 18.4613 9.24014 18.2793 9.48315 18.3563C10.2762 18.6113 11.1233 18.7473 12.0023 18.7473C16.5536 18.7473 20.2508 15.0522 20.2508 10.5001C20.2508 5.9489 16.5536 2.25278 12.0023 2.25278C7.45005 2.25278 3.75383 5.9489 3.75383 10.5001C3.75383 10.6581 3.75682 10.8141 3.76582 10.9691L3.75782 11.0071L3.78383 11.8051C4.02884 15.6292 5.94094 19.5053 8.24007 21.4834L8.72511 21.8684L8.88311 21.9434L8.92813 21.9484L8.96112 21.8954C8.97012 21.8744 8.98013 21.8464 8.98914 21.8104L9.00913 21.6784Z" fill="currentColor"/>
</svg>
