<svg width="24" height="24" viewBox="0 0 24 24" fill="none" xmlns="http://www.w3.org/2000/svg">
<path d="M6.9999 4.49455H5.49995C4.71198 4.49455 4.37131 5.25477 4.31932 5.6349C4.05532 7.59556 4 10.1631 4 12.4972C4 13.4509 4.49998 13.9977 5.49995 13.9977H8.49985C10.9998 15.9984 11.7491 16.772 11.9997 19.9997C12.0851 20.9334 12.6684 21.0201 12.9997 21.0001C14.143 20.86 14.9996 19.6863 14.9996 17.9991C14.9996 15.9984 14.703 15.2181 14.4997 13.9977H17.4996C18.9995 13.9977 19.5488 13.5509 19.4995 11.997C19.3528 9.77631 19.0502 7.40882 18.1669 5.62823C17.8562 5.00135 17.2956 3.99438 15.4996 3.99438H11.9997C9.9998 3.99438 8.49985 5.42152 8.49985 6.99538V10.9967" stroke="black" stroke-miterlimit="79.8403" stroke-linecap="round" stroke-linejoin="round"/>
</svg>
