<svg width="18" height="18" viewBox="0 0 18 18" fill="none" xmlns="http://www.w3.org/2000/svg">
<path d="M10.7998 7.70215C12.4702 7.70205 13.8432 6.41579 13.9863 4.7832C14.0763 4.91533 14.2285 5.00195 14.4004 5.00195H17.1006L17.2012 4.99219C17.429 4.9456 17.6005 4.74351 17.6006 4.50195C17.6006 4.26032 17.429 4.05833 17.2012 4.01172L17.1006 4.00195H14.4004C14.2284 4.00195 14.0763 4.08842 13.9863 4.2207C13.8435 2.58782 12.4704 1.30186 10.7998 1.30176C9.20324 1.30176 7.87908 2.47439 7.63867 4.00195H0.900391C0.624248 4.00195 0.400391 4.22581 0.400391 4.50195C0.400498 4.778 0.624314 5.00195 0.900391 5.00195H7.63965C7.88036 6.52913 9.20349 7.70215 10.7998 7.70215ZM10.7998 6.70215C9.58858 6.70215 8.60405 5.71816 8.59961 4.50977C8.59965 4.50716 8.60058 4.50457 8.60059 4.50195C8.60059 4.49973 8.59964 4.49733 8.59961 4.49512C8.6032 3.286 9.58805 2.30176 10.7998 2.30176C12.0126 2.30186 12.9999 3.2901 13 4.50195C12.9998 5.71371 12.0125 6.70204 10.7998 6.70215ZM3.60156 16.7021C5.19667 16.7021 6.52082 15.5292 6.76172 14.002H17.0996C17.3757 14.002 17.5995 13.778 17.5996 13.502C17.5996 13.2258 17.3758 13.002 17.0996 13.002H6.7627C6.52211 11.4743 5.19693 10.3018 3.60156 10.3018C1.83375 10.3018 0.400496 11.7381 0.400391 13.502C0.400605 15.2658 1.83382 16.7021 3.60156 16.7021ZM3.60156 15.7021C2.38639 15.7021 1.40061 14.7138 1.40039 13.502C1.4005 12.29 2.38633 11.3018 3.60156 11.3018C4.8103 11.3018 5.79402 12.283 5.80078 13.4893C5.80068 13.4934 5.7998 13.4978 5.7998 13.502C5.79981 13.5065 5.80066 13.5111 5.80078 13.5156C5.79317 14.7212 4.80978 15.7021 3.60156 15.7021Z" fill="currentColor" fill-opacity="0.4"/>
</svg>
