<svg width="32" height="32" viewBox="0 0 32 32" fill="none" xmlns="http://www.w3.org/2000/svg">
<path d="M15.0063 12.2977V2.96411C15.0215 1.82007 15.6419 0.964051 16.674 0.964051C17.8723 0.964051 18.2892 1.81474 18.3416 2.96411L18.3434 5.29928" stroke="currentColor" stroke-width="0.8" stroke-miterlimit="79.8403" stroke-linecap="round" stroke-linejoin="round"/>
<path d="M18.3401 12.2991V4.2989C18.3525 3.15487 19.1286 2.30062 19.9544 2.30062C20.9126 2.30062 21.6318 3.14954 21.6736 4.2989L21.6647 12.324" stroke="currentColor" stroke-width="0.8" stroke-miterlimit="79.8403" stroke-linecap="round" stroke-linejoin="round"/>
<path d="M21.7486 6.17446C22.3148 5.27488 23.7469 5.52644 23.9229 7.18338C24.3496 10.8733 25.0136 14.4049 25.0136 18.1668C25.0136 20.5535 25.1861 22.4282 23.8864 25.1332C23.4482 26.0586 23.2873 27.6311 23.6989 28.8089C23.9389 29.5787 23.9869 30.3405 22.6935 30.3405H13.3597C12.7499 30.2871 12.3312 30.0587 12.3481 29.3084V28.5084C12.3312 27.4586 12.165 26.9297 11.6147 26.2417C10.5658 25.159 9.54706 24.0105 8.58879 22.75C7.8252 21.6851 7.0936 20.4237 6.4429 18.6868C5.91399 17.3765 5.16551 16.093 3.73432 14.8947C3.04895 14.228 2.78671 13.7187 3.30762 13.052C3.87032 12.4475 5.05261 12.3942 6.40112 13.1862C7.75408 14.0742 8.94168 15.2058 9.9124 16.9685C10.308 17.677 10.9329 17.5312 11.1622 16.5516L12.0787 5.03042C12.2094 3.57794 12.5801 2.64902 13.5579 2.44724C14.1464 2.37879 14.582 2.62058 14.8975 3.09882" stroke="currentColor" stroke-width="0.8" stroke-miterlimit="79.8403" stroke-linecap="round" stroke-linejoin="round"/>
</svg>
