<svg width="24" height="24" viewBox="0 0 24 24" fill="none" xmlns="http://www.w3.org/2000/svg">
<path d="M7.50051 19.0865H6.00056C5.21259 19.0865 4.87192 18.3657 4.81993 18.0021C4.55593 16.1203 4.50061 13.6644 4.50061 11.4318C4.50061 10.526 5.00059 9.99653 6.00056 9.99653H9.00046C11.5004 8.08285 12.2497 7.34927 12.5003 4.25548C12.5857 3.36881 13.169 3.28589 13.5003 3.29864C14.6436 3.43898 15.5002 4.56167 15.5002 6.16917C15.5002 8.08285 15.2036 8.82918 15.0003 9.99653H18.0002C19.5001 9.99653 20.0494 10.4303 20.0001 11.9102C19.8534 14.0344 19.5508 16.3053 18.6675 18.0084C18.3568 18.6081 17.7962 19.5649 16.0002 19.5649H12.5003C10.5004 19.5649 9.00046 18.1998 9.00046 16.6944V12.8671" stroke="black" stroke-miterlimit="79.8403" stroke-linecap="round" stroke-linejoin="round"/>
</svg>
