<svg width="143" height="32" viewBox="0 0 143 32" fill="none" xmlns="http://www.w3.org/2000/svg">
<path fill-rule="evenodd" clip-rule="evenodd" d="M82.0853 15.7802C82.0853 5.40417 89.5841 0.0466465 97.1642 0C106.688 0 112.861 7.1335 112.861 16.5914C112.861 24.4826 106.89 31.9949 97.37 31.9949C89.2905 32.2122 82.0853 25.4007 82.0853 15.7802ZM8.125 31.8118V30.9585C9.92008 30.6593 10.5625 29.7377 10.5625 27.5453V2.79993H8.9375C4.875 2.79993 3.25 5.3598 0.8125 9.62624H0L2.4375 0.240059H23.5625L26 9.62624H25.1875C22.75 5.3598 21.125 2.79993 17.0625 2.79993H15.4375V27.5453C15.4375 29.7377 16.0799 30.6593 17.875 30.9585V31.8118H8.125ZM27.625 31.8118V30.9585C29.4201 30.6593 30.0625 29.7377 30.0625 27.5453V4.50651C30.0625 2.31412 29.4201 1.39257 27.625 1.09335V0.240059H37.375V1.09335C35.5799 1.39257 34.9375 2.31412 34.9375 4.50651V16.9714L47.9375 4.55998V4.50651C47.9375 2.31412 47.2951 1.39257 45.5 1.09335V0.240059H55.25V1.09335C53.4549 1.39257 52.8125 2.31412 52.8125 4.50651V27.5453C52.8125 29.7377 53.4549 30.6593 55.25 30.9585V31.8118H45.5V30.9585C47.2951 30.6593 47.9375 29.7377 47.9375 27.5453V7.55787L34.9375 19.9693V27.5453C34.9375 29.7377 35.5799 30.6593 37.375 30.9585V31.8118H27.625ZM59.3125 31.8118V30.9585C61.1076 30.6593 61.75 29.7377 61.75 27.5453V4.50651C61.75 2.31412 61.1076 1.39257 59.3125 1.09335V0.240059H79.625L81.25 9.62624H80.4375C78.7421 5.59758 76.2244 2.82268 72.1652 2.78172H66.8352C66.6889 3.2425 66.625 3.81022 66.625 4.50651V27.5453C66.625 29.7377 67.2674 30.6593 69.0625 30.9585V31.8118H59.3125ZM115.375 31.8118V30.9585C117.17 30.6593 117.813 29.7377 117.813 27.5453V4.50651C117.813 2.31412 117.17 1.39257 115.375 1.09335V0.240059H125.125V1.09335C123.33 1.39257 122.688 2.31412 122.688 4.50651V9.62624H135.688V4.50651C135.688 2.31412 135.045 1.39257 133.25 1.09335V0.240059H143V1.09335C141.205 1.39257 140.562 2.31412 140.562 4.50651V27.5453C140.562 29.7377 141.205 30.6593 143 30.9585V31.8118H133.25V30.9585C135.045 30.6593 135.688 29.7377 135.688 27.5453V11.8448H122.688V27.5453C122.688 29.7377 123.33 30.6593 125.125 30.9585V31.8118H115.375ZM107.594 17.2706C107.44 7.27116 101.648 2.15484 96.0332 2.15484C91.1961 2.04676 87.0751 6.09818 87.0751 14.8836C87.0751 23.8773 92.3422 29.5147 98.4046 29.5147C103.645 29.5147 107.594 25.3598 107.594 17.2706Z" fill="currentColor"/>
</svg>
