<svg width="33" height="32" viewBox="0 0 33 32" fill="none" xmlns="http://www.w3.org/2000/svg">
<path fill-rule="evenodd" clip-rule="evenodd" d="M1.37185 9.17735L2.05483 8.49439C2.3606 8.2037 2.64123 8.07395 2.90074 8.07898C3.16025 8.07395 3.44088 8.2037 3.74665 8.49439L4.6519 9.41775C4.75953 9.54146 4.90639 9.64909 5.16489 9.64909C5.42239 9.64909 5.57022 9.54146 5.67785 9.41775L6.58211 8.49439C6.88789 8.2037 7.16852 8.07395 7.42803 8.07898C7.68753 8.07395 7.96915 8.2037 8.27492 8.49439L9.17919 9.41775C9.28682 9.54146 9.43365 9.64909 9.69215 9.64909C9.94964 9.64909 10.0975 9.54146 10.2051 9.41775L11.1094 8.49439C11.4151 8.2037 11.6958 8.07395 11.9563 8.07898C12.2158 8.07395 12.4964 8.2037 12.8022 8.49439L13.7064 9.41775C13.8141 9.54146 13.9619 9.64909 14.2194 9.64909C14.4779 9.64909 14.6248 9.54146 14.7324 9.41775L15.6367 8.49439C15.9424 8.2037 16.2241 8.07395 16.4836 8.07898C16.7431 8.07395 17.0237 8.2037 17.3295 8.49439L18.2337 9.41775C18.3414 9.54146 18.4892 9.64909 18.7467 9.64909C19.0052 9.64909 19.1521 9.54146 19.2597 9.41775L20.165 8.49439C20.4707 8.2037 20.7514 8.07395 21.0109 8.07898C21.2704 8.07395 21.551 8.2037 21.8568 8.49439L22.5408 9.17735C22.8314 9.48313 22.9612 9.76376 22.9562 10.0233C22.9612 10.2828 22.8314 10.5634 22.5408 10.8692L21.6174 11.7744C21.4937 11.8821 21.386 12.0289 21.386 12.2874C21.386 12.5449 21.4937 12.6928 21.6174 12.8004L22.5408 13.7046C22.8314 14.0104 22.9612 14.291 22.9562 14.5505C22.9612 14.8101 22.8314 15.0917 22.5408 15.3975L21.6174 16.3017C21.4937 16.4093 21.386 16.5562 21.386 16.8147C21.386 17.0722 21.4937 17.22 21.6174 17.3277L22.5408 18.2319C22.8314 18.5377 22.9612 18.8183 22.9562 19.0788C22.9612 19.3383 22.8314 19.619 22.5408 19.9247L21.6174 20.829C21.4937 20.9366 21.386 21.0845 21.386 21.342C21.386 21.6005 21.4937 21.7473 21.6174 21.855L22.5408 22.7592C22.8314 23.065 22.9612 23.3466 22.9562 23.6061C22.9612 23.8656 22.8314 24.1463 22.5408 24.452L21.6174 25.3563C21.4937 25.4639 21.386 25.6118 21.386 25.8693C21.386 26.1278 21.4937 26.2746 21.6174 26.3822L22.5408 27.2875C22.8314 27.5933 22.9612 27.8739 22.9562 28.1334C22.9612 28.3929 22.8314 28.6735 22.5408 28.9793L21.8568 29.6633C21.551 29.954 21.2704 30.0837 21.0109 30.0787C20.7514 30.0837 20.4707 29.954 20.165 29.6633L19.2597 28.7399C19.1521 28.6162 19.0052 28.5086 18.7467 28.5086C18.4892 28.5086 18.3414 28.6162 18.2337 28.7399L17.3295 29.6633C17.0237 29.954 16.7431 30.0837 16.4836 30.0787C16.2241 30.0837 15.9424 29.954 15.6367 29.6633L14.7324 28.7399C14.6248 28.6162 14.4779 28.5086 14.2194 28.5086C13.9619 28.5086 13.8141 28.6162 13.7064 28.7399L12.8022 29.6633C12.4964 29.954 12.2158 30.0837 11.9563 30.0787C11.6958 30.0837 11.4151 29.954 11.1094 29.6633L10.2051 28.7399C10.0975 28.6162 9.94964 28.5086 9.69215 28.5086C9.43365 28.5086 9.28682 28.6162 9.17919 28.7399L8.27492 29.6633C7.96915 29.954 7.68753 30.0837 7.42803 30.0787C7.16852 30.0837 6.88789 29.954 6.58211 29.6633L5.67785 28.7399C5.57022 28.6162 5.42239 28.5086 5.16489 28.5086C4.90639 28.5086 4.75953 28.6162 4.6519 28.7399L3.74665 29.6633C3.44088 29.954 3.16025 30.0837 2.90074 30.0787C2.64123 30.0837 2.3606 29.954 2.05483 29.6633L1.37185 28.9793C1.08116 28.6735 0.95141 28.3929 0.956439 28.1334C0.95141 27.8739 1.08116 27.5933 1.37185 27.2875L2.2952 26.3822C2.41892 26.2746 2.52656 26.1278 2.52656 25.8693C2.52656 25.6118 2.41892 25.4639 2.2952 25.3563L1.37185 24.452C1.08116 24.1463 0.95141 23.8656 0.956439 23.6061C0.95141 23.3466 1.08116 23.065 1.37185 22.7592L2.2952 21.855C2.41892 21.7473 2.52656 21.6005 2.52656 21.342C2.52656 21.0845 2.41892 20.9366 2.2952 20.829L1.37185 19.9247C1.08116 19.619 0.95141 19.3383 0.956439 19.0788C0.95141 18.8183 1.08116 18.5377 1.37185 18.2319L2.2952 17.3277C2.41892 17.22 2.52656 17.0722 2.52656 16.8147C2.52656 16.5562 2.41892 16.4093 2.2952 16.3017L1.37185 15.3975C1.08116 15.0917 0.95141 14.8101 0.956439 14.5505C0.95141 14.291 1.08116 14.0104 1.37185 13.7046L2.2952 12.8004C2.41892 12.6928 2.52656 12.5449 2.52656 12.2874C2.52656 12.0289 2.41892 11.8821 2.2952 11.7744L1.37185 10.8692C1.08116 10.5634 0.95141 10.2828 0.956439 10.0233C0.95141 9.76376 1.08116 9.48313 1.37185 9.17735Z" stroke="currentColor" stroke-width="0.8" stroke-miterlimit="79.8403" stroke-linecap="round" stroke-linejoin="round"/>
<path d="M9.69114 8.94006L9.11509 7.73099C8.94207 7.32901 8.91513 7.00848 9.01148 6.75685C9.09851 6.50209 9.32229 6.27447 9.71185 6.07923L10.9241 5.52482C11.0815 5.46426 11.238 5.35776 11.3291 5.10718C11.4203 4.85451 11.3675 4.67283 11.2856 4.52457L10.7106 3.31343C10.5376 2.91249 10.5107 2.59196 10.607 2.34137C10.693 2.08557 10.9178 1.85796 11.3064 1.66375L12.2088 1.23985C12.6066 1.06445 12.9247 1.03729 13.1733 1.13439C13.4261 1.2221 13.652 1.44867 13.8458 1.8402L14.3969 3.06284C14.4581 3.22154 14.5617 3.37815 14.8124 3.47003C15.061 3.56191 15.2424 3.50867 15.3905 3.42618L16.5903 2.84671C16.9892 2.67235 17.3062 2.6452 17.5559 2.7423C17.8087 2.82896 18.0356 3.05553 18.2293 3.44811L18.7795 4.6697C18.8396 4.8284 18.9442 4.98606 19.1939 5.0769C19.4436 5.16878 19.6238 5.11657 19.772 5.03409L20.9728 4.45462C21.3707 4.27921 21.6887 4.25206 21.9384 4.35021C22.1912 4.43687 22.4181 4.66344 22.6108 5.05498L23.161 6.27657C23.2221 6.43631 23.3268 6.59293 23.5764 6.68481C23.8261 6.77669 24.0064 6.72344 24.1545 6.64095L25.3543 6.06148C25.7532 5.88607 26.0713 5.85997 26.321 5.95707C26.5738 6.04373 26.7996 6.2703 26.9933 6.66288L27.5435 7.88447C27.6036 8.04318 27.7093 8.20083 27.9579 8.29167C28.2086 8.38355 28.3889 8.33135 28.5361 8.24886L29.7379 7.66939C30.1357 7.49398 30.4538 7.46684 30.7025 7.56394C30.9563 7.65164 31.1821 7.8782 31.3749 8.26974L31.7965 9.17915C31.9706 9.58008 31.9975 9.90062 31.9012 10.1512C31.8141 10.406 31.5893 10.6336 31.2008 10.8288L29.9876 11.3843C29.8301 11.4459 29.6747 11.5503 29.5835 11.803C29.4923 12.0535 29.5452 12.2363 29.627 12.3856L30.202 13.5946C30.3751 13.9966 30.402 14.3161 30.3057 14.5677C30.2197 14.8225 29.9948 15.0511 29.6053 15.2464L28.3931 15.8008C28.2356 15.8614 28.0791 15.9668 27.989 16.2184C27.8978 16.4701 27.9496 16.6517 28.0315 16.801L28.6065 18.0112C28.7806 18.4121 28.8075 18.7326 28.7101 18.9842C28.6241 19.239 28.3993 19.4677 28.0108 19.6619L26.7986 20.2163C26.6401 20.2779 26.4847 20.3833 26.3935 20.635C26.3023 20.8866 26.3551 21.0683 26.437 21.2176L27.012 22.4266C27.1861 22.8286 27.212 23.1491 27.1156 23.4008C27.0296 23.6555 26.8048 23.8831 26.4152 24.0784L25.203 24.6328C25.0456 24.6934 24.8891 24.7999 24.799 25.0504C24.7078 25.3031 24.7596 25.4848 24.8415 25.633L25.4165 26.8442C25.5905 27.2451 25.6175 27.5657 25.5211 27.8163C25.4341 28.0721 25.2093 28.2997 24.8207 28.4939L23.9173 28.9188C23.5194 29.0932 23.2024 29.1203 22.9527 29.0232" stroke="currentColor" stroke-width="0.8" stroke-miterlimit="79.8403" stroke-linecap="round" stroke-linejoin="round"/>
</svg>
