<svg width="33" height="32" viewBox="0 0 33 32" fill="none" xmlns="http://www.w3.org/2000/svg">
<path d="M3.03125 13.8359V27.2991C3.03125 28.2294 3.51178 28.8359 4.51437 28.8359H27.5481C28.5507 28.8359 29.0312 28.2294 29.0312 27.2991V13.8359" stroke="currentColor" stroke-width="0.8" stroke-miterlimit="79.8403" stroke-linecap="round" stroke-linejoin="round"/>
<path fill-rule="evenodd" clip-rule="evenodd" d="M25.1978 1.83594C26.1175 1.87884 26.7501 2.12842 27.2837 2.99126L29.5314 6.89012C29.9357 7.70519 30.0085 8.26481 30.0266 8.98531C30.0277 9.0321 30.0287 12.0057 30.0297 12.0545C30.063 13.1698 29.5648 13.8416 28.7876 14.2774L18.666 20.0316C17.6261 20.5893 17.1985 20.8359 16.0141 20.8359C14.8296 20.8359 14.4364 20.5893 13.3965 20.0316L3.27491 14.2774C2.49773 13.8416 1.99948 13.1698 2.03283 12.0545C2.03384 11.9853 2.03586 8.99311 2.03789 8.92681C2.0581 8.23361 2.13791 7.68277 2.53106 6.89012L4.77876 2.99126C5.31238 2.12842 5.94503 1.87884 6.86472 1.83594H25.1978Z" stroke="currentColor" stroke-width="0.8" stroke-miterlimit="79.8403" stroke-linecap="round" stroke-linejoin="round"/>
<path d="M4.03125 8.83594H27.0313" stroke="currentColor" stroke-width="0.8" stroke-miterlimit="79.8403" stroke-linecap="round" stroke-linejoin="round"/>
</svg>
