<svg width="38" height="38" viewBox="0 0 38 38" fill="none" xmlns="http://www.w3.org/2000/svg">
<path fill-rule="evenodd" clip-rule="evenodd" d="M5.59934 28.2433L5.60881 28.1905C5.79354 27.4653 6.24851 26.8985 7.08772 26.6589C8.84425 26.1986 11.6564 26.0192 12.8228 25.3468C13.8109 24.8179 14.6079 22.7912 14.1297 20.1818C13.3306 19.2941 12.5631 18.1171 11.9403 16.7554L11.3334 15.2237L11.1043 14.9545C10.4414 14.0372 10.0361 12.494 9.91255 11.6854C9.86083 11.279 9.91255 10.5855 10.4847 10.1738L10.4942 9.51933C10.6272 5.08165 12.58 0.783314 18.6287 0.783314C24.69 0.783314 26.6292 5.0996 26.7611 9.5225L26.778 10.178C27.3428 10.5855 27.3945 11.279 27.3438 11.6854C27.2193 12.494 26.8139 14.0372 26.151 14.9545L25.9219 15.2237L25.315 16.7554C24.6932 18.1139 23.9278 19.2888 23.1309 20.1755C22.8912 22.7426 23.4613 24.8274 24.4335 25.3468C25.5968 26.0171 28.4754 26.2155 30.1686 26.6589C31.0078 26.8985 31.4628 27.4653 31.6475 28.1905L31.657 28.2433C32.0445 31.6328 27.3354 35.7052 18.6952 37.1936H18.5612C9.94421 35.7084 5.21298 31.6222 5.59934 28.2433ZM18.6276 36.4009L20.1245 36.1074C27.1697 34.5515 30.6732 31.3003 30.8769 28.846L30.8706 28.3615L30.7587 28.0522C30.6067 27.7482 30.3565 27.5361 29.9607 27.4221C28.3678 27.0051 25.3719 26.8014 24.0482 26.0382C22.7614 25.351 22.2325 23.225 22.2895 20.9872C21.1463 21.9119 19.9271 22.1937 18.6118 22.1937C17.3218 22.1937 16.1512 21.9225 15.0375 21.0453C15.2064 23.3528 14.4749 25.3605 13.2082 26.0382C11.8813 26.8024 8.94983 26.9893 7.29569 27.4221C6.89878 27.5361 6.64968 27.7482 6.49767 28.0522L6.38466 28.3615L6.37944 28.845C6.58634 31.2908 10.1047 34.5536 17.134 36.1085L18.6276 36.4009ZM22.2547 19.9517C23.3684 18.8275 24.4821 17.034 25.202 14.8944C25.2221 14.8342 25.2569 14.7804 25.3023 14.736C25.9356 14.1238 26.4201 12.4855 26.5595 11.5767C26.6027 11.2283 26.5088 10.8905 26.2122 10.7618C26.0644 10.6974 25.9694 10.5506 25.9736 10.3891C26.0739 5.85751 24.4556 1.575 18.6287 1.575C12.8165 1.575 11.1814 5.8364 11.2827 10.3891C11.2869 10.5506 11.1919 10.6974 11.0441 10.7618C10.7475 10.8905 10.6536 11.2283 10.6969 11.5767C10.8362 12.4855 11.3207 14.1238 11.9541 14.736C11.9995 14.7804 12.0343 14.8342 12.0544 14.8944C12.7743 17.034 13.888 18.8275 15.0016 19.9517C16.1174 21.079 17.2553 21.4021 18.6118 21.4021C19.9704 21.4021 21.141 21.0769 22.2547 19.9517Z" fill="currentColor"/>
</svg>
