<svg width="32" height="32" viewBox="0 0 32 32" fill="none" xmlns="http://www.w3.org/2000/svg">
<path fill-rule="evenodd" clip-rule="evenodd" d="M5.71403 28.9967C4.0615 28.9967 3.5868 27.506 3.68992 25.8055C3.73525 22.2632 4.80553 11.3429 7.01987 8.34813C6.6074 8.12324 6.40028 7.67256 6.35672 7.39167L6.35316 4.71515C6.35316 4.03157 6.69007 3.66445 7.64301 3.66445H23.7185C24.6714 3.66445 25.0083 4.03157 25.0083 4.71515L25.0048 7.39167C24.9612 7.67256 24.7541 8.12324 24.3416 8.34813C26.556 11.3429 27.6263 22.2632 27.6716 25.8055C27.7747 27.506 27.3 28.9967 25.6475 28.9967H5.71403Z" stroke="currentColor" stroke-width="0.8" stroke-miterlimit="79.8403" stroke-linecap="round" stroke-linejoin="round"/>
<path d="M10.3477 7.00933V9.65296" stroke="currentColor" stroke-width="0.8" stroke-miterlimit="79.8403" stroke-linecap="round" stroke-linejoin="round"/>
<path d="M13.0137 7.67685V8.98355" stroke="currentColor" stroke-width="0.8" stroke-miterlimit="79.8403" stroke-linecap="round" stroke-linejoin="round"/>
<path d="M21.0137 7.00933V9.65296" stroke="currentColor" stroke-width="0.8" stroke-miterlimit="79.8403" stroke-linecap="round" stroke-linejoin="round"/>
<path d="M18.3477 7.67685V8.98355" stroke="currentColor" stroke-width="0.8" stroke-miterlimit="79.8403" stroke-linecap="round" stroke-linejoin="round"/>
<path d="M15.6799 7.00933V9.65296" stroke="currentColor" stroke-width="0.8" stroke-miterlimit="79.8403" stroke-linecap="round" stroke-linejoin="round"/>
<path d="M25.0449 5.92526C27.9402 7.06129 29.19 10.2285 29.4531 12.3503" stroke="currentColor" stroke-width="0.8" stroke-miterlimit="79.8403" stroke-linecap="round" stroke-linejoin="round"/>
<path fill-rule="evenodd" clip-rule="evenodd" d="M29.6675 12.332C30.4009 12.332 30.9973 12.9285 30.9973 13.6627C30.9973 14.397 30.4009 14.9934 29.6675 14.9934C28.9341 14.9934 28.3376 14.397 28.3376 13.6627C28.3376 12.9285 28.9341 12.332 29.6675 12.332Z" stroke="currentColor" stroke-width="0.8" stroke-miterlimit="79.8403" stroke-linecap="round" stroke-linejoin="round"/>
<path d="M6.29632 6.05951C4.87936 6.7902 3.80819 7.98667 3.12549 8.95559" stroke="currentColor" stroke-width="0.8" stroke-miterlimit="79.8403" stroke-linecap="round" stroke-linejoin="round"/>
<path fill-rule="evenodd" clip-rule="evenodd" d="M2.32545 8.99978C1.59208 8.99978 0.995605 9.59625 0.995605 10.3305C0.995605 11.0647 1.59208 11.6612 2.32545 11.6612C3.05882 11.6612 3.6553 11.0647 3.6553 10.3305C3.6553 9.59625 3.05882 8.99978 2.32545 8.99978Z" stroke="currentColor" stroke-width="0.8" stroke-miterlimit="79.8403" stroke-linecap="round" stroke-linejoin="round"/>
</svg>
