<svg width="17" height="16" viewBox="0 0 17 16" fill="none" xmlns="http://www.w3.org/2000/svg">
<path d="M12.9023 15.1571C12.967 15.17 13.0339 15.1699 13.0986 15.1571C13.1975 15.1376 13.2859 15.0889 13.3545 15.0204L16.6875 11.6874C16.8828 11.4921 16.8828 11.1756 16.6875 10.9803C16.4922 10.7851 16.1757 10.7851 15.9805 10.9803L13.501 13.4598V2.16687C13.501 1.89073 13.2771 1.66687 13.001 1.66687C12.7249 1.667 12.501 1.89081 12.501 2.16687V13.4598L10.0215 10.9803C9.82622 10.7851 9.50972 10.7851 9.31445 10.9803C9.11942 11.1756 9.11927 11.4922 9.31445 11.6874L12.6475 15.0204C12.6808 15.0537 12.7186 15.0795 12.7578 15.1014C12.7754 15.1113 12.7927 15.122 12.8115 15.1298C12.8197 15.1331 12.8286 15.1347 12.8369 15.1376C12.8583 15.145 12.8798 15.1526 12.9023 15.1571ZM8.83398 3.49988C9.11013 3.49988 9.33398 3.27602 9.33398 2.99988C9.33393 2.72379 9.11009 2.49988 8.83398 2.49988H0.500977C0.224983 2.50001 0.00103578 2.72387 0.000976562 2.99988C0.000976562 3.27594 0.224946 3.49975 0.500977 3.49988H8.83398ZM7.26855 8.49011C7.49637 8.44347 7.66797 8.24148 7.66797 7.99988C7.66792 7.75832 7.49633 7.55628 7.26855 7.50964L7.16797 7.49988H0.500977C0.224983 7.50001 0.00103578 7.72387 0.000976562 7.99988C0.000976562 8.27594 0.224946 8.49975 0.500977 8.49988H7.16797L7.26855 8.49011ZM4.76855 13.4901C4.99637 13.4435 5.16797 13.2415 5.16797 12.9999C5.16792 12.7583 4.99633 12.5563 4.76855 12.5096L4.66797 12.4999H0.500977C0.224983 12.5 0.00103578 12.7239 0.000976562 12.9999C0.000976562 13.2759 0.224946 13.4997 0.500977 13.4999H4.66797L4.76855 13.4901Z" fill="black" fill-opacity="0.4"/>
</svg>
