<svg width="237" height="195" viewBox="0 0 237 195" fill="none" xmlns="http://www.w3.org/2000/svg">
<path d="M105.495 77.8264H181.326" stroke="black" stroke-miterlimit="79.8403" stroke-linecap="round" stroke-linejoin="round"/>
<path d="M104.593 91.4546V98.7297" stroke="black" stroke-miterlimit="79.8403" stroke-linecap="round" stroke-linejoin="round"/>
<path d="M112.718 93.2791V96.906" stroke="black" stroke-miterlimit="79.8403" stroke-linecap="round" stroke-linejoin="round"/>
<path d="M119.037 91.4546V98.7297" stroke="black" stroke-miterlimit="79.8403" stroke-linecap="round" stroke-linejoin="round"/>
<path d="M125.355 93.2791V96.906" stroke="black" stroke-miterlimit="79.8403" stroke-linecap="round" stroke-linejoin="round"/>
<path d="M131.675 91.4546V98.7297" stroke="black" stroke-miterlimit="79.8403" stroke-linecap="round" stroke-linejoin="round"/>
<path d="M137.994 93.2791V96.906" stroke="black" stroke-miterlimit="79.8403" stroke-linecap="round" stroke-linejoin="round"/>
<path d="M144.313 91.4546V98.7297" stroke="black" stroke-miterlimit="79.8403" stroke-linecap="round" stroke-linejoin="round"/>
<path fill-rule="evenodd" clip-rule="evenodd" d="M144.317 194.148C119.037 194.148 94.6613 181.421 94.6613 166.881C94.052 142.881 96.7488 119.623 100.079 92.3664L99.1768 82.3657C99.0852 76.6538 100.982 73.2768 104.593 73.2768H184.037C187.648 73.2768 189.545 76.6538 189.454 82.3657L188.551 92.3664C191.882 119.623 194.578 142.881 193.967 166.881C193.967 181.421 170.494 194.148 144.317 194.148Z" stroke="black" stroke-miterlimit="79.8403" stroke-linecap="round" stroke-linejoin="round"/>
<path d="M182.231 91.4546V98.7297" stroke="black" stroke-miterlimit="79.8403" stroke-linecap="round" stroke-linejoin="round"/>
<path d="M175.912 93.2791V96.906" stroke="black" stroke-miterlimit="79.8403" stroke-linecap="round" stroke-linejoin="round"/>
<path d="M169.594 91.4546V98.7297" stroke="black" stroke-miterlimit="79.8403" stroke-linecap="round" stroke-linejoin="round"/>
<path d="M163.274 93.2791V96.906" stroke="black" stroke-miterlimit="79.8403" stroke-linecap="round" stroke-linejoin="round"/>
<path d="M156.955 91.4546V98.7297" stroke="black" stroke-miterlimit="79.8403" stroke-linecap="round" stroke-linejoin="round"/>
<path d="M150.636 93.2791V96.906" stroke="black" stroke-miterlimit="79.8403" stroke-linecap="round" stroke-linejoin="round"/>
<path d="M189.06 90.5429C199.466 90.3024 210.653 92.0359 217.948 97.8179" stroke="black" stroke-miterlimit="79.8403" stroke-linecap="round" stroke-linejoin="round"/>
<path fill-rule="evenodd" clip-rule="evenodd" d="M216.143 100.543C219.502 95.7734 221.066 95.8034 224.268 99.6314C226.342 102.477 224.268 108.72 217.948 105.995C215.942 104.852 214.159 103.409 216.143 100.543Z" stroke="black" stroke-miterlimit="79.8403" stroke-linecap="round" stroke-linejoin="round"/>
<path d="M189.897 99.632C198.362 99.3915 208.068 98.9006 215.24 102.357" stroke="black" stroke-miterlimit="79.8403" stroke-linecap="round" stroke-linejoin="round"/>
<path d="M189.06 95.0928C197.548 95.0928 206.723 95.0527 214.337 98.7297" stroke="black" stroke-miterlimit="79.8403" stroke-linecap="round" stroke-linejoin="round"/>
<path d="M98.7846 90.5435C88.3806 90.303 82.2941 97.146 69.8961 92.3669" stroke="black" stroke-miterlimit="79.8403" stroke-linecap="round" stroke-linejoin="round"/>
<path fill-rule="evenodd" clip-rule="evenodd" d="M67.7708 95.8238C70.6478 90.7432 69.9579 89.3304 65.1556 88.0277C61.7201 87.3363 56.9736 91.8656 62.0984 96.4852C63.9779 97.828 66.0267 98.8501 67.7708 95.8238Z" stroke="black" stroke-miterlimit="79.8403" stroke-linecap="round" stroke-linejoin="round"/>
<path d="M98.7846 99.4317C90.3198 99.2113 83.2597 104.371 74.117 101.566C71.1624 100.634 69.3784 99.4918 66.6697 97.2977" stroke="black" stroke-miterlimit="79.8403" stroke-linecap="round" stroke-linejoin="round"/>
<path d="M98.7847 95.0927C90.2961 95.0927 85.4171 99.1203 75.3128 97.8178C72.7643 97.4271 70.5373 96.3852 68.1511 95.1428" stroke="black" stroke-miterlimit="79.8403" stroke-linecap="round" stroke-linejoin="round"/>
<path d="M236.246 64.7593C236.448 63.176 236.226 61.7331 235.86 60.3201L230.15 38.8355C229.712 36.7611 228.782 35.5587 227.699 34.3762" stroke="black" stroke-miterlimit="79.8403" stroke-linecap="round" stroke-linejoin="round"/>
<path d="M135.788 70.2605C131.781 64.3883 128.381 58.1154 124.594 51.3112C121.194 45.3188 118.372 40.8996 111.01 33.885C104.473 27.7824 97.4444 19.9461 93.6605 9.82508C91.6686 4.47397 85.5124 1.72822 82.2879 10.5265C78.6474 21.6095 81.8469 31.8509 91.6516 42.9339C94.884 47.0925 92.5018 50.0386 89.0255 49.4073C67.5446 43.4749 44.0985 35.8892 24.8674 31.9009C17.4002 30.6383 10.581 34.9673 15.2579 42.3626" stroke="black" stroke-miterlimit="79.8403" stroke-linecap="round" stroke-linejoin="round"/>
<path d="M61.07 59.2877L56.6908 59.5282C41.391 52.4635 23.9468 45.0381 10.2218 41.0799C2.01989 38.725 -3.08503 49.3371 5.28415 54.5579C19.7906 60.9612 35.2258 68.096 50.3933 74.2788C51.8119 75.1306 52.2887 74.7298 53.4893 76.4634" stroke="black" stroke-miterlimit="79.8403" stroke-linecap="round" stroke-linejoin="round"/>
<path d="M10.9854 57.2037C3.24339 56.7828 1.40669 67.5952 7.533 71.3129C19.2212 77.7463 32.4146 83.849 48.0887 89.3905C50.5257 90.2322 52.4012 91.6251 53.7402 93.5691" stroke="black" stroke-miterlimit="79.8403" stroke-linecap="round" stroke-linejoin="round"/>
<path d="M19.2918 77.8261C12.1073 78.5877 11.3149 87.8268 21.3834 92.6969L67.6722 115.174C75.8243 119.052 84.1587 121.637 92.716 122.669" stroke="black" stroke-miterlimit="79.8403" stroke-linecap="round" stroke-linejoin="round"/>
<path d="M182.833 7.85096C182.067 7.40003 181.031 7.26974 179.635 8.08142C178.67 8.5524 177.395 8.74282 175.652 7.73072C173.909 6.71862 173.436 5.50606 173.359 4.43383C173.358 2.81046 172.725 1.97871 171.962 1.52778" stroke="black" stroke-miterlimit="79.8403" stroke-linecap="round" stroke-linejoin="round"/>
<path d="M182.833 7.85103C183.596 8.29194 184.23 9.13371 184.231 10.7571C184.308 11.8293 184.78 13.0317 186.524 14.0438C188.267 15.0659 189.541 14.8655 190.507 14.4046C191.903 13.5929 192.939 13.7231 193.705 14.1641" stroke="black" stroke-miterlimit="79.8403" stroke-linecap="round" stroke-linejoin="round"/>
<path d="M204.577 20.4872C205.34 20.9281 205.973 21.7699 205.974 23.3932C206.051 24.4655 206.524 25.6679 208.267 26.68C210.01 27.7021 211.285 27.5018 212.25 27.0408C213.646 26.2292 214.683 26.3593 215.449 26.8002" stroke="black" stroke-miterlimit="79.8403" stroke-linecap="round" stroke-linejoin="round"/>
<path d="M204.576 20.4872C203.811 20.0363 202.775 19.906 201.378 20.7177C200.413 21.1886 199.139 21.379 197.395 20.3669C195.652 19.3548 195.18 18.1423 195.102 17.0701C195.101 15.4467 194.468 14.6149 193.705 14.164" stroke="black" stroke-miterlimit="79.8403" stroke-linecap="round" stroke-linejoin="round"/>
<path d="M226.319 33.1234C225.554 32.6725 224.518 32.5422 223.122 33.3539C222.157 33.8249 220.882 34.0153 219.139 33.0032C217.396 31.9911 216.923 30.7885 216.846 29.7063C216.845 28.0829 216.212 27.2512 215.448 26.8002" stroke="black" stroke-miterlimit="79.8403" stroke-linecap="round" stroke-linejoin="round"/>
<path d="M226.319 33.1244C227.083 33.5652 228.771 34.9578 228.016 37.2222" stroke="black" stroke-miterlimit="79.8403" stroke-linecap="round" stroke-linejoin="round"/>
<path d="M227.975 37.7129C227.498 39.4165 226.805 40.9897 225.133 41.9918C222.792 43.2745 221.875 44.6073 222.875 47.323C223.181 48.6858 223.14 49.8081 221.758 51.4114C219.692 53.9868 220.558 56.6122 224.314 57.454C226.449 57.6444 227.619 57.8447 228.784 59.5182C229.861 61.5324 231.224 61.813 233.05 61.9533C234.96 62.294 236.939 63.6167 235.912 65.8013" stroke="black" stroke-miterlimit="79.8403" stroke-linecap="round" stroke-linejoin="round"/>
<path d="M160.414 13.7734C160.857 13.0119 161.689 12.3706 163.301 12.3706C164.37 12.2905 165.569 11.8194 166.575 10.0658C167.582 8.30213 167.392 7.01946 166.925 6.05747C166.119 4.64453 166.252 3.6024 166.691 2.8308C167.615 1.05711 169.853 0.255434 171.787 1.43789" stroke="black" stroke-miterlimit="79.8403" stroke-linecap="round" stroke-linejoin="round"/>
<path d="M160.414 13.7731C159.974 14.5447 159.842 15.5869 160.646 16.9998C161.114 17.9719 161.305 19.2545 160.299 21.0082C159.291 22.7618 158.092 23.2327 157.023 23.3129C155.412 23.3129 154.58 23.9542 154.137 24.7158" stroke="black" stroke-miterlimit="79.8403" stroke-linecap="round" stroke-linejoin="round"/>
<path d="M147.861 35.6687C147.421 36.4303 147.288 37.4824 148.093 38.8853C148.561 39.8574 148.751 41.14 147.744 42.8937C146.738 44.6473 145.538 45.1183 144.469 45.1985C142.858 45.1985 142.027 45.8397 141.583 46.6013" stroke="black" stroke-miterlimit="79.8403" stroke-linecap="round" stroke-linejoin="round"/>
<path d="M147.861 35.6689C148.304 34.8973 149.135 34.256 150.747 34.256C151.815 34.1758 153.014 33.7048 154.021 31.9511C155.027 30.1975 154.837 28.9148 154.369 27.9428C153.565 26.5399 153.697 25.4878 154.137 24.7162" stroke="black" stroke-miterlimit="79.8403" stroke-linecap="round" stroke-linejoin="round"/>
<path d="M135.307 57.5544C135.751 56.7828 136.582 56.1415 138.192 56.1415C139.262 56.0613 140.461 55.5904 141.468 53.8368C142.474 52.0831 142.284 50.8005 141.816 49.8284C141.012 48.4255 141.144 47.3733 141.583 46.6016" stroke="black" stroke-miterlimit="79.8403" stroke-linecap="round" stroke-linejoin="round"/>
<path d="M135.306 57.555C134.867 58.3164 134.094 60.3703 135.874 61.9534" stroke="black" stroke-miterlimit="79.8403" stroke-linecap="round" stroke-linejoin="round"/>
<path d="M235.747 66.1319C235.304 66.9035 234.472 67.5349 232.861 67.5349C231.791 67.615 230.592 68.0861 229.585 69.8497C228.579 71.6034 228.77 72.886 229.238 73.8581C230.042 75.261 229.909 76.3031 229.471 77.0747" stroke="black" stroke-miterlimit="79.8403" stroke-linecap="round" stroke-linejoin="round"/>
<path d="M223.193 88.0185C222.75 88.79 221.918 89.4211 220.307 89.4311C219.238 89.5012 218.039 89.9822 217.032 91.7355C216.71 92.3367 216.43 92.9679 216.217 93.6191" stroke="black" stroke-miterlimit="79.8403" stroke-linecap="round" stroke-linejoin="round"/>
<path d="M223.193 88.0176C223.632 87.246 223.766 86.2037 222.96 84.8008C222.494 83.8288 222.302 82.5461 223.309 80.7925C224.315 79.0389 225.515 78.5579 226.584 78.4778C228.196 78.4778 229.027 77.8464 229.471 77.0748" stroke="black" stroke-miterlimit="79.8403" stroke-linecap="round" stroke-linejoin="round"/>
<path d="M210.341 103.53C209.822 104.862 210.019 105.874 210.407 106.686C211.211 108.089 211.041 109.422 210.601 110.193C210.158 110.955 209.155 111.736 207.544 111.736C206.475 111.817 205.275 112.298 204.269 114.051C203.262 115.805 203.453 117.088 203.92 118.06C204.725 119.463 204.426 120.825 203.986 121.597C203.543 122.369 202.899 123.581 200.031 123.471C198.586 123.521 197.588 124.152 196.647 125.575C195.839 126.728 195.65 128.201 195.655 129.944" stroke="black" stroke-miterlimit="79.8403" stroke-linecap="round" stroke-linejoin="round"/>
<path fill-rule="evenodd" clip-rule="evenodd" d="M138.314 160.989L138.625 159.676C140.493 158.865 141.609 157.291 141.833 154.826L141.806 123.361L138.077 123.341C134.01 123.692 131.393 127.85 129.738 131.628C129.088 132.089 128.547 132.209 128.174 131.839L131.405 119.663H158.511L161.742 131.839C161.369 132.209 160.828 132.089 160.178 131.628C158.523 127.85 155.905 123.692 151.839 123.341L148.11 123.361L148.083 154.826C148.307 157.291 149.423 158.865 151.29 159.676L151.602 160.989H138.314Z" stroke="black" stroke-miterlimit="79.8403" stroke-linecap="round" stroke-linejoin="round"/>
<path fill-rule="evenodd" clip-rule="evenodd" d="M163.597 52.664L164.274 51.9425C165.756 52.1129 167.04 51.5317 168.082 50.0486L179.538 30.0371L177.176 28.6341C174.461 27.3615 171.282 29.0349 168.851 30.8286C168.27 30.8787 167.88 30.7585 167.78 30.3777L174.274 23.8341L191.509 33.8549L189.122 42.7835C188.749 42.8837 188.452 42.6032 188.205 42.0721C188.531 39.0558 188.382 35.4482 185.926 33.7246L183.546 32.3618L172.057 52.3533C171.298 54.0067 171.435 55.4197 172.325 56.6222L172.047 57.5742L163.597 52.664Z" stroke="black" stroke-miterlimit="79.8403" stroke-linecap="round" stroke-linejoin="round"/>
</svg>
