<svg width="212" height="195" viewBox="0 0 212 195" fill="none" xmlns="http://www.w3.org/2000/svg">
<path d="M32.9971 7.24414H74.9682" stroke="black" stroke-miterlimit="79.8403" stroke-linecap="round" stroke-linejoin="round"/>
<path d="M35.27 12.7784V18.2476" stroke="black" stroke-miterlimit="79.8403" stroke-linecap="round" stroke-linejoin="round"/>
<path d="M40.0227 14.1456V16.8801" stroke="black" stroke-miterlimit="79.8403" stroke-linecap="round" stroke-linejoin="round"/>
<path d="M44.7705 12.7784V18.2476" stroke="black" stroke-miterlimit="79.8403" stroke-linecap="round" stroke-linejoin="round"/>
<path d="M49.52 14.1456V16.8801" stroke="black" stroke-miterlimit="79.8403" stroke-linecap="round" stroke-linejoin="round"/>
<path d="M54.271 12.7784V18.2476" stroke="black" stroke-miterlimit="79.8403" stroke-linecap="round" stroke-linejoin="round"/>
<path fill-rule="evenodd" clip-rule="evenodd" d="M54.1156 70.3394C40.1246 70.3394 26.6338 63.2936 26.6338 55.2517C26.2965 41.9661 27.7881 29.088 29.6325 14.0093L29.1341 8.47584C29.0828 5.31519 30.1318 3.44071 32.1327 3.44071H76.1011C78.1002 3.44071 79.1492 5.31519 79.1006 8.47584L78.5995 14.0093C80.4439 29.088 81.9356 41.9661 81.5955 55.2517C81.5955 63.2936 68.6049 70.3394 54.1156 70.3394Z" stroke="black" stroke-miterlimit="79.8403" stroke-linecap="round" stroke-linejoin="round"/>
<path d="M73.2761 12.7784V18.2476" stroke="black" stroke-miterlimit="79.8403" stroke-linecap="round" stroke-linejoin="round"/>
<path d="M68.5247 14.1456V16.8801" stroke="black" stroke-miterlimit="79.8403" stroke-linecap="round" stroke-linejoin="round"/>
<path d="M63.7744 12.7784V18.2476" stroke="black" stroke-miterlimit="79.8403" stroke-linecap="round" stroke-linejoin="round"/>
<path d="M59.0259 14.1456V16.8801" stroke="black" stroke-miterlimit="79.8403" stroke-linecap="round" stroke-linejoin="round"/>
<path d="M78.8811 12.9958C84.6418 12.86 90.8316 13.82 94.8694 17.0254" stroke="black" stroke-miterlimit="79.8403" stroke-linecap="round" stroke-linejoin="round"/>
<path fill-rule="evenodd" clip-rule="evenodd" d="M93.7187 18.8455C95.6494 15.4494 96.693 15.3679 99.0718 17.7135C100.636 19.4704 99.653 23.7721 95.2697 22.3593C93.8581 21.7253 92.5779 20.8832 93.7187 18.8455Z" stroke="black" stroke-miterlimit="79.8403" stroke-linecap="round" stroke-linejoin="round"/>
<path d="M79.3452 17.2431C84.5679 16.8446 89.1572 17.8226 93.3704 19.5339" stroke="black" stroke-miterlimit="79.8403" stroke-linecap="round" stroke-linejoin="round"/>
<path d="M28.9172 12.9957C23.1593 12.8599 19.7054 17.1429 12.9263 14.0099" stroke="black" stroke-miterlimit="79.8403" stroke-linecap="round" stroke-linejoin="round"/>
<path fill-rule="evenodd" clip-rule="evenodd" d="M11.4086 16.3096C13.7028 12.8139 13.2755 11.7724 9.90256 10.6132C7.47881 9.95207 3.87287 12.9678 7.32046 16.5088C8.60251 17.5594 10.0204 18.3835 11.4086 16.3096Z" stroke="black" stroke-miterlimit="79.8403" stroke-linecap="round" stroke-linejoin="round"/>
<path d="M28.9173 17.1252C24.2317 17.0075 20.9632 19.9504 15.5399 18.8457C13.9052 18.3296 12.6393 17.9492 11.1414 16.7359" stroke="black" stroke-miterlimit="79.8403" stroke-linecap="round" stroke-linejoin="round"/>
<path fill-rule="evenodd" clip-rule="evenodd" d="M137.009 23.9169V65.4581C137.101 66.5721 137.627 67.3962 138.627 67.9124L171.811 81.7595C172.82 82.2666 173.903 82.2485 175.047 81.7595L208.23 68.7183C209.707 68.0934 209.98 66.898 209.893 65.7659L209.849 24.7321C209.849 23.111 209.267 22.0786 207.889 21.3541L175.047 8.43075C173.6 7.97793 172.248 7.95982 171.001 8.43075L138.627 21.4717C137.513 22.0332 137.101 22.8301 137.009 23.9169Z" stroke="black" stroke-miterlimit="79.8403" stroke-linecap="round" stroke-linejoin="round"/>
<path d="M139.999 24.1524L173.505 37.9995L207.497 24.3154" stroke="black" stroke-miterlimit="79.8403" stroke-linecap="round" stroke-linejoin="round"/>
<path d="M173.505 38.1626L173.556 79.8306" stroke="black" stroke-miterlimit="79.8403" stroke-linecap="round" stroke-linejoin="round"/>
<path d="M193.75 80.6908C194.532 85.4725 194.937 90.3812 194.937 95.3893C194.937 98.8307 194.744 102.236 194.37 105.578" stroke="black" stroke-miterlimit="79.8403" stroke-linecap="round" stroke-linejoin="round"/>
<path d="M17.6559 112.062C16.6491 106.655 16.1228 101.085 16.1228 95.389C16.1228 90.4805 16.5142 85.6624 17.2663 80.9712" stroke="black" stroke-miterlimit="79.8403" stroke-linecap="round" stroke-linejoin="round"/>
<path d="M91.2607 6.52898C95.9076 5.77744 100.674 5.38807 105.53 5.38807C112.333 5.38807 118.96 6.15768 125.332 7.60645" stroke="black" stroke-miterlimit="79.8403" stroke-linecap="round" stroke-linejoin="round"/>
<path fill-rule="evenodd" clip-rule="evenodd" d="M97.3694 121.743L97.7446 120.158C100.001 119.18 101.35 117.278 101.62 114.298L101.588 76.2983L97.0824 76.2621C92.1701 76.6877 89.0077 81.7049 87.0077 86.2784C86.2223 86.8308 85.5691 86.9848 85.1184 86.532L89.0231 71.8246H121.769L125.673 86.532C125.221 86.9848 124.569 86.8308 123.784 86.2784C121.783 81.7049 118.622 76.6877 113.709 76.2621L109.203 76.2983L109.171 114.298C109.441 117.278 110.79 119.18 113.045 120.158L113.422 121.743H97.3694Z" stroke="black" stroke-miterlimit="79.8403" stroke-linecap="round" stroke-linejoin="round"/>
<path d="M186.443 13.004L149.109 27.9017L149.138 40.7072L154.118 41.3955L159.996 44.2844V32.4027L197.385 17.4326" stroke="black" stroke-miterlimit="79.8403" stroke-linecap="round" stroke-linejoin="round"/>
<path fill-rule="evenodd" clip-rule="evenodd" d="M122.644 13.5203L139.748 13.4477C140.986 13.2576 141.262 12.3973 140.361 11.5189L126.48 1.45723C125.369 0.87763 124.642 1.41201 124.859 2.65272L125.547 6.58323C125.672 7.29868 125.355 8.29482 124.841 8.80198L122.015 11.6004C121.121 12.488 121.404 13.3482 122.644 13.5203Z" stroke="black" stroke-miterlimit="79.8403"/>
<path fill-rule="evenodd" clip-rule="evenodd" d="M188.315 103.721L190.355 120.819C190.683 122.032 191.566 122.214 192.327 121.208L200.66 106.175C201.104 104.998 200.494 104.327 199.294 104.69L195.494 105.831C194.803 106.039 193.785 105.831 193.225 105.378L190.139 102.878C189.164 102.081 188.347 102.462 188.315 103.721Z" stroke="black" stroke-miterlimit="79.8403"/>
<path fill-rule="evenodd" clip-rule="evenodd" d="M22.8642 83.906L23.3482 66.6991C23.2025 65.4493 22.3541 65.1414 21.4553 66.0198L11.0118 79.6587C10.4 80.7545 10.9074 81.5062 12.1472 81.3251L16.0716 80.7635C16.7859 80.6548 17.7612 81.0081 18.2506 81.5424L20.9353 84.4767C21.7846 85.4095 22.6483 85.1558 22.8642 83.906Z" stroke="black" stroke-miterlimit="79.8403"/>
<path d="M40.6562 97.2006V104.554" stroke="black" stroke-miterlimit="79.8403" stroke-linecap="round" stroke-linejoin="round"/>
<path d="M22.356 101.475L25.4446 108.14" stroke="black" stroke-miterlimit="79.8403" stroke-linecap="round" stroke-linejoin="round"/>
<path d="M7.69531 114.535L13.6809 118.754" stroke="black" stroke-miterlimit="79.8403" stroke-linecap="round" stroke-linejoin="round"/>
<path d="M1 134.16L8.27843 134.793" stroke="black" stroke-miterlimit="79.8403" stroke-linecap="round" stroke-linejoin="round"/>
<path d="M58.6552 101.475L55.5657 108.14" stroke="black" stroke-miterlimit="79.8403" stroke-linecap="round" stroke-linejoin="round"/>
<path d="M73.3156 114.535L67.3291 118.754" stroke="black" stroke-miterlimit="79.8403" stroke-linecap="round" stroke-linejoin="round"/>
<path d="M80.0111 134.16L72.7327 134.793" stroke="black" stroke-miterlimit="79.8403" stroke-linecap="round" stroke-linejoin="round"/>
<path d="M40.5979 111.926C26.4378 111.926 14.4486 123.129 16.158 141.277C16.9218 147.055 19.6569 151.81 24.8607 156.329C29.3519 160.911 30.7617 165.575 31.5363 171.027H40.8282" stroke="black" stroke-miterlimit="79.8403" stroke-linecap="round" stroke-linejoin="round"/>
<path d="M41.0584 111.926C55.2185 111.926 67.2077 123.129 65.4983 141.277C64.7345 147.055 61.9995 151.81 56.7957 156.329C52.3045 160.911 50.8947 165.575 50.12 171.027H40.8281" stroke="black" stroke-miterlimit="79.8403" stroke-linecap="round" stroke-linejoin="round"/>
<path d="M31.5361 177.267H49.3454" stroke="black" stroke-miterlimit="79.8403" stroke-linecap="round" stroke-linejoin="round"/>
<path d="M31.5361 184.286H49.3454" stroke="black" stroke-miterlimit="79.8403" stroke-linecap="round" stroke-linejoin="round"/>
<path d="M40.4412 191.295C37.5371 191.295 35.3589 190.516 34.6338 187.401" stroke="black" stroke-miterlimit="79.8403" stroke-linecap="round" stroke-linejoin="round"/>
<path d="M40.4412 191.295C43.3453 191.295 45.5226 190.516 46.2486 187.401" stroke="black" stroke-miterlimit="79.8403" stroke-linecap="round" stroke-linejoin="round"/>
<path d="M118.09 135.825H178.597C182.428 135.825 183.959 137.365 183.192 141.223L178.597 185.164" stroke="black" stroke-miterlimit="79.8403" stroke-linecap="round" stroke-linejoin="round"/>
<path d="M183.192 147.39H193.915C196.979 147.39 198.617 148.051 200.486 149.872L209.303 162.586C210.51 164.063 211.057 166.091 210.884 168.709L209.459 182.501C209.175 184.439 208.156 185.897 206.169 185.934H202.34" stroke="black" stroke-miterlimit="79.8403" stroke-linecap="round" stroke-linejoin="round"/>
<path d="M190.344 151.936L189.319 162.804C189.163 164.488 189.977 165.122 191.417 165.122H206.169" stroke="black" stroke-miterlimit="79.8403" stroke-linecap="round" stroke-linejoin="round"/>
<path fill-rule="evenodd" clip-rule="evenodd" d="M194.292 177.213C198.737 177.213 201.972 181.089 201.513 185.852C201.053 190.616 197.071 194.492 192.625 194.492C188.18 194.492 184.945 190.616 185.404 185.852C185.865 181.089 189.846 177.213 194.292 177.213Z" stroke="black" stroke-miterlimit="79.8403"/>
<path fill-rule="evenodd" clip-rule="evenodd" d="M144.509 177.213C148.954 177.213 152.188 181.089 151.73 185.852C151.271 190.616 147.288 194.492 142.843 194.492C138.397 194.492 135.163 190.616 135.622 185.852C136.081 181.089 140.063 177.213 144.509 177.213Z" stroke="black" stroke-miterlimit="79.8403"/>
<path d="M185.49 185.934H151.79" stroke="black" stroke-miterlimit="79.8403" stroke-linecap="round" stroke-linejoin="round"/>
<path d="M135.447 185.934H126.516C124.79 185.888 122.989 185.97 123.14 182.728L125.029 168.056" stroke="black" stroke-miterlimit="79.8403" stroke-linecap="round" stroke-linejoin="round"/>
<path d="M135.359 167.704L104.111 167.622" stroke="black" stroke-miterlimit="79.8403" stroke-linecap="round" stroke-linejoin="round"/>
<path d="M141.937 159.987L112.535 159.915" stroke="black" stroke-miterlimit="79.8403" stroke-linecap="round" stroke-linejoin="round"/>
<path d="M141.937 151.511L102.664 151.429" stroke="black" stroke-miterlimit="79.8403" stroke-linecap="round" stroke-linejoin="round"/>
<path d="M132.747 143.795L112.009 143.723" stroke="black" stroke-miterlimit="79.8403" stroke-linecap="round" stroke-linejoin="round"/>
<path d="M30.8345 140.082L38.4224 147.726L51.7413 133.852" stroke="black" stroke-miterlimit="79.8403" stroke-linecap="round" stroke-linejoin="round"/>
</svg>
