<svg width="384" height="162" viewBox="0 0 384 162" fill="none" xmlns="http://www.w3.org/2000/svg">
<path d="M117.842 30.4729H125.211L130.474 48.3677" stroke="white" stroke-miterlimit="79.8403" stroke-linecap="round" stroke-linejoin="round"/>
<path d="M121 34.684L127.316 53.6313H132.579L143.105 25.2103H135.737L136.79 30.4734" stroke="white" stroke-miterlimit="79.8403" stroke-linecap="round" stroke-linejoin="round"/>
<path d="M112.579 30.4736H69.4211V24.1578C69.5699 22.4455 68.2562 20.8315 66.2632 20.9999L64.5566 21.014C62.9565 21.014 61.8927 22.3332 62.0527 24.1578V30.4736H49.4211C47.4618 30.4736 45.2106 32.2139 45.2106 34.6841V116.789C45.2106 119.26 46.6885 121 49.4211 121H79.9474C83.1053 121 85.4408 120.046 87.3159 116.789L103.105 88.3683C104.114 86.3754 106.291 84.7613 111.526 84.1578H168.369C173.632 84.1578 175.737 85.2105 179.948 89.421L197.842 107.316C201.07 110.684 203.414 114.726 204.158 119.947V150.474" stroke="#FF8200" stroke-miterlimit="79.8403" stroke-linecap="round" stroke-linejoin="round"/>
<path d="M62.0527 30.4735C62.0527 45.2104 63.6036 60.1157 65.2106 74.6841" stroke="#FF8200" stroke-miterlimit="79.8403" stroke-linecap="round" stroke-linejoin="round"/>
<path d="M83.1053 46.2627C80.7811 46.2627 78.8934 44.382 78.8934 42.0522C78.8934 39.7223 80.7811 37.8416 83.1053 37.8416C85.4295 37.8416 87.3172 39.7223 87.3172 42.0522" stroke="#FF8200" stroke-miterlimit="79.8403" stroke-linecap="round" stroke-linejoin="round"/>
<path d="M59.9474 122.052V141" stroke="#FF8200" stroke-miterlimit="79.8403" stroke-linecap="round" stroke-linejoin="round"/>
<path d="M56.7895 144.157H67.3158V151.526" stroke="#FF8200" stroke-miterlimit="79.8403" stroke-linecap="round" stroke-linejoin="round"/>
<path d="M1 158.895H23.1053L33.6316 155.737H370.474L383.106 161" stroke="#FF8200" stroke-miterlimit="79.8403" stroke-linecap="round" stroke-linejoin="round"/>
<path d="M253.632 30.4735H303.106C307.305 30.5437 309.254 32.7893 310.474 35.7367H334.685C336.946 35.8489 338.505 37.0279 338.895 39.9472L338.926 41.9541" stroke="#FF8200" stroke-miterlimit="79.8403" stroke-linecap="round" stroke-linejoin="round"/>
<path d="M338.895 75.8351V150.474" stroke="#FF8200" stroke-miterlimit="79.8403" stroke-linecap="round" stroke-linejoin="round"/>
<path d="M338.895 42.0527L346.031 45.0142C347.765 45.8985 348.369 46.6281 348.369 48.3685V90.4738C348.369 92.4948 347.334 93.7581 345.949 94.123L338.895 96.7896" stroke="#FF8200" stroke-miterlimit="79.8403" stroke-linecap="round" stroke-linejoin="round"/>
<path d="M310.474 43.1052V150.474" stroke="#FF8200" stroke-miterlimit="79.8403" stroke-linecap="round" stroke-linejoin="round"/>
<path d="M302.053 37.8419V65.2104C302.053 67.3156 301 69.4209 297.842 69.4209H223.106C221.139 69.4069 219.059 69.1402 215.737 66.263L208.369 59.9472" stroke="#FF8200" stroke-miterlimit="79.8403" stroke-linecap="round" stroke-linejoin="round"/>
<path d="M189.082 56.3262C191.233 50.3613 193.069 43.7648 194.555 35.3578L200.576 27.9051L220.176 19.849C224.582 18.0244 229.16 12.4665 230.11 5.11213C230.439 2.7402 229.258 1.57548 226.887 2.15092L215.737 5.21047C213.037 5.87012 211.219 5.84189 209.967 5.39277L204.338 2.26297C203.1 1.44893 201.626 1.04205 199.948 0.999947H172.579L164.158 2.05258C162.391 2.57188 162.718 3.72275 164.158 5.21047L172.579 10.4736C162.047 15.035 154.162 21.1824 146.263 28.3684" stroke="white" stroke-miterlimit="79.8403" stroke-linecap="round" stroke-linejoin="round"/>
<path d="M152.579 29.4211C145.562 29.4211 142.053 34.923 142.053 41.5195" stroke="white" stroke-miterlimit="79.8403" stroke-linecap="round" stroke-linejoin="round"/>
<path d="M176.79 39.9471H187.316V53.6313H178.895C171.527 53.6313 166.263 49.4208 166.263 40.9998C166.263 33.6313 171.546 27.7085 181 29.4208L186.263 30.4734L184.158 35.7366" stroke="white" stroke-miterlimit="79.8403" stroke-linecap="round" stroke-linejoin="round"/>
<path d="M177.365 33.4629C173.632 33.6314 172.579 37.842 172.579 40.9999C172.579 44.9298 174.188 49.1824 177.842 50.4736H182.053V43.1052" stroke="white" stroke-miterlimit="79.8403" stroke-linecap="round" stroke-linejoin="round"/>
<path d="M202.053 30.4734H210.474L209.421 32.5787L215.737 50.4735L218.895 53.6313H209.421L210.474 50.4735L204.665 34.0103" stroke="white" stroke-miterlimit="79.8403" stroke-linecap="round" stroke-linejoin="round"/>
<path d="M75.7369 94.6841C72.252 94.6841 69.4211 91.849 69.4211 88.3683C69.4211 84.8876 72.252 82.0525 75.7369 82.0525C79.2219 82.0525 82.0527 84.8876 82.0527 88.3683" stroke="#FF8200" stroke-miterlimit="79.8403" stroke-linecap="round" stroke-linejoin="round"/>
<path d="M152.579 29.4211C159.597 29.4211 163.105 34.923 163.105 41.5195" stroke="white" stroke-miterlimit="79.8403" stroke-linecap="round" stroke-linejoin="round"/>
<path d="M152.579 53.6313C145.562 53.6313 142.053 48.1298 142.053 41.5192" stroke="white" stroke-miterlimit="79.8403" stroke-linecap="round" stroke-linejoin="round"/>
<path d="M152.579 53.6313C159.597 53.6313 163.105 48.1298 163.105 41.5192" stroke="white" stroke-miterlimit="79.8403" stroke-linecap="round" stroke-linejoin="round"/>
<path d="M153.632 33.6319C151.083 32.9723 148.297 33.7582 148.369 38.8951V45.2109C148.369 47.2459 149.02 48.8459 150.474 49.4214" stroke="white" stroke-miterlimit="79.8403" stroke-linecap="round" stroke-linejoin="round"/>
<path d="M202.053 33.6313L196.79 49.4208L193.632 53.6313H199.948" stroke="white" stroke-miterlimit="79.8403" stroke-linecap="round" stroke-linejoin="round"/>
<path d="M197.842 38.8944L204.158 47.3154L207.316 44.1575" stroke="white" stroke-miterlimit="79.8403" stroke-linecap="round" stroke-linejoin="round"/>
<path d="M212.192 40.3262L214.297 38.2209" stroke="white" stroke-miterlimit="79.8403" stroke-linecap="round" stroke-linejoin="round"/>
<path d="M223.106 48.3682V33.6313L221 30.4734H228.369V53.6313H222.053" stroke="white" stroke-miterlimit="79.8403" stroke-linecap="round" stroke-linejoin="round"/>
<path d="M228.369 43.1045L239.948 30.4729" stroke="white" stroke-miterlimit="79.8403" stroke-linecap="round" stroke-linejoin="round"/>
<path d="M239.948 30.4731H243.106" stroke="white" stroke-miterlimit="79.8403" stroke-linecap="round" stroke-linejoin="round"/>
<path d="M235.737 40.9998L242.053 51.5261L244.158 53.6313H236.79V51.5261L232.579 44.1577" stroke="white" stroke-miterlimit="79.8403" stroke-linecap="round" stroke-linejoin="round"/>
</svg>
