<svg width="186" height="64" viewBox="0 0 186 64" fill="none" xmlns="http://www.w3.org/2000/svg">
<g clip-path="url(#clip0_1782_27748)">
<path d="M132.459 56.0339C130.925 60.0658 123.062 62.1587 116.243 61.6398C106.131 60.8712 101.597 58.8613 94.5516 56.7149C88.4122 54.8441 72.8508 50.6961 62.1877 52.4618C65.1207 49.1441 70.4306 47.1434 75.3824 46.9932C81.2962 46.8135 87.7365 48.2622 93.2066 50.3339C96.9276 51.743 100.629 53.2203 104.263 54.8395C113.195 58.8207 122.141 60.9487 132.459 56.0339ZM108.879 58.7599C100.047 56.0624 90.0352 50.1487 78.4903 49.2944C75.735 49.0907 71.9311 49.1211 68.9006 50.2353C82.4791 49.0566 99.3947 56.8688 108.879 58.7599Z" fill="#D10C54"/>
<path d="M78.0686 55.151C85.8935 56.4182 94.5295 61.7864 102.09 63.2286C105.399 63.8599 112.475 64.6737 116.244 63.0038C102.234 63.2342 87.1971 54.1631 78.0686 55.151Z" fill="#D10C54"/>
<path d="M16.1543 28.9726C16.1543 32.0184 15.4206 34.3694 13.9532 36.0273C12.4858 37.6852 10.5333 38.5137 8.0956 38.5137C5.58242 38.5137 3.60502 37.6576 2.16524 35.9462C0.725451 34.2348 0.00463867 31.9097 0.00463867 28.9726C0.00463867 25.9489 0.746624 23.5998 2.22968 21.9262C3.71273 20.2526 5.66803 19.4149 8.0956 19.4149C10.5333 19.4149 12.4868 20.2489 13.9532 21.9179C15.4197 23.5869 16.1543 25.9379 16.1543 28.9726ZM13.0152 28.9726C13.0152 26.629 12.5889 24.8873 11.7365 23.7482C10.884 22.6091 9.67071 22.0396 8.0956 22.0396C6.50944 22.0396 5.28784 22.6091 4.43078 23.7482C3.57372 24.8873 3.14473 26.629 3.14473 28.9726C3.14473 31.2406 3.57372 32.9603 4.43078 34.1325C5.28784 35.3048 6.51036 35.89 8.0956 35.89C9.65966 35.89 10.8711 35.3149 11.7282 34.1648C12.5853 33.0147 13.0152 31.283 13.0152 28.9726Z" fill="#D10C54"/>
<path d="M33.8258 38.0115H30.0394L23.8421 29.6684H22.3213V38.0115H19.2788V19.9163H22.3213V27.7893C23.1084 27.7782 23.7804 27.6142 24.3355 27.2953C24.8907 26.9765 25.3629 26.3581 25.7514 25.4402C25.8701 25.1702 26.0018 24.8568 26.1482 24.5002C26.2945 24.1435 26.4096 23.8302 26.4961 23.5602C26.9712 22.2322 27.6285 21.2922 28.4708 20.7411C29.3131 20.19 30.4077 19.9153 31.7554 19.9153H32.5802V22.54H31.8843C31.0318 22.54 30.3929 22.7151 29.9667 23.0662C29.5405 23.4173 29.1815 24.0569 28.8906 24.9859C28.5886 25.9259 28.2323 26.6567 27.8227 27.1811C27.413 27.7054 26.9592 28.1072 26.463 28.3883L33.8258 38.0115Z" fill="#D10C54"/>
<path d="M43.6317 38.4326C40.7513 38.4326 38.5152 37.6198 36.9244 35.9941C35.3337 34.3685 34.5374 32.0599 34.5374 29.0685C34.5374 26.1203 35.3088 23.774 36.8517 22.0294C38.3946 20.2849 40.4116 19.4131 42.9036 19.4131C44.0258 19.4131 45.0181 19.5753 45.8807 19.8987C46.7433 20.2222 47.4991 20.73 48.1463 21.4212C48.7934 22.1124 49.2896 22.9575 49.6348 23.9565C49.9801 24.9554 50.1531 26.1784 50.1531 27.6253V29.2777H37.6287C37.6287 31.3835 38.1571 32.9925 39.2148 34.1049C40.2726 35.2172 41.7335 35.7739 43.6004 35.7739C44.2697 35.7739 44.9242 35.6983 45.5668 35.5472C46.2094 35.396 46.7884 35.2016 47.3067 34.9638C47.8572 34.715 48.3212 34.4754 48.6986 34.2431C49.076 34.0109 49.389 33.7925 49.6376 33.587H49.8153V36.9083C49.459 37.0484 49.0171 37.2244 48.4887 37.4346C47.9603 37.6447 47.4853 37.8096 47.0646 37.9285C46.4708 38.0907 45.9341 38.2151 45.4545 38.3008C44.9749 38.3865 44.3654 38.4326 43.6317 38.4326ZM47.1916 26.947C47.1704 26.1259 47.0729 25.419 46.9007 24.8246C46.7286 24.2302 46.48 23.7288 46.156 23.3178C45.7997 22.8644 45.344 22.5188 44.7889 22.281C44.2338 22.0433 43.5452 21.9244 42.7259 21.9244C41.9167 21.9244 41.229 22.046 40.6629 22.2893C40.0967 22.5326 39.5812 22.8856 39.1172 23.3501C38.6643 23.8256 38.3191 24.3518 38.0816 24.9296C37.8441 25.5075 37.6931 26.1793 37.6287 26.9461L47.1916 26.947Z" fill="#D10C54"/>
<path d="M64.6513 36.0835C64.4027 36.2669 64.0713 36.524 63.6561 36.853C63.2409 37.182 62.8386 37.4447 62.4502 37.6391C61.9107 37.9202 61.3906 38.1359 60.8889 38.287C60.3871 38.4382 59.6829 38.5137 58.777 38.5137C58.0323 38.5137 57.3262 38.3736 56.657 38.0926C55.9877 37.8115 55.4004 37.418 54.8931 36.9102C54.408 36.4134 54.0195 35.8006 53.7277 35.0716C53.4359 34.3427 53.2904 33.5731 53.2904 32.7631C53.2904 31.5106 53.5546 30.4435 54.083 29.5633C54.6114 28.6832 55.4473 27.9838 56.5916 27.4658C57.6061 27.0014 58.8028 26.6797 60.1837 26.5019C61.5646 26.324 63.0531 26.1913 64.6503 26.1047V25.5213C64.6503 24.8089 64.5426 24.2339 64.3263 23.7961C64.11 23.3584 63.808 23.0211 63.4204 22.7833C63.032 22.5345 62.5569 22.3704 61.9963 22.2893C61.4357 22.2082 60.8585 22.1677 60.2647 22.1677C59.5632 22.1677 58.7384 22.2727 57.7893 22.4838C56.8402 22.6948 55.8901 22.9999 54.941 23.3989H54.7633V20.3052C55.324 20.143 56.1276 19.9651 57.1743 19.7706C58.221 19.5762 59.2567 19.4794 60.2813 19.4794C61.5222 19.4794 62.568 19.5762 63.4204 19.7706C64.2729 19.9651 65.0388 20.3162 65.7182 20.824C66.3764 21.3207 66.8671 21.9631 67.1911 22.752C67.5152 23.5408 67.6763 24.5011 67.6763 25.6356V38.0124H64.6503L64.6513 36.0835ZM64.6513 33.5565V28.5349C63.9286 28.5994 63.0145 28.6888 61.9089 28.8021C60.8032 28.9155 59.9103 29.0749 59.2309 29.2804C58.4217 29.5292 57.7534 29.9099 57.224 30.4223C56.6947 30.9347 56.4314 31.6507 56.4314 32.5686C56.4314 33.6054 56.7223 34.3887 57.305 34.9177C57.8878 35.4467 58.7402 35.7112 59.8615 35.7112C60.8217 35.7112 61.6898 35.5029 62.4667 35.0873C63.2437 34.6717 63.9709 34.1611 64.6513 33.5565Z" fill="#D10C54"/>
<path d="M86.2213 38.0115H83.1788V29.8629H74.9903V38.0115H71.9478V19.9163H74.9903V27.2382H83.1788V19.9163H86.2213V38.0115Z" fill="#D10C54"/>
<path d="M115.835 28.9726C115.835 32.0184 115.101 34.3694 113.633 36.0273C112.166 37.6852 110.213 38.5137 107.776 38.5137C105.263 38.5137 103.285 37.6576 101.845 35.9462C100.406 34.2348 99.6848 31.9097 99.6848 28.9726C99.6848 25.9489 100.427 23.5998 101.91 21.9262C103.393 20.2526 105.348 19.4149 107.776 19.4149C110.213 19.4149 112.167 20.2489 113.633 21.9179C115.1 23.5869 115.835 25.9379 115.835 28.9726ZM112.695 28.9726C112.695 26.629 112.269 24.8873 111.417 23.7482C110.564 22.6091 109.351 22.0396 107.776 22.0396C106.19 22.0396 104.968 22.6091 104.111 23.7482C103.254 24.8873 102.825 26.629 102.825 28.9726C102.825 31.2406 103.254 32.9603 104.111 34.1325C104.968 35.3048 106.191 35.89 107.776 35.89C109.34 35.89 110.551 35.3149 111.408 34.1648C112.265 33.0147 112.695 31.283 112.695 28.9726Z" fill="#D10C54"/>
<path d="M132.437 22.5898C133.139 23.3021 133.684 24.2071 134.071 25.3029C134.459 26.3986 134.654 27.6704 134.654 29.1182C134.654 30.5116 134.433 31.7991 133.99 32.9815C133.547 34.1639 132.949 35.1601 132.194 35.9702C131.417 36.8125 130.557 37.4475 129.613 37.8732C128.668 38.299 127.641 38.5128 126.53 38.5128C125.397 38.5128 124.359 38.3156 123.415 37.9211C122.47 37.5267 121.665 36.9194 120.995 36.0983C120.165 35.0725 119.542 33.7869 119.127 32.2424C118.711 30.6978 118.503 28.7865 118.503 26.5074C118.503 25.6973 118.538 24.8743 118.608 24.0366C118.678 23.1989 118.832 22.1981 119.069 21.0314C119.285 19.9946 119.577 19.0306 119.943 18.1394C120.309 17.2483 120.79 16.4953 121.383 15.8797C122.149 15.0807 123.149 14.443 124.385 13.9684C125.62 13.4938 127.257 13.1638 129.296 12.9804C130.019 12.9159 130.793 12.8533 131.618 12.7943C132.443 12.7353 133.071 12.6892 133.503 12.657V15.4595C132.943 15.4917 132.343 15.5323 131.707 15.5811C131.071 15.63 130.343 15.6862 129.523 15.7516C128.433 15.8383 127.295 16.03 126.108 16.3267C124.922 16.6234 124.026 17.0852 123.422 17.7118C122.969 18.1763 122.607 18.8408 122.337 19.7043C122.068 20.5678 121.879 21.529 121.771 22.5879C122.569 22.0156 123.425 21.5318 124.336 21.1383C125.247 20.7448 126.232 20.5466 127.289 20.5466C128.271 20.5466 129.204 20.7116 130.089 21.0406C130.973 21.3696 131.758 21.8875 132.437 22.5898ZM131.564 29.2961C131.564 27.3737 131.132 25.8991 130.269 24.8734C129.407 23.8477 128.177 23.3344 126.58 23.3344C125.706 23.3344 124.859 23.48 124.039 23.7721C123.218 24.0643 122.447 24.4523 121.724 24.9389C121.703 25.2089 121.681 25.5305 121.66 25.9028C121.639 26.2751 121.628 26.6134 121.628 26.9156C121.628 28.7947 121.779 30.3227 122.081 31.5005C122.383 32.6783 122.803 33.6008 123.343 34.2708C123.828 34.8753 124.341 35.2937 124.88 35.526C125.42 35.7582 126.008 35.8743 126.644 35.8743C128.198 35.8743 129.406 35.2854 130.269 34.1086C131.133 32.9317 131.564 31.3263 131.564 29.2961Z" fill="#D10C54"/>
<path d="M152.05 19.9163L142.325 44.6855H139.073L142.309 37.1369L135.739 19.9163H139.024L143.959 33.3133L148.879 19.9163H152.05Z" fill="#D10C54"/>
<path d="M168.524 32.5364C168.524 33.4109 168.356 34.186 168.022 34.8606C167.688 35.5352 167.229 36.1001 166.647 36.5535C165.913 37.1258 165.143 37.512 164.34 37.712C163.536 37.9119 162.574 38.0115 161.452 38.0115H154.348V19.9163H160.983C162.31 19.9163 163.281 19.9568 163.896 20.0379C164.511 20.119 165.121 20.3264 165.725 20.6618C166.361 21.0074 166.831 21.4663 167.133 22.0386C167.435 22.6109 167.586 23.2911 167.586 24.0799C167.586 24.9444 167.348 25.7185 166.874 26.4042C166.4 27.0898 165.768 27.6216 164.98 27.9994L165.061 28.1128C166.043 28.3616 166.865 28.8629 167.529 29.6196C168.192 30.3762 168.524 31.3484 168.524 32.5364ZM164.462 24.55C164.462 24.1399 164.394 23.7832 164.259 23.4809C164.123 23.1786 163.89 22.9409 163.555 22.7685C163.167 22.563 162.731 22.4423 162.252 22.4036C161.772 22.3649 161.107 22.3465 160.254 22.3465H157.358V27.3036H160.854C161.598 27.3036 162.127 27.2686 162.44 27.1986C162.753 27.1285 163.098 26.9802 163.475 26.7534C163.832 26.5378 164.085 26.2457 164.236 25.8789C164.387 25.5121 164.462 25.0679 164.462 24.55ZM165.385 32.552C165.385 31.9364 165.294 31.4424 165.117 31.0701C164.939 30.6978 164.549 30.3651 163.944 30.0739C163.566 29.8905 163.161 29.7772 162.731 29.7338C162.3 29.6905 161.7 29.6693 160.935 29.6693H157.358V35.5822H159.996C161.085 35.5822 161.932 35.5389 162.536 35.4522C163.14 35.3656 163.658 35.1933 164.09 34.9334C164.544 34.6523 164.873 34.3288 165.078 33.9611C165.283 33.5934 165.385 33.1243 165.385 32.552Z" fill="#D10C54"/>
<path d="M186 38.0115H182.99V24.5177L174.478 38.0124H171.727V19.9163H174.738V33.1999L183.153 19.9163H186.001V38.0115H186Z" fill="#D10C54"/>
<path d="M42.1201 0.166805H43.0103V4.1766L45.4775 0.166805H46.4367V5.42349H45.5465V1.43951L43.0794 5.42442H42.1201V0.166805Z" fill="black"/>
<path d="M48.288 0.166805H49.1782V2.35463H51.6453V0.166805H52.5355V5.42349H51.6453V3.0919H49.1782V5.42349H48.288V0.166805Z" fill="black"/>
<path d="M53.9016 0.166805H58.1685V0.904069H56.4774V5.42349H55.5927V0.904069H53.9016V0.166805Z" fill="black"/>
<path d="M62.8064 3.73055L63.7261 3.84483C63.5806 4.38211 63.3128 4.80051 62.9206 5.09726C62.5284 5.394 62.0276 5.54238 61.4173 5.54238C60.6495 5.54238 60.0401 5.30553 59.5899 4.83184C59.1407 4.35815 58.9152 3.69369 58.9152 2.83939C58.9152 1.95559 59.1425 1.26809 59.5973 0.780578C60.0521 0.293062 60.6422 0.0479221 61.3676 0.0479221C62.07 0.0479221 62.6435 0.287533 63.0881 0.765832C63.5328 1.24413 63.7556 1.91781 63.7556 2.78501C63.7556 2.83754 63.7537 2.9168 63.751 3.02278H59.8348C59.868 3.59969 60.0309 4.04205 60.3246 4.34893C60.6182 4.65582 60.9837 4.80972 61.4219 4.80972C61.7478 4.80972 62.0267 4.72402 62.2578 4.5526C62.4888 4.38119 62.6711 4.10748 62.8064 3.73055ZM59.8845 2.29012H62.8166C62.777 1.84777 62.6647 1.516 62.4806 1.29482C62.197 0.95107 61.8297 0.779656 61.3777 0.779656C60.969 0.779656 60.6256 0.91605 60.3467 1.19068C60.0686 1.46531 59.914 1.8321 59.8845 2.29012Z" fill="black"/>
<path d="M65.35 7.43807V0.166806H66.161V0.849696C66.3525 0.582438 66.5679 0.381534 66.8091 0.248826C67.0494 0.114276 67.3412 0.0479221 67.6846 0.0479221C68.1329 0.0479221 68.5287 0.16312 68.8712 0.394436C69.2136 0.625752 69.4723 0.95107 69.6472 1.37223C69.8221 1.79339 69.9096 2.25418 69.9096 2.75552C69.9096 3.2928 69.8129 3.77755 69.6205 4.20885C69.4272 4.63923 69.1474 4.96916 68.78 5.19863C68.4127 5.4281 68.0261 5.54238 67.6201 5.54238C67.3237 5.54238 67.0576 5.47971 66.822 5.35438C66.5863 5.22904 66.3921 5.07053 66.2411 4.87884V7.43807H65.35ZM66.1555 2.82464C66.1555 3.50108 66.2917 4.00058 66.5661 4.32405C66.8404 4.64752 67.1709 4.8088 67.5603 4.8088C67.9561 4.8088 68.2949 4.64107 68.5766 4.30654C68.8592 3.97109 68.9992 3.45224 68.9992 2.74999C68.9992 2.08 68.862 1.57867 68.5858 1.24505C68.3106 0.912363 67.9819 0.746479 67.5999 0.746479C67.2206 0.746479 66.8855 0.923423 66.5937 1.27915C66.3019 1.63304 66.1555 2.14912 66.1555 2.82464Z" fill="black"/>
<path d="M71.493 0.166805H72.3832V2.35463H74.8504V0.166805H75.7406V5.42349H74.8504V3.0919H72.3832V5.42349H71.493V0.166805Z" fill="black"/>
<path d="M81.1812 3.73055L82.1009 3.84483C81.9554 4.38211 81.6875 4.80051 81.2953 5.09726C80.9032 5.394 80.4024 5.54238 79.792 5.54238C79.0243 5.54238 78.4149 5.30553 77.9647 4.83184C77.5155 4.35815 77.2899 3.69369 77.2899 2.83939C77.2899 1.95559 77.5173 1.26809 77.9721 0.780578C78.4268 0.293062 79.0169 0.0479221 79.7423 0.0479221C80.4447 0.0479221 81.0183 0.287533 81.4629 0.765832C81.9075 1.24413 82.1303 1.91781 82.1303 2.78501C82.1303 2.83754 82.1285 2.9168 82.1257 3.02278H78.2096C78.2427 3.59969 78.4057 4.04205 78.6993 4.34893C78.993 4.65582 79.3585 4.80972 79.7967 4.80972C80.1225 4.80972 80.4015 4.72402 80.6325 4.5526C80.8636 4.38119 81.0459 4.10748 81.1812 3.73055ZM78.2593 2.29012H81.1913C81.1517 1.84777 81.0394 1.516 80.8553 1.29482C80.5718 0.95107 80.2045 0.779656 79.7525 0.779656C79.3437 0.779656 79.0004 0.91605 78.7214 1.19068C78.4434 1.46531 78.2887 1.8321 78.2593 2.29012Z" fill="black"/>
<path d="M82.9109 0.166805H87.1778V0.904069H85.4867V5.42349H84.602V0.904069H82.9109V0.166805Z" fill="black"/>
<path d="M92.4196 3.2458V2.35003H95.1537V3.2458H92.4196Z" fill="black"/>
<path d="M101.001 0.166805H102.386L103.766 4.37381L105.298 0.166805H106.579V5.42349H105.689V1.1916L104.136 5.42349H103.339L101.871 0.987933V5.42349H101.001V0.166805Z" fill="black"/>
<path d="M111.902 4.77562C111.572 5.05578 111.255 5.25392 110.95 5.37004C110.645 5.48524 110.317 5.5433 109.969 5.5433C109.392 5.5433 108.949 5.4023 108.638 5.1203C108.329 4.83737 108.173 4.47703 108.173 4.03836C108.173 3.78124 108.231 3.54624 108.348 3.33243C108.465 3.12047 108.619 2.94905 108.809 2.82003C108.998 2.69101 109.212 2.59425 109.448 2.52789C109.623 2.48181 109.887 2.43666 110.239 2.39426C110.958 2.30856 111.487 2.20626 111.826 2.08738C111.829 1.96573 111.831 1.88739 111.831 1.85514C111.831 1.49204 111.747 1.23676 111.579 1.08746C111.351 0.886559 111.013 0.785186 110.565 0.785186C110.146 0.785186 109.837 0.858912 109.638 1.00544C109.438 1.1529 109.291 1.41186 109.195 1.7851L108.325 1.66622C108.405 1.29298 108.535 0.992541 108.716 0.763068C108.897 0.533594 109.158 0.357573 109.502 0.23316C109.845 0.109668 110.242 0.0479221 110.693 0.0479221C111.141 0.0479221 111.506 0.100452 111.786 0.206434C112.066 0.312415 112.272 0.445123 112.404 0.605478C112.535 0.764911 112.628 0.967658 112.681 1.21188C112.71 1.36394 112.725 1.63765 112.725 2.03393V3.22184C112.725 4.05034 112.744 4.5738 112.782 4.79406C112.82 5.01339 112.895 5.22351 113.006 5.42534H112.077C111.988 5.23918 111.929 5.02261 111.902 4.77562ZM111.828 2.78501C111.505 2.9168 111.021 3.02923 110.375 3.12139C110.009 3.17392 109.749 3.23382 109.599 3.29925C109.448 3.36469 109.33 3.46145 109.248 3.58863C109.166 3.71581 109.124 3.85681 109.124 4.01164C109.124 4.2494 109.215 4.44754 109.394 4.60605C109.574 4.76457 109.836 4.84382 110.182 4.84382C110.526 4.84382 110.83 4.76825 111.097 4.61803C111.364 4.46782 111.56 4.2623 111.685 4.00242C111.781 3.80151 111.829 3.50384 111.829 3.11125L111.828 2.78501Z" fill="black"/>
<path d="M114.649 0.166805H117.67V0.904069H115.539V5.42349H114.649V0.166805Z" fill="black"/>
<path d="M122.28 4.77562C121.951 5.05578 121.633 5.25392 121.328 5.37004C121.024 5.48524 120.696 5.5433 120.347 5.5433C119.771 5.5433 119.327 5.4023 119.017 5.1203C118.708 4.83737 118.552 4.47703 118.552 4.03836C118.552 3.78124 118.61 3.54624 118.727 3.33243C118.844 3.12047 118.998 2.94905 119.187 2.82003C119.377 2.69101 119.59 2.59425 119.827 2.52789C120.002 2.48181 120.265 2.43666 120.618 2.39426C121.337 2.30856 121.865 2.20626 122.205 2.08738C122.208 1.96573 122.209 1.88739 122.209 1.85514C122.209 1.49204 122.126 1.23676 121.957 1.08746C121.73 0.886559 121.392 0.785186 120.944 0.785186C120.525 0.785186 120.215 0.858912 120.017 1.00544C119.817 1.1529 119.67 1.41186 119.574 1.7851L118.704 1.66622C118.783 1.29298 118.914 0.992541 119.094 0.763068C119.276 0.533594 119.537 0.357573 119.88 0.23316C120.224 0.109668 120.621 0.0479221 121.072 0.0479221C121.52 0.0479221 121.884 0.100452 122.164 0.206434C122.444 0.312415 122.65 0.445123 122.782 0.605478C122.914 0.764911 123.007 0.967658 123.059 1.21188C123.089 1.36394 123.103 1.63765 123.103 2.03393V3.22184C123.103 4.05034 123.123 4.5738 123.16 4.79406C123.198 5.01339 123.274 5.22351 123.385 5.42534H122.455C122.366 5.23918 122.307 5.02261 122.28 4.77562ZM122.207 2.78501C121.884 2.9168 121.399 3.02923 120.753 3.12139C120.388 3.17392 120.128 3.23382 119.977 3.29925C119.826 3.36469 119.708 3.46145 119.626 3.58863C119.544 3.71581 119.503 3.85681 119.503 4.01164C119.503 4.2494 119.593 4.44754 119.773 4.60605C119.952 4.76457 120.215 4.84382 120.561 4.84382C120.904 4.84382 121.209 4.76825 121.476 4.61803C121.743 4.46782 121.939 4.2623 122.064 4.00242C122.16 3.80151 122.208 3.50384 122.208 3.11125V2.78501H122.207Z" fill="black"/>
<path d="M126.07 3.04766V2.35003C126.446 2.34726 126.703 2.3316 126.839 2.30579C126.976 2.27907 127.106 2.19981 127.228 2.06802C127.349 1.93624 127.411 1.77128 127.411 1.57314C127.411 1.3326 127.331 1.13999 127.171 0.996227C127.011 0.853382 126.805 0.781499 126.551 0.781499C126.05 0.781499 125.698 1.0764 125.498 1.66714L124.653 1.5289C124.917 0.541888 125.553 0.0488434 126.561 0.0488434C127.122 0.0488434 127.561 0.202747 127.878 0.509633C128.197 0.816519 128.356 1.18239 128.356 1.60816C128.356 2.03669 128.148 2.3786 127.733 2.63295C127.997 2.77488 128.194 2.9555 128.327 3.17484C128.458 3.39418 128.525 3.65498 128.525 3.9545C128.525 4.42635 128.353 4.8088 128.01 5.10279C127.667 5.39677 127.187 5.5433 126.571 5.5433C125.374 5.5433 124.68 5.01063 124.49 3.94436L125.326 3.76649C125.402 4.10287 125.556 4.36368 125.788 4.54892C126.02 4.73415 126.287 4.82631 126.586 4.82631C126.885 4.82631 127.135 4.74153 127.334 4.57103C127.534 4.40146 127.634 4.18489 127.634 3.9204C127.634 3.71581 127.571 3.53702 127.446 3.38588C127.321 3.23474 127.187 3.1389 127.045 3.10111C126.904 3.06241 126.647 3.04398 126.274 3.04398C126.243 3.04305 126.176 3.0449 126.07 3.04766Z" fill="black"/>
<path d="M130.29 0.166805H131.18V4.1766L133.648 0.166805H134.607V5.42349H133.717V1.43951L131.25 5.42442H130.29V0.166805Z" fill="black"/>
<path d="M136.692 0.166805H137.582V2.35463H140.049V0.166805H140.939V5.42349H140.049V3.0919H137.582V5.42349H136.692V0.166805Z" fill="black"/>
<path d="M145.619 3.58126V1.8109H147.387V3.58126H145.619Z" fill="black"/>
<path d="M35.6798 3.58034V1.80998H37.4482V3.58034H35.6798Z" fill="black"/>
</g>
<defs>
<clipPath id="clip0_1782_27748">
<rect width="186" height="64" fill="white"/>
</clipPath>
</defs>
</svg>
