<svg width="180" height="64" viewBox="0 0 180 64" fill="none" xmlns="http://www.w3.org/2000/svg">
<g clip-path="url(#clip0_454_8020)">
<mask id="mask0_454_8020" style="mask-type:luminance" maskUnits="userSpaceOnUse" x="0" y="0" width="180" height="64">
<path d="M180 0H0V64H180V0Z" fill="white"/>
</mask>
<g mask="url(#mask0_454_8020)">
<path fill-rule="evenodd" clip-rule="evenodd" d="M119.342 9.44565L119.44 9.41746C119.464 9.60749 119.461 9.79738 119.429 9.98752V9.9907L119.428 9.994C119.31 10.9014 119.193 11.8032 119.038 12.6651L119.037 12.6714V12.6774C118.998 13.0217 118.923 13.4029 118.81 13.7435L118.8 13.7715V13.8013C118.8 13.8224 118.793 13.8535 118.77 13.9083L118.752 13.9503V13.9518L118.751 13.9527L118.75 13.9552C118.732 13.9977 118.708 14.0515 118.693 14.0982L118.688 14.1123L115.7 16.6162L113.9 18.1152L113.315 18.6261L112.994 18.8801L113.138 19.0983L113.139 19.1002L113.569 19.7659L116.34 18.2939L116.911 17.8988L116.813 18.0154C116.596 18.2528 116.338 18.439 116.057 18.6173C115.953 18.6825 115.843 18.7488 115.729 18.817L115.717 18.8243C115.535 18.9335 115.345 19.047 115.168 19.1664C114.676 19.4918 114.184 19.8188 113.692 20.1457L113.63 20.1861C111.757 21.4318 109.88 22.6787 107.979 23.8532L107.978 23.854L107.977 23.8546C107.243 24.3221 106.429 24.7521 105.612 25.1442C105.078 25.3927 104.529 25.6287 103.974 25.8672L103.969 25.869L103.961 25.8726C102.957 26.3042 100.953 27.2758 100.953 27.2758C100.953 27.2758 100.747 27.3822 100.646 27.4383C100.546 27.4944 100.137 27.4383 100.137 27.4383L100.314 27.6317C99.767 27.9635 99.2587 28.3397 98.7761 28.7118C97.9532 29.3438 97.1273 30.0174 96.3785 30.7325C96.016 31.0578 95.6957 31.4612 95.3874 31.8498L95.382 31.8564C95.2211 32.0593 95.0494 32.315 94.9608 32.621C94.8769 32.8362 94.8361 33.0573 94.8063 33.2709C94.7959 33.3468 94.787 33.4202 94.7782 33.4919L94.7768 33.5036C94.7603 33.6401 94.7443 33.7718 94.7197 33.9089L94.7192 33.9109C94.4063 35.7641 94.0946 37.6102 93.6662 39.416C93.2567 41.0672 92.7545 42.678 92.2201 44.2826L90.9103 42.7701V36.6611L92.2397 35.3211H92.2006L92.0051 35.0057L90.5193 36.5035V42.8884L92.0967 44.6514L92.0135 44.8986H83.6383C82.6216 44.8986 81.8397 44.7803 81.2532 44.5043H80.9796C81.5268 44.8986 82.0743 45.1349 82.6216 45.2138C82.7781 45.2531 82.9735 45.2531 83.2863 45.2531L87.9389 45.2138L91.8964 45.2443C91.7557 45.6586 91.6138 46.0724 91.4716 46.4873L91.4571 46.5296C91.3217 46.9245 91.1862 47.3199 91.0513 47.7163L90.9998 47.8678L91.3905 48.0649L92.6251 45.2499L93.0607 45.2531L92.7704 44.9182L93.1124 44.1384L93.1148 44.1316C93.927 41.8064 94.4705 39.3993 95.0096 37.0122L95.01 37.0105L95.0105 37.0082L95.0131 36.9962L95.0193 36.9685L95.0348 36.9003C95.139 36.439 95.2429 35.9789 95.3489 35.5203L95.3502 35.5147C95.4288 35.1184 95.4975 34.7223 95.5658 34.329L95.5659 34.3279L95.5684 34.3132L95.5698 34.3059C95.6368 33.9202 95.7036 33.537 95.7794 33.1543C95.813 33.0211 95.8806 32.883 95.9601 32.7229C96.0659 32.5093 96.2086 32.328 96.3953 32.1397L96.3973 32.1375C96.8665 31.6649 97.3291 31.1986 97.8295 30.7717C98.6881 30.0636 99.5796 29.3606 100.507 28.776L100.51 28.7743C100.688 28.6578 100.868 28.5452 101.05 28.4368L101.506 28.936L99.7463 33.8234C99.3162 33.4291 98.8863 33.0745 98.417 32.7591L98.2215 33.0351L98.3387 33.1139C98.6516 33.3503 99.0036 33.6262 99.4336 34.0204L99.59 34.1386L99.3554 34.7297C99.0817 34.5328 98.8471 34.3357 98.6515 34.1386L98.0651 33.5869C98.0261 33.5869 97.9478 33.5079 97.8306 33.3898C97.557 34.1779 97.2049 34.9269 96.7358 35.6363C97.5959 35.7151 98.2607 35.9517 98.7298 36.3457L98.6906 36.5428C97.987 38.8288 97.244 40.4842 96.5404 41.5877C95.7974 42.6913 94.8201 43.5584 93.608 44.1891H100.059L99.8245 43.9525C99.3162 43.4008 98.9644 42.9671 98.808 42.6519C98.6516 42.3366 98.5735 41.9031 98.5735 41.4301C98.5735 40.9572 98.6906 40.366 98.9253 39.6565L99.3554 38.3166C99.5117 37.7647 99.6681 37.3705 99.7853 37.0945L100.333 37.6858C99.629 39.4201 99.2772 40.76 99.2772 41.6272C99.2772 42.179 99.3554 42.6126 99.5509 43.0066C99.7463 43.4007 100.098 43.9132 100.685 44.6226L100.919 44.8986H94.3508L94.6246 45.2531H101.584C101.553 45.212 101.525 45.1735 101.499 45.1375L101.498 45.1359C101.425 45.0354 101.368 44.9564 101.31 44.8986C100.607 44.0314 100.176 43.4007 99.981 43.0066C99.7853 42.652 99.7073 42.179 99.7073 41.6272C99.7073 40.6813 100.02 39.4989 100.685 38.0011L100.802 38.1588C101.506 39.0654 102.053 39.8929 102.522 40.6025L102.757 40.9966C103.422 39.8534 104.282 38.8683 105.298 38.0011L105.533 38.5923L105.416 38.7106C104.399 39.7354 103.656 40.6813 103.148 41.5484L103.461 41.6272C103.969 40.76 104.712 39.8142 105.65 38.8683L107.097 42.6913L105.298 44.1891H111.827L109.873 42.6913L107.526 36.3063C107.917 36.0305 108.504 35.9122 109.325 35.9122C109.373 35.9122 109.436 35.9189 109.508 35.9269C109.611 35.938 109.735 35.9517 109.873 35.9517C109.403 35.2029 109.052 34.2963 108.817 33.3109C108.738 33.3898 108.583 33.5475 108.309 33.7445L107.879 34.0992C107.839 34.1386 107.8 34.1779 107.683 34.2569L105.885 29.409L107.175 27.8718L106.823 27.7142L105.454 29.2908L107.37 34.4145L106.862 34.6905L104.751 29.0148L106.08 27.4777V27.4383H103.02C103.537 27.2105 104.059 27.0079 104.582 26.8049L104.586 26.8032C104.731 26.7469 104.877 26.6905 105.022 26.6335C105.726 26.3574 106.428 26.0687 107.102 25.709C108.592 24.941 110.009 24.0439 111.422 23.1482L111.423 23.1475L111.429 23.1433L111.458 23.1248C111.782 22.919 112.106 22.7134 112.432 22.5095C113.997 21.5238 115.603 20.4971 117.131 19.4304L117.132 19.4292L117.134 19.4278C117.56 19.1154 118.055 18.7444 118.388 18.2426C118.704 17.8157 118.96 17.2973 119.199 16.8121V16.81L119.2 16.8087C119.234 16.7392 119.268 16.6705 119.301 16.6028C119.379 16.4461 119.429 16.3098 119.436 16.1376C119.464 16.0694 119.454 16.0032 119.451 15.9796V15.9777C119.449 15.966 119.446 15.9452 119.443 15.9314L119.441 15.9196C119.438 15.9041 119.437 15.8955 119.437 15.8902C119.437 15.8151 119.418 15.7573 119.395 15.7098C119.385 15.6909 119.374 15.6723 119.366 15.6585L119.364 15.6546L119.352 15.6342L119.35 15.6251C119.438 15.559 119.521 15.4871 119.602 15.4175L119.603 15.4169L119.613 15.4081L119.618 15.4041C119.665 15.3632 119.712 15.3232 119.759 15.286C119.94 15.1481 120.073 14.9671 120.161 14.7898L120.165 14.7834L120.166 14.7814C120.241 14.629 120.327 14.4551 120.371 14.2378C120.392 14.1641 120.412 14.091 120.431 14.0183C120.527 13.6714 120.619 13.3322 120.685 12.967C120.843 12.0551 120.961 11.1454 121.078 10.24V10.2349C121.119 9.86988 121.119 9.46592 121.08 9.10027C121.078 8.99665 121.053 8.90024 121.026 8.82164C121.012 8.78051 120.999 8.74146 120.986 8.70766L120.984 8.70374C120.971 8.67032 120.961 8.64371 120.953 8.61967C120.925 8.53667 120.886 8.47077 120.846 8.41487C120.828 8.38913 120.814 8.36959 120.802 8.35165L120.795 8.34384C120.778 8.32053 120.762 8.29893 120.741 8.26818C120.704 8.19909 120.644 8.14345 120.603 8.1072C120.584 8.09049 120.568 8.07632 120.553 8.06364L120.548 8.05923C120.523 8.03654 120.5 8.01798 120.479 7.99627L120.459 7.97526L120.198 7.84371L120.178 7.83358C120.147 7.81636 120.09 7.78598 120.037 7.76645C119.967 7.74083 119.869 7.7191 119.762 7.7501C119.405 7.81075 119.051 7.90033 118.701 7.99309L118.488 8.0502L118.483 8.05155L118.481 8.05228L118.475 8.05362L118.473 8.05435C118.197 8.12844 117.925 8.20142 117.653 8.26231L117.651 8.26281L117.203 8.36837C114.345 9.04242 111.521 9.70805 108.629 10.2315L108.628 10.2317L108.627 10.2319C108.466 10.2627 108.311 10.2967 108.16 10.3298L108.158 10.3302L108.157 10.3306L108.143 10.3335C107.895 10.3881 107.655 10.4409 107.408 10.4769C107.016 10.534 106.645 10.5409 106.291 10.4342C105.789 10.2652 105.328 9.98203 104.869 9.66032C104.717 9.55354 104.563 9.44113 104.407 9.32751L104.391 9.31543C104.091 9.09636 103.786 8.87376 103.479 8.67995C102.461 8.04826 101.428 7.44646 100.31 7.08435L100.308 7.08363C99.7668 6.91582 99.229 6.95743 98.73 6.99623L98.7181 6.9971L98.717 6.99722C98.1121 7.03651 97.5172 7.09547 96.926 7.15404L96.9151 7.15514L96.9136 7.15526C96.3169 7.21444 95.7237 7.27327 95.1212 7.31245L95.1191 7.31258L95.1169 7.31281C94.8693 7.33478 94.6209 7.3581 94.372 7.38154L94.3666 7.38203C93.275 7.48444 92.1708 7.5879 91.0668 7.5879C90.0254 7.5879 88.9769 7.55899 87.9256 7.52994L87.9189 7.5297H87.8637C86.1941 7.48319 84.517 7.43645 82.8497 7.50918C80.3839 7.58815 77.9097 7.7462 75.4716 8.22193L75.4667 8.22277L75.462 8.224C74.8286 8.38363 74.1922 8.62307 73.6312 8.94429C73.541 8.97908 73.4728 9.03888 73.4211 9.09697C73.3684 9.15604 73.3232 9.22414 73.2865 9.2798L73.2692 9.30579L73.2615 9.3291C73.2544 9.35083 73.2449 9.37426 73.2321 9.40415L73.2262 9.41819C73.2154 9.44346 73.2026 9.47324 73.191 9.50362C73.1626 9.57819 73.1349 9.67082 73.1349 9.78114C73.1349 9.96653 73.1804 10.1452 73.2224 10.2726L73.2265 10.285L73.2324 10.2965C73.3585 10.5509 73.4872 10.7246 73.6573 10.896C73.9456 11.1866 74.2733 11.3931 74.5816 11.5873L74.5914 11.5935L74.5942 11.5951C75.2765 11.9919 75.9976 12.3554 76.713 12.7161L76.718 12.7185L76.752 12.7358C77.0935 12.9078 77.4332 13.0793 77.7666 13.2537L79.562 14.2372L80.1048 14.5499L78.5509 15.3331L75.6527 16.873L72.0065 19.0071L72.0002 19.0118C68.4339 21.5402 65.1437 24.3438 61.8967 27.2622C61.6262 27.5046 61.397 27.7732 61.1721 28.0368C61.0959 28.1263 61.0202 28.2151 60.9434 28.3021L61.1881 28.5701L61.5047 28.3309L61.5083 28.3279C61.9785 27.9328 62.4306 27.5183 62.878 27.1082L62.9937 27.002L63.2193 26.7957C63.7808 26.2839 64.3423 25.7866 64.9409 25.3389C68.5336 22.6225 72.2401 20.0267 76.1397 17.7462L79.0264 16.2911L80.9403 15.3667L81.3728 14.8063L81.3481 14.793L81.7988 14.2251L81.2303 13.8813L80.1325 13.2093L78.2904 12.182L75.7884 10.842C75.7123 10.7995 75.6358 10.7577 75.5599 10.7161C75.2732 10.5591 74.9913 10.4047 74.755 10.2259C74.638 10.1374 74.52 10.0238 74.4224 9.9065C75.5063 9.59455 76.6092 9.29139 77.7081 9.215L77.7099 9.21487C81.142 8.93966 84.5754 8.93953 88.0173 8.93953C88.5937 8.93953 89.1715 8.95601 89.7509 8.97261C90.7219 9.00032 91.6975 9.02814 92.6786 8.97871C93.7728 8.92611 94.8693 8.83849 95.9624 8.75109L95.9723 8.75037C96.5188 8.70656 97.0645 8.66299 97.6086 8.62381C97.8063 8.61051 98.0073 8.58805 98.2035 8.56609L98.208 8.5656L98.2117 8.56523C98.3071 8.5545 98.4015 8.54387 98.4937 8.53459C98.7839 8.5053 99.0654 8.48688 99.3433 8.50555C99.8998 8.54289 100.501 8.73084 101.031 8.99787C101.567 9.28737 102.066 9.63555 102.574 9.99508L102.668 10.0611C103.144 10.3983 103.63 10.7425 104.151 11.0431C105.006 11.5523 105.909 12.0548 106.946 12.0137C108.715 11.9815 110.488 11.567 112.218 11.1623L112.22 11.1619C112.653 11.0608 113.082 10.9603 113.508 10.8666L113.51 10.8661L117.931 9.80141L119.342 9.44565ZM102.874 31.6557L101.467 35.4393C101.545 35.5181 101.584 35.5969 101.584 35.5969L102.131 36.1882C102.405 36.5035 102.757 36.9763 103.226 37.6464L103.343 37.8434C103.695 37.3705 104.164 36.8976 104.672 36.4639L102.913 31.6557H102.874ZM100.215 35.6363L102.275 30.192L102.6 31.1038L100.958 35.5181C101.779 36.3063 102.483 37.1341 103.07 38.08L102.913 38.2377L102.718 38.474C102.718 38.5135 102.679 38.5529 102.6 38.6317C102.522 38.5529 102.483 38.474 102.483 38.474L101.897 37.6464C101.428 36.9763 100.88 36.3063 100.215 35.6363Z" fill="white"/>
<path d="M60.4191 23.4181L60.5756 23.5757C59.4417 24.6794 58.5425 25.8618 57.7997 27.0836C57.0959 28.3449 56.2357 30.2762 55.2192 32.9562L51.4268 42.8883L52.9516 44.2285H47.0087L48.729 42.8095L43.9983 29.2513L42.0044 27.5171H48.4163L46.5787 29.3696L50.8404 41.5876L51.3486 40.3659L47.5561 29.5273L48.8855 28.2265L49.1201 28.463L47.9861 29.6059L51.5833 39.8929L54.32 32.5227C55.1411 30.3155 55.532 28.8178 55.532 27.9113C55.532 27.0047 55.2192 26.2559 54.5545 25.6253L54.7891 25.5858C57.2914 25.1129 59.1681 24.3641 60.4191 23.3787V23.4181Z" fill="white"/>
<path d="M61.131 24.2302L61.1221 24.2063H61.1629L61.131 24.2302Z" fill="white"/>
<path d="M58.7764 27.0439C59.6249 25.7223 60.3972 24.7839 61.1309 24.2291L61.2396 24.5215C59.5976 25.8222 57.8773 28.7781 56.1571 33.3895L52.5209 42.9669L54.554 45.3317H47.9075L47.6338 44.977H53.8111L52.169 43.0458L56.5871 31.4189C57.2126 29.8423 57.9555 28.3446 58.7764 27.0439Z" fill="white"/>
<path d="M69.3706 30.3154L69.6051 30.4335C69.0579 29.6847 68.1977 29.2907 67.0639 29.2907C64.5616 29.2907 63.3105 31.6948 63.3105 36.5033C63.3105 38.1981 63.5061 39.5775 63.8579 40.5629C64.2098 41.5875 64.8354 42.3759 65.6956 43.0065L65.8128 42.8882C64.4052 41.8241 63.7015 39.617 63.7015 36.3456C63.7015 31.8525 64.8354 29.6058 67.103 29.6058C67.7676 29.6058 68.5496 29.8423 69.3706 30.3154Z" fill="white"/>
<path fill-rule="evenodd" clip-rule="evenodd" d="M66.8695 27.3594C68.9243 27.369 70.5925 28.1573 71.8359 29.7633C73.0872 31.3794 73.7127 33.5076 73.7127 36.1878C73.7127 38.7103 73.0872 40.7203 71.8751 42.218C70.6238 43.7157 68.9819 44.4646 66.9096 44.4646C65.2676 44.4646 63.7819 43.9522 62.5309 42.8881C60.6542 41.3116 59.7158 39.0256 59.7158 35.9514C59.7158 33.3106 60.3413 31.2611 61.6706 29.6845C62.9529 28.1568 64.6987 27.369 66.8695 27.3594ZM66.8316 28.4627C63.9384 28.4627 62.4526 31.0246 62.4526 36.1878C62.4526 40.9569 63.8992 43.3611 66.7533 43.3611C68.0826 43.3611 69.0991 42.7305 69.8029 41.4691C70.5067 40.2079 70.8586 38.3556 70.8586 35.9119C70.8586 33.153 70.5067 31.2217 69.8419 30.1575C69.1382 29.0145 68.1217 28.4627 66.8316 28.4627Z" fill="white"/>
<path d="M73.865 31.0642C73.1612 29.6059 72.1838 28.5812 70.9326 27.9901V28.1084C72.1056 28.8178 73.0047 29.8818 73.6304 31.3008C74.2559 32.759 74.5687 34.4144 74.5687 36.3062C74.5687 38.8682 73.904 40.9571 72.4965 42.6125C71.128 44.2284 69.3296 45.056 67.1793 45.056C65.5763 45.056 64.2078 44.662 63.1523 43.8736V43.9524C64.4425 44.9379 65.8108 45.4502 67.2574 45.4502C69.5642 45.4502 71.4019 44.6226 72.8093 42.8883C74.2168 41.1542 74.9205 38.9076 74.9205 36.1093C74.9205 34.1778 74.5687 32.5226 73.865 31.0642Z" fill="white"/>
<path d="M90.6806 27.9505L88.2565 32.7195C88.1 31.3399 87.67 30.3153 86.9663 29.6058C86.2625 28.8964 85.3632 28.5418 84.2295 28.5418C82.6264 28.5418 81.3363 29.1724 80.437 30.4335C79.5379 31.6948 79.0686 33.4684 79.0686 35.7544C79.0686 40.7992 81.1017 43.2823 85.2068 43.2823H87.279V36.5033H84.0339C83.3302 36.5033 82.822 36.4638 82.5091 36.385C82.1964 36.3061 81.9227 36.1486 81.6099 35.8726V35.5572C81.9227 35.7938 82.2355 35.9515 82.5483 36.0303C82.8611 36.1092 83.3693 36.1486 84.073 36.1486H87.279V35.4391H83.0957C81.8054 35.4391 81.1799 34.9661 81.1799 34.0202C81.1799 33.6655 81.2971 33.3501 81.4926 33.0742C81.7273 32.7983 81.9619 32.6801 82.2746 32.6801C82.5091 32.6801 82.7047 32.7589 82.8611 32.9167C83.0174 33.0742 83.0957 33.2713 83.0957 33.5077C83.0957 33.902 82.9783 34.099 82.6656 34.1777L82.3528 34.2566C82.2355 34.2961 82.1964 34.3355 82.1964 34.3749C82.1964 34.4932 82.3528 34.5326 82.6264 34.5326H91.5797L89.7813 36.3061V42.7307L91.4233 44.1494H83.5257C82.4311 44.1494 81.5317 44.0312 80.828 43.7553C80.1243 43.4795 79.3814 43.0064 78.6385 42.3364C76.9183 40.7204 76.0581 38.5921 76.0581 35.912C76.0581 33.1531 76.8792 30.9853 78.5213 29.4087C79.9679 28.0293 81.6491 27.3594 83.6038 27.3594C84.464 27.3594 85.4805 27.517 86.6144 27.8323C87.7874 28.1474 88.5301 28.3052 88.921 28.3052C89.4685 28.3052 90.0159 28.187 90.5632 27.9111L90.6806 27.9505Z" fill="white"/>
<path d="M89.2314 33.1534L91.4599 28.7784L91.1472 28.6208L88.9185 32.9956L89.2314 33.1534Z" fill="white"/>
<path d="M87.3151 30.7487L87.2346 30.6946C86.4969 29.7446 85.5333 29.2511 84.3437 29.2511C82.9362 29.2511 81.8806 29.8028 81.0986 30.9458C80.3557 32.0887 79.9648 33.7046 79.9648 35.7542C79.9648 37.6067 80.1995 39.065 80.6294 40.1685C81.0595 41.2327 81.8023 42.0997 82.7799 42.691V42.5333C81.8414 41.7845 81.216 40.9568 80.8641 40.0108C80.5122 39.1043 80.3557 37.7643 80.3557 35.9907C80.3557 34.6112 80.4731 33.4683 80.7076 32.6405C80.9422 31.8128 81.3333 31.1034 81.8414 30.591C82.5452 29.8815 83.4054 29.5269 84.3828 29.5269C85.2038 29.5269 86.1031 29.8815 87.0805 30.591L87.2346 30.6946C87.2486 30.7124 87.2623 30.7305 87.276 30.7487V30.8275L87.3151 30.7487Z" fill="white"/>
<path d="M109.873 33.902C110.069 34.6903 110.538 35.7545 111.28 37.1339C111.086 37.0944 110.968 37.0944 110.968 37.0944L109.913 37.0156C109.821 37.008 109.735 37.0003 109.653 36.9931L109.596 36.9878L109.527 36.9815L109.524 36.9813C109.247 36.9562 109.033 36.9369 108.896 36.9369H108.622L110.772 42.6912L113.666 45.253H106.198L105.964 44.8985H112.806L110.499 42.8094L108.193 36.661C108.505 36.5822 108.818 36.5426 109.209 36.5426C109.679 36.5426 110.187 36.5822 110.772 36.661L110.617 36.3851C110.069 35.3603 109.679 34.4538 109.522 33.626L109.913 33.8626L109.873 33.902Z" fill="white"/>
<path d="M114.259 27.4796H114.214V27.4385L114.259 27.4796Z" fill="white"/>
<path d="M114.261 27.4777H120.277L118.479 29.2118V37.0945L119.182 36.2668V29.33L120.629 27.9113L120.825 28.1871L119.495 29.4878V35.8727L123.523 31.0642C124.109 30.3549 124.383 29.7243 124.383 29.1725C124.383 28.8572 124.227 28.5419 123.874 28.2265C123.562 27.9113 123.132 27.7141 122.701 27.6353V27.5171H129.504V27.6353C128.019 27.9901 126.415 29.2118 124.695 31.3008L122.897 33.429L127.667 42.7701L129.857 44.189H123.132L124.812 42.9277L121.606 36.4639L119.495 39.0653V42.8095L121.606 45.2926H114.96L114.609 44.9379H120.825L119.182 42.9277V38.8683L121.412 36.0699L121.138 35.4786L118.479 38.6711V42.7308L120.043 44.1495H114.139L115.899 42.6125V28.9754L114.261 27.4777Z" fill="white"/>
<path d="M126.335 30.907C127.586 29.488 128.837 28.7392 130.127 28.6603H130.166L130.01 28.3844C128.681 28.5026 127.39 29.2909 126.139 30.7098L123.754 33.4292L128.485 43.0068L131.222 44.8988H123.754L124.106 45.2533H132.317L128.641 42.7703L124.067 33.4292L126.335 30.907Z" fill="white"/>
<path fill-rule="evenodd" clip-rule="evenodd" d="M33.7905 22.9749C33.8351 22.95 33.8804 22.9264 33.9262 22.9041L33.9476 22.9151V23.8909H33.674V23.9914C33.6572 24.0275 33.6476 24.0566 33.6421 24.079C33.6395 24.0894 33.6378 24.0982 33.6367 24.1056C33.6187 24.1437 33.608 24.1761 33.6022 24.2059C33.5958 24.2381 33.5958 24.2643 33.5958 24.2839V24.3644H33.7261L33.7381 24.3604L33.7527 24.3556C33.7414 24.3605 33.7297 24.3661 33.7172 24.3723L33.6199 24.4213L33.776 24.5787L33.8266 24.5532C33.8728 24.5298 33.9121 24.5106 33.9476 24.4981V25.1197L33.563 25.5074H33.7039L33.8213 25.7439H35.2201L34.7301 25.2006V24.4284C34.8503 24.402 34.9403 24.3756 35.0213 24.3493C35.172 24.7696 35.3192 25.2246 35.3942 25.7884V26.0528L35.5582 25.8875C35.6161 25.8582 35.6706 25.8297 35.7232 25.8017L35.7259 25.8003C35.8839 25.7171 36.0261 25.6423 36.1893 25.5861H36.2585L36.2824 25.6047C36.0158 25.7071 35.7464 25.821 35.5053 25.9946L35.4299 26.049L35.5575 26.1774H35.6516L35.6707 26.1654C35.9797 25.9708 36.2839 25.8181 36.6236 25.742L36.803 25.7018L36.6501 25.599C36.4184 25.4433 36.2304 25.291 36.0813 25.103L36.0805 25.1019L36.0797 25.101C35.8665 24.8502 35.6903 24.5708 35.6065 24.2939C36.0144 24.1247 36.255 23.8364 36.255 23.4576C36.255 23.2346 36.1645 23.0578 35.9974 22.8893L35.9347 22.9441C35.8772 22.8665 35.8025 22.7948 35.7171 22.7259L35.7131 22.7226L35.7085 22.7198C35.4993 22.5932 35.2114 22.5115 34.8863 22.5115C34.5598 22.5115 34.235 22.5907 33.9326 22.7268C33.9106 22.7131 33.8953 22.7015 33.8861 22.6923L33.8091 22.6147L33.5688 23.0992L33.7905 22.9749ZM36.0588 23.4182C36.0588 23.401 36.0577 23.3837 36.0555 23.3663C36.0371 23.5257 35.9543 23.6779 35.8482 23.8204L35.8448 23.825L35.841 23.8289C35.7297 23.941 35.5565 24.0512 35.348 24.1061L35.3652 24.1461L35.4087 24.1315C35.6347 24.0555 35.7972 23.9534 35.9028 23.8337C36.0072 23.7153 36.0588 23.5763 36.0588 23.4182ZM34.9458 24.1486L34.955 24.1671C34.8588 24.2183 34.7374 24.2457 34.6126 24.2457H34.5347V24.2014C34.6126 24.1891 34.6858 24.1811 34.7523 24.174L34.76 24.1731L34.7625 24.1728L34.8167 24.1668C34.8608 24.1619 34.9023 24.1567 34.9383 24.15L34.9458 24.1486ZM35.2693 23.749C35.1282 23.8557 34.9575 23.9601 34.691 24.0028V23.0779C34.7371 23.0644 34.7863 23.0638 34.8472 23.0638C34.9066 23.0638 34.9616 23.0638 35.0111 23.0684C35.0611 23.073 35.0986 23.0816 35.1248 23.0948C35.1559 23.1106 35.1893 23.1354 35.2339 23.1702L35.2501 23.183L35.2528 23.1851C35.2916 23.2158 35.3372 23.2514 35.3901 23.287L35.4725 23.3423C35.4717 23.5131 35.4051 23.6463 35.2693 23.749ZM35.2998 22.9617L35.3041 22.966C35.1757 22.8937 35.0106 22.8662 34.8472 22.8662H34.8452C34.7879 22.8662 34.7263 22.8662 34.6691 22.8715C34.6115 22.8768 34.5513 22.8878 34.4992 22.914L34.4956 22.9157V22.8991L34.4986 22.8961C34.609 22.8591 34.7119 22.8273 34.8472 22.8273C35.0746 22.8273 35.2047 22.8659 35.2998 22.9617Z" fill="white"/>
<path fill-rule="evenodd" clip-rule="evenodd" d="M35.1202 19.6667C32.6332 19.6667 30.6172 21.6991 30.6172 24.2059C30.6172 26.713 32.6332 28.7453 35.1202 28.7453C37.607 28.7453 39.6229 26.713 39.6229 24.2059C39.6229 21.6991 37.607 19.6667 35.1202 19.6667ZM31.1781 24.2059C31.1781 22.0112 32.943 20.232 35.1202 20.232C37.2972 20.232 39.0623 22.0112 39.0623 24.2059C39.0623 26.4009 37.2972 28.1799 35.1202 28.1799C32.943 28.1799 31.1781 26.4009 31.1781 24.2059Z" fill="white"/>
<path fill-rule="evenodd" clip-rule="evenodd" d="M107.776 51.3632C107.736 51.3567 107.697 51.3499 107.66 51.3426L107.718 51.2833H107.515C107.39 51.1919 107.295 51.112 107.231 51.0391C107.163 50.962 107.139 50.9012 107.139 50.8501C107.139 50.7615 107.199 50.6315 107.329 50.5661L107.336 50.563L107.341 50.5586C107.48 50.4538 107.618 50.4167 107.842 50.4167C108.175 50.4167 108.508 50.5282 108.807 50.7913L108.819 50.7768V50.8109H108.959C108.978 50.8566 108.999 50.9061 109.02 50.9582L109.04 51.008H109.054V51.0474H109.204L109.21 51.041V51.1435L109.426 51.2164L109.5 51.1424C109.516 51.1266 109.534 51.1008 109.553 51.0726C109.573 51.0425 109.599 51.0032 109.628 50.9563C109.661 50.9037 109.7 50.8399 109.746 50.7662L109.862 50.5776C109.939 50.4628 110.053 50.3093 110.169 50.1532L110.338 49.9826H110.122L109.971 49.9318L109.893 50.0102L109.579 50.4459L109.578 50.4474L109.551 50.4815C109.564 50.461 109.577 50.4401 109.589 50.419L109.592 50.4159L109.593 50.4125C109.666 50.264 109.778 50.1132 109.93 49.9601L109.964 49.9254L109.892 49.7068H109.778L109.762 49.7151C109.615 49.7891 109.47 49.8251 109.327 49.8251C109.276 49.8251 109.213 49.8163 109.137 49.8017C109.091 49.7933 109.044 49.7834 108.993 49.7725L108.96 49.7655L108.876 49.7481C108.401 49.6285 108.004 49.5886 107.646 49.5886C107.095 49.5886 106.644 49.667 106.311 49.9183C106.128 50.0411 105.992 50.177 105.902 50.3322C105.811 50.4884 105.769 50.6603 105.769 50.8501C105.769 51.1933 105.94 51.4901 106.188 51.6991L106.194 51.7036L106.2 51.707C106.482 51.8695 106.882 52.0304 107.439 52.1106C108.14 52.2285 108.596 52.3446 108.819 52.4563C109 52.5708 109.12 52.68 109.185 52.8C109.105 52.7085 109.005 52.6486 108.893 52.5922C108.725 52.5074 108.401 52.4272 107.933 52.3486L107.229 52.2303C106.997 52.1914 106.807 52.1431 106.667 52.0911C106.595 52.0652 106.54 52.0388 106.498 52.0132C106.455 51.9871 106.432 51.9649 106.421 51.9491L106.41 51.9316L106.121 51.7861V51.9664L106.125 51.9787C106.175 52.1285 106.317 52.2598 106.564 52.3431C106.669 52.3853 106.831 52.4255 107.039 52.4695C107.227 52.5092 107.458 52.5531 107.729 52.6038L107.828 52.6226C108.224 52.6893 108.479 52.7555 108.643 52.7982L108.644 52.7985L108.721 52.8187C108.867 52.8554 109.01 52.9281 109.115 53.0342L109.139 53.0575H109.249C109.249 53.2626 109.15 53.433 108.941 53.5381C108.718 53.6502 108.418 53.7268 108.038 53.7268C107.851 53.7268 107.683 53.7162 107.53 53.6932C107.144 53.5386 106.922 53.2926 106.822 52.9555L106.805 52.8992H106.529L106.554 52.9975C106.586 53.1296 106.634 53.2483 106.698 53.3539C106.517 53.2057 106.414 52.9932 106.354 52.7247L106.341 52.6628H106.141L106.124 52.7193C106.012 53.0964 105.748 53.4801 105.398 53.8714L105.349 53.9273L105.477 54.0565L105.525 54.0372C105.714 53.9609 105.861 53.9246 106.043 53.9246C106.161 53.9246 106.349 53.9247 106.536 53.9625L106.538 53.9629L107.046 54.0416L107.047 54.0418C107.48 54.1211 107.875 54.1611 108.193 54.1611C108.713 54.1611 109.199 54.0404 109.566 53.7931C109.933 53.5459 110.149 53.2085 110.149 52.8207C110.149 52.6613 110.119 52.5134 110.057 52.3779C110.199 52.5627 110.266 52.7539 110.266 52.9785C110.266 53.341 110.088 53.6725 109.676 53.9363L109.674 53.9383C109.298 54.2037 108.806 54.3574 108.233 54.3574C107.927 54.3574 107.658 54.3191 107.385 54.2798L107.384 54.2795L106.723 54.162L106.721 54.1618L106.719 54.1613C106.526 54.1223 106.325 54.0817 106.121 54.0817C105.955 54.0817 105.791 54.1231 105.638 54.1618L105.538 54.1868L105.576 54.2619L104.949 53.7299V50.4174L105.346 50.1258L105.333 50.1073L105.395 50.0452L105.27 49.9197L104.674 50.3357V53.7344L104.597 53.6841V50.3383L105.345 49.7856H103.118L102.954 49.6826V49.9438H103.004L102.983 49.9611C102.55 50.3185 102.262 50.6455 102.137 51.0221L102.116 51.0873L102.333 51.1966L102.363 51.1143C102.473 50.8189 102.693 50.4818 103.1 50.1409H103.111L103.114 50.1295L103.121 50.1229L103.116 50.1168L103.146 49.991L103.58 50.2633V53.6439L102.759 54.1611H105.04L105.129 54.2394H102.969L103.322 54.4764H105.828L105.727 54.3908C105.879 54.3527 106.021 54.3187 106.161 54.3187C106.319 54.3187 106.505 54.3191 106.65 54.3557L106.653 54.3565L107.36 54.4753L107.363 54.4758L107.366 54.4763C107.638 54.5153 107.915 54.5552 108.233 54.5552C108.873 54.5552 109.396 54.3936 109.839 54.1093C110.284 53.8235 110.54 53.4464 110.54 52.9785C110.54 52.5514 110.325 52.2126 109.915 51.9647L109.796 51.8927V52.0206C109.776 52.002 109.756 51.9839 109.733 51.966C109.461 51.7424 109.055 51.5813 108.521 51.4816L108.519 51.4815L107.776 51.3632ZM103.146 49.991L103.052 49.9438H103.073L103.146 49.991ZM108.457 50.3037C108.642 50.378 108.763 50.4854 108.871 50.619C108.853 50.5836 108.839 50.5538 108.827 50.5307C108.797 50.4695 108.731 50.4 108.619 50.3248L108.617 50.3233C108.359 50.1374 108.063 50.0621 107.764 50.0621C107.464 50.0621 107.204 50.1378 107.022 50.2478C106.847 50.3539 106.747 50.527 106.747 50.6924C106.747 50.7834 106.774 50.8704 106.835 50.951C106.829 50.9185 106.824 50.8848 106.824 50.8501C106.824 50.6644 106.917 50.4845 107.091 50.3533C107.269 50.2192 107.524 50.1796 107.764 50.1796C108.006 50.1796 108.251 50.2204 108.457 50.3037Z" fill="white"/>
<path fill-rule="evenodd" clip-rule="evenodd" d="M62.4194 49.6276H68.0139L67.8733 49.9113L67.8643 49.9203C67.8544 49.9302 67.8504 49.9392 67.8489 49.9437L67.8481 49.9467V49.9709L67.519 50.3858C67.4077 50.5357 67.3326 50.6863 67.2561 50.879L67.2119 50.9905L67.0657 50.8431V50.7839C67.0424 50.7154 67.0165 50.6525 66.9879 50.5962V50.7019L66.8744 50.6446C66.6544 50.5337 66.4331 50.4953 66.1275 50.4953H66.0106V53.6914L66.8422 54.4367H64.3834L64.0309 54.1996H66.191L66.1012 54.1213H63.899L64.7198 53.6043V50.4164H64.4855C64.1746 50.4164 63.9999 50.4565 63.9034 50.5214C63.8133 50.582 63.7407 50.7126 63.7027 50.9415L63.6918 51.0077H63.4175L63.4303 50.9174C63.4712 50.6293 63.5558 50.4487 63.7347 50.3136C63.9131 50.1786 64.1707 50.1399 64.4855 50.1399H64.7198V50.1376C64.6675 50.1338 64.6194 50.1268 64.5739 50.1203L64.5721 50.1201C64.5033 50.1101 64.4401 50.1011 64.3682 50.1011C64.1747 50.1011 64.0138 50.111 63.8835 50.1344C63.7528 50.158 63.6587 50.1943 63.5942 50.243C63.4576 50.3462 63.3519 50.5199 63.3519 50.771V50.8501H63.18L63.1609 50.7986C63.09 50.6081 62.9892 50.4164 62.8569 50.2036L62.7358 50.2189L62.7002 50.2235L62.6553 50.2916L62.6217 50.2972C62.3946 50.3351 62.265 50.4085 62.2049 50.4995C62.1393 50.5986 62.1009 50.7377 62.1009 51.0073V54.5155H61.0356L60.918 54.2785H61.8657V51.0468C61.8657 50.7268 61.9048 50.5081 62.0378 50.3293L62.0411 50.3248L62.045 50.3209C62.1649 50.2 62.3477 50.122 62.6079 50.0778L62.6748 49.9766L62.7804 50.0833C62.7215 49.9924 62.6573 49.8977 62.5876 49.7972L62.4194 49.6276ZM66.4926 50.2302C66.3785 50.2002 66.2438 50.1799 66.0884 50.1799H65.7369V50.2189H66.0512C66.1865 50.2189 66.3054 50.2189 66.4052 50.2239C66.4354 50.2255 66.4647 50.2273 66.4926 50.2302Z" fill="white"/>
<path fill-rule="evenodd" clip-rule="evenodd" d="M68.2066 49.7854L68.0432 49.6822V49.8711L67.9518 49.9632C67.7423 50.134 67.5411 50.4638 67.3086 50.9328L67.3003 50.9494V51.0402L67.5354 51.2773V51.0628C67.7181 50.6256 67.9338 50.3296 68.1153 50.1407H68.311L68.1156 49.9436H68.1617L68.6687 50.263V53.6436L67.8481 54.1608H70.1284L70.218 54.2391H68.0579L68.4105 54.4762H70.917L70.8241 54.3972H73.3498L72.7692 53.9291L72.7505 53.9253C72.7245 53.9201 72.6992 53.9146 72.6748 53.9091L72.6618 53.8961L72.6469 53.89C72.4731 53.8198 72.3393 53.6834 72.3047 53.4805L72.2662 53.0143V51.3013L74.2187 54.1608H75.0812V50.968C75.0812 50.6619 75.1578 50.4113 75.2928 50.2752L75.2983 50.2695L75.3026 50.263C75.3305 50.2207 75.3943 50.1692 75.4998 50.1114C75.6027 50.0547 75.7356 49.997 75.8904 49.9386L75.8629 49.7854H73.8689L73.8441 49.9395C74.0172 49.9975 74.1488 50.0548 74.2453 50.1106C74.3399 50.1649 74.3962 50.2153 74.4266 50.2592C74.4948 50.3997 74.5333 50.6198 74.5333 51.0074V52.4461L73.046 50.2494L73.6104 49.965L73.4153 49.7681L72.6591 50.1493L74.4941 52.8841V52.9981L72.5769 50.1706L73.1221 49.8959L73.0869 49.746H70.5751L71.3664 50.2245V52.8205C71.3664 53.0156 71.3567 53.1778 71.3334 53.309C71.31 53.441 71.274 53.5358 71.2257 53.6006C71.1225 53.7395 70.9065 53.8893 70.5677 53.965L70.5848 54.1213H72.5894L72.6356 54.1603H70.545L70.0377 53.7296V50.4172L70.4354 50.1255L70.4223 50.1071L70.4838 50.045L70.3593 49.9195L69.7634 50.3354V53.7342L69.6858 53.6838V50.3381L70.4334 49.7854H68.2066ZM71.992 53.0176C71.992 53.2621 72.0292 53.4685 72.1081 53.6355C72.0897 53.6141 72.0735 53.5916 72.0595 53.5681C72.0095 53.4839 71.972 53.3497 71.9479 53.1555C71.9241 52.9633 71.9144 52.7207 71.9144 52.4263V50.7958L71.992 50.9133V53.0176Z" fill="white"/>
<path fill-rule="evenodd" clip-rule="evenodd" d="M116.285 49.6822L116.449 49.7854H118.676L117.929 50.3381V53.6838L118.006 53.7342V50.3354L118.602 49.9195L118.726 50.045L118.665 50.1071L118.677 50.1255L118.28 50.4172V53.7296L118.787 54.1603H120.878L120.832 54.1213H118.828L118.811 53.965C119.149 53.8893 119.365 53.7395 119.468 53.6006C119.517 53.5358 119.553 53.441 119.576 53.309C119.599 53.1778 119.608 53.0156 119.608 52.8205V50.2245L118.818 49.746H121.33L121.365 49.8959L120.819 50.1706L122.736 52.9981V52.8841L120.901 50.1493L121.658 49.7681L121.852 49.965L121.288 50.2494L122.776 52.446V51.0074C122.776 50.6198 122.738 50.3997 122.669 50.2592C122.638 50.2153 122.582 50.1649 122.488 50.1106C122.391 50.0548 122.259 49.9975 122.087 49.9395L122.111 49.7854H124.105L124.133 49.9386C123.978 49.997 123.845 50.0547 123.742 50.1114C123.636 50.1692 123.573 50.2207 123.545 50.263L123.541 50.2695L123.535 50.2752C123.4 50.4113 123.323 50.6619 123.323 50.968V54.1608H122.461L120.508 51.3013V53.0143L120.547 53.4804C120.582 53.6834 120.716 53.8198 120.89 53.89L120.905 53.8961L120.917 53.9091C120.942 53.9146 120.966 53.9201 120.993 53.9253L121.012 53.9291L121.593 54.3972H119.066L119.16 54.4762H116.653L116.3 54.2391H118.46L118.371 54.1608H116.09L116.912 53.6436V50.263L116.405 49.9436H116.285V49.6822ZM120.351 53.6355C120.272 53.4685 120.235 53.2621 120.235 53.0176V50.9133L120.157 50.7958V52.4263C120.157 52.7207 120.166 52.9633 120.19 53.1555C120.214 53.3497 120.252 53.4839 120.302 53.5681C120.316 53.5916 120.332 53.6141 120.351 53.6355Z" fill="white"/>
<path fill-rule="evenodd" clip-rule="evenodd" d="M77.9514 51.718C77.9774 51.7582 78.0113 51.7924 78.0517 51.8209V52.0495L78.1052 52.0676C78.1614 52.0865 78.2084 52.1054 78.2574 52.1251C78.3052 52.1444 78.3545 52.1642 78.4133 52.1842C78.442 52.1977 78.4755 52.2059 78.5093 52.2115C78.5463 52.2178 78.5886 52.2217 78.634 52.2242C78.7241 52.2293 78.8334 52.2293 78.9493 52.2293H79.9674V53.8052H79.3421C79.0647 53.8052 78.8174 53.7773 78.5995 53.7229V53.6434L78.5627 53.6203C78.2574 53.4279 78.0743 53.2406 77.9656 53.0214C77.8573 52.803 77.8176 52.4647 77.8176 52.032C77.8176 51.6801 77.8566 51.377 77.9293 51.1941C78.0019 51.0113 78.1489 50.8257 78.2944 50.7156L78.296 50.7146L78.2976 50.7133C78.5144 50.5312 78.7685 50.4556 79.1074 50.4556C79.3628 50.4556 79.6571 50.5282 79.9538 50.7125C79.9662 50.7241 79.9783 50.7358 79.9904 50.7477L80.0133 50.771H80.085L80.1114 50.6582C80.221 50.8004 80.295 50.9879 80.3196 51.213L80.3431 51.4263L81.32 49.9727L81.1594 49.8108L81.1114 49.8301C80.9221 49.9065 80.7759 49.9428 80.5932 49.9428C80.4849 49.9428 80.2188 49.9051 79.8266 49.826C79.4327 49.7465 79.1145 49.7062 78.7947 49.7062C78.1183 49.7062 77.514 49.8667 77.028 50.2339C76.4595 50.6436 76.1748 51.2199 76.1748 51.9532C76.1748 52.6521 76.503 53.2275 77.109 53.6349L77.1113 53.6364L77.1138 53.6378C77.389 53.7964 77.6289 53.9175 77.8706 53.9988L77.8722 53.9995L77.8738 53.9998C78.1561 54.0811 78.4762 54.1211 78.8338 54.1211H81.4993L81.6339 54.2388H78.8729C78.5252 54.2388 78.263 54.1997 78.081 54.1262L78.067 54.1205H77.6904L77.9333 54.2675C78.1299 54.3863 78.3023 54.4758 78.5211 54.4758H82.2548L81.3754 53.7294V52.2686L81.7923 51.9534H82.0338L81.7729 51.6903L81.1794 52.1507V53.7451L81.0236 53.6442V52.1114L81.7712 51.5586H78.6657C78.7045 51.5108 78.7168 51.4518 78.7168 51.4014C78.7168 51.2896 78.6576 51.2301 78.6176 51.1898L78.6157 51.1878C78.5628 51.1344 78.465 51.0857 78.3646 51.0857C78.2969 51.0857 78.2369 51.0972 78.1812 51.122C78.126 51.147 78.0792 51.183 78.0355 51.2272C77.9487 51.3146 77.8951 51.4124 77.8951 51.5196C77.8951 51.5924 77.9136 51.6595 77.9514 51.718ZM78.9512 51.9922H79.9674V51.9534H78.6384C78.5118 51.9534 78.3982 51.9435 78.2999 51.9222C78.3474 51.9438 78.3901 51.9529 78.4428 51.9529C78.4966 51.9529 78.5578 51.9602 78.6226 51.9682L78.6621 51.9731C78.7439 51.9827 78.8383 51.9922 78.9512 51.9922ZM79.9241 50.4817C79.9671 50.5107 80.0073 50.5439 80.0445 50.5818C79.7843 50.347 79.4652 50.2364 79.1182 50.2206C79.4564 50.232 79.7195 50.3105 79.9174 50.4767L79.9206 50.4795L79.9241 50.4817ZM77.8791 50.6753C78.1475 50.4047 78.4876 50.2428 78.9267 50.2211C78.4446 50.2398 78.07 50.3914 77.7945 50.6689C77.5008 50.965 77.3484 51.4153 77.3484 51.9532C77.3484 52.5676 77.5191 53.0258 77.844 53.3316C77.7943 53.2707 77.7497 53.2054 77.7101 53.1354C77.5441 52.8427 77.4651 52.4329 77.4651 51.9532C77.4651 51.4315 77.5841 50.9727 77.8791 50.6753Z" fill="white"/>
<path fill-rule="evenodd" clip-rule="evenodd" d="M128.212 52.2293H127.194C127.079 52.2293 126.968 52.2293 126.879 52.2242C126.833 52.2217 126.791 52.2178 126.754 52.2115C126.72 52.2059 126.687 52.1977 126.658 52.1842C126.6 52.1646 126.552 52.145 126.505 52.1262L126.504 52.1259C126.453 52.1058 126.407 52.0865 126.349 52.0676L126.296 52.0495V51.8209C126.257 51.7924 126.222 51.7582 126.196 51.718C126.159 51.6595 126.141 51.5924 126.141 51.5196C126.141 51.4124 126.194 51.3146 126.28 51.2272C126.324 51.183 126.371 51.147 126.427 51.122C126.483 51.0972 126.542 51.0857 126.61 51.0857C126.71 51.0857 126.807 51.1344 126.861 51.1878L126.863 51.1898C126.903 51.2301 126.962 51.2896 126.962 51.4014C126.962 51.4518 126.95 51.5108 126.91 51.5586H130.015L129.268 52.1114V53.6442L129.424 53.7451V52.1507L130.019 51.6903L130.278 51.9534H130.037L129.62 52.2686V53.7294L130.499 54.4758H126.766C126.546 54.4758 126.375 54.3863 126.179 54.2675L125.936 54.1205H126.312L126.326 54.1262C126.508 54.1997 126.77 54.2388 127.118 54.2388H129.879L129.744 54.1211H127.079C126.722 54.1211 126.4 54.0811 126.119 53.9998L126.117 53.9995L126.115 53.9988C125.873 53.9175 125.635 53.7964 125.359 53.6378L125.355 53.6349C124.747 53.2275 124.419 52.6521 124.419 51.9532C124.419 51.2198 124.705 50.6435 125.274 50.2339C125.759 49.8667 126.363 49.7062 127.04 49.7062C127.359 49.7062 127.678 49.7465 128.072 49.826C128.464 49.9051 128.73 49.9428 128.838 49.9428C129.021 49.9428 129.167 49.9065 129.356 49.8301L129.405 49.8108L129.565 49.9727L128.587 51.4263L128.565 51.213C128.539 50.9879 128.466 50.8004 128.356 50.6582L128.329 50.771H128.258L128.236 50.7477C128.223 50.7358 128.211 50.7241 128.198 50.7125C127.902 50.5282 127.608 50.4556 127.353 50.4556C127.013 50.4556 126.758 50.5312 126.543 50.7133L126.541 50.7146L126.539 50.7156C126.394 50.8257 126.247 51.0113 126.174 51.1941C126.102 51.377 126.062 51.6801 126.062 52.032C126.062 52.4647 126.102 52.803 126.211 53.0214C126.318 53.2406 126.503 53.4279 126.807 53.6203L126.845 53.6434V53.7229C127.063 53.7773 127.309 53.8052 127.587 53.8052H128.212V52.2293ZM128.29 50.5817C128.253 50.5439 128.212 50.5107 128.169 50.4817L128.166 50.4795L128.162 50.4767C127.964 50.3105 127.701 50.232 127.362 50.2206C127.709 50.2364 128.03 50.3469 128.29 50.5817ZM127.172 50.2211C126.733 50.2428 126.392 50.4047 126.124 50.6753C125.829 50.9727 125.71 51.4315 125.71 51.9532C125.71 52.4329 125.789 52.8427 125.955 53.1354C125.995 53.2054 126.039 53.2707 126.089 53.3316C125.765 53.0258 125.593 52.5676 125.593 51.9532C125.593 51.4153 125.745 50.965 126.039 50.6689C126.315 50.3914 126.689 50.2398 127.172 50.2211ZM126.544 51.9222C126.592 51.9438 126.635 51.9529 126.688 51.9529C126.741 51.9529 126.802 51.9602 126.868 51.9682L126.907 51.9731C126.989 51.9827 127.083 51.9922 127.196 51.9922H128.212V51.9534H126.883C126.756 51.9534 126.643 51.9435 126.544 51.9222Z" fill="white"/>
<path fill-rule="evenodd" clip-rule="evenodd" d="M59.7499 49.7458H57.2379L58.0293 50.2243V52.8203C58.0293 53.0154 58.0195 53.1776 57.9962 53.3088C57.9729 53.4407 57.9367 53.5356 57.8886 53.6005C57.7853 53.7393 57.5693 53.8891 57.2306 53.9648L57.2476 54.1212H59.2522L59.2985 54.1601H57.1362L57.3714 54.397H60.0126L59.4321 53.929L59.4133 53.9251C59.3873 53.9199 59.3621 53.9144 59.3377 53.9089L59.3248 53.8959L59.3098 53.8898C59.1359 53.8197 59.0023 53.6832 58.9675 53.4804L58.929 53.0141V51.3011L60.8815 54.1606H61.744V50.9678C61.744 50.6616 61.8206 50.4111 61.9556 50.275L61.9611 50.2693L61.9654 50.2628C61.9935 50.2205 62.057 50.169 62.1626 50.1111C62.2655 50.0545 62.3984 49.9968 62.5532 49.9384L62.5257 49.7852H60.5317L60.5069 49.9393C60.68 49.9974 60.8116 50.0546 60.9082 50.1104C61.0027 50.1647 61.0592 50.2151 61.0894 50.259C61.1576 50.3995 61.1961 50.6196 61.1961 51.0071V52.4459L59.7088 50.2492L60.2732 49.9648L60.0781 49.768L59.3219 50.1491L61.157 52.8838V52.9979L59.2399 50.1703L59.7849 49.8957L59.7499 49.7458ZM58.6547 53.0174C58.6547 53.262 58.692 53.4683 58.7709 53.6353C58.7525 53.6139 58.7363 53.5914 58.7224 53.5679C58.6724 53.4837 58.6348 53.3494 58.6107 53.1553C58.587 52.9631 58.5772 52.7205 58.5772 52.4261V50.7956L58.6547 50.9131V53.0174Z" fill="white"/>
<path fill-rule="evenodd" clip-rule="evenodd" d="M46.2414 49.7854H48.8906L48.1429 50.3381V51.6391C48.1678 51.6404 48.1939 51.6429 48.2205 51.6479V50.2979L48.7599 49.8901L48.995 50.0086L48.4557 50.4164V51.6772H48.5337C48.6544 51.6772 48.7649 51.6874 48.8716 51.6972L48.873 51.6973C48.981 51.7071 49.0851 51.7166 49.1982 51.7166C49.4823 51.7166 49.6958 51.7165 49.9018 51.6883V50.2624L49.1657 49.7854H51.7056L50.9579 50.3381V53.7233L51.0746 53.7989V50.2979L51.6297 49.8783L51.89 50.1407H51.6869L51.3098 50.4172V53.7297L52.1893 54.4762H49.6827L49.33 54.2391H51.5293L51.4848 54.2002H49.1346L49.9018 53.6847V52.4012C49.688 52.4352 49.4484 52.466 49.2374 52.466H49.234C49.0058 52.466 48.7328 52.466 48.4949 52.4278V53.7308L49.3265 54.4762H46.8287L46.476 54.2391H48.6751L48.6306 54.2002H46.2805L47.0476 53.6847V52.3511C46.8679 52.3666 46.7183 52.4369 46.5951 52.5612L46.5552 52.6014L46.3289 52.4875L46.406 52.4098C46.4963 52.3188 46.6083 52.2529 46.7341 52.2048C46.6045 52.2458 46.4917 52.3106 46.3996 52.4034L46.3597 52.4438L46.1606 52.3435L46.1958 52.2727C46.3549 51.9518 46.662 51.7465 47.0085 51.6876V50.3009L46.2414 49.7854ZM48.2205 52.1976L48.1392 52.1902H48.1038V53.7233L48.2205 53.7989V52.1976Z" fill="white"/>
<path fill-rule="evenodd" clip-rule="evenodd" d="M54.4402 49.7854H51.8691L52.6362 50.3009V52.4657C52.6362 53.141 52.7535 53.5629 53.011 53.8224L53.013 53.8241L53.0149 53.8259C53.0712 53.8756 53.1332 53.9214 53.2009 53.9632H52.9943L53.1748 54.1049C53.5478 54.3971 54.1172 54.5156 54.8259 54.5156C55.6529 54.5156 56.2768 54.3182 56.5733 53.8483L56.5745 53.8465C56.6407 53.7351 56.6917 53.5655 56.7264 53.3453C56.7614 53.1233 56.7811 52.843 56.7811 52.5052V50.5005L57.3378 50.1637L57.4392 50.0617L57.2625 49.8835L57.2109 49.9141V49.7854H55.0871L55.9204 50.3785V52.4657C55.9204 52.7386 55.9011 52.9691 55.8634 53.149C55.8254 53.3317 55.7706 53.4511 55.7088 53.5135C55.5333 53.6904 55.2439 53.8055 54.787 53.8055C54.671 53.8055 54.5674 53.7997 54.4743 53.7889V53.7612L54.4363 53.738C54.2609 53.6318 54.1516 53.5262 54.0752 53.4494L53.9662 53.0464V50.4172L54.287 50.182L54.3962 50.2919V49.9062L54.3032 49.9745L54.2529 49.9238L54.4402 49.7854ZM54.787 54.2785L54.7492 54.2784C55.073 54.2729 55.3568 54.2334 55.5913 54.1625C55.8444 54.0859 56.0455 53.9712 56.1757 53.8179L56.1788 53.8143L56.1815 53.8102C56.2634 53.6864 56.3459 53.5204 56.3878 53.352L56.3882 53.3503L56.3886 53.3484C56.4293 53.1436 56.4293 52.8613 56.4293 52.4766V50.3822L56.5069 50.3353V52.5052C56.5069 52.8196 56.4971 53.0812 56.4686 53.2876C56.4397 53.4961 56.393 53.6359 56.3286 53.717L56.327 53.719L56.3255 53.7211C56.0741 54.0833 55.5989 54.2785 54.787 54.2785ZM57.1612 49.9437L56.8146 50.1492L57.1544 49.9437H57.1612Z" fill="white"/>
<path fill-rule="evenodd" clip-rule="evenodd" d="M98.1537 49.7854H102.911L102.777 49.9204C102.579 50.1199 102.469 50.2317 102.396 50.3419C102.365 50.3888 102.334 50.4421 102.296 50.5074L102.271 50.55C102.223 50.6334 102.164 50.7319 102.086 50.8501L101.986 51.0508L101.912 50.9312C101.859 50.8448 101.806 50.7683 101.753 50.7018L101.697 50.7554C101.555 50.6479 101.413 50.6113 101.256 50.5718C101.186 50.5542 101.086 50.5445 100.954 50.5396C100.824 50.5347 100.669 50.5347 100.493 50.5347H100.102V51.6378H100.662L101.471 51.0034V52.7011L100.942 52.3085H100.102V53.6129L101.01 54.4368H98.2406L97.8879 54.1997H100.334L100.292 54.1608H97.751L98.6551 53.6038V52.3116C98.4739 52.3268 98.3206 52.3941 98.1943 52.4897L98.1398 52.5308L97.9579 52.3475L98.0135 52.2916C98.1767 52.1271 98.4078 52.0799 98.6551 52.0719H98.6163C98.3586 52.0719 98.1418 52.1458 97.9615 52.2911L97.9067 52.3353L97.7804 52.208L97.8014 52.1586C97.9285 51.8597 98.2488 51.6968 98.6551 51.6459V50.3775L98.027 49.9133L98.1537 49.7854ZM99.8281 50.259H99.7114V51.6378H99.8281V50.259ZM99.8281 53.7022V52.0719H99.7114V53.6098L99.8281 53.7022Z" fill="white"/>
<path fill-rule="evenodd" clip-rule="evenodd" d="M113.127 49.7854H110.517L111.284 50.3009V51.6876C110.938 51.7465 110.631 51.9518 110.471 52.2727L110.437 52.3435L110.635 52.4438L110.676 52.4034C110.767 52.3106 110.88 52.2458 111.01 52.2048C110.884 52.2529 110.773 52.3188 110.682 52.4098L110.604 52.4875L110.831 52.6014L110.871 52.5612C110.994 52.4369 111.143 52.3666 111.323 52.3511V53.6847L110.556 54.2002H112.906L112.951 54.2391H110.751L111.105 54.4762H113.611L112.731 53.7297V52.4278C112.97 52.466 113.242 52.466 113.47 52.466H113.474C113.686 52.466 113.924 52.4352 114.138 52.4012V53.6847L113.371 54.2002H115.721L115.766 54.2391H113.566L113.92 54.4762H116.426L115.546 53.7297V50.4172L115.923 50.1407H116.127L115.866 49.8783L115.311 50.2979V53.7989L115.195 53.7233V50.3381L115.942 49.7854H113.402L114.138 50.2624V51.6883C113.933 51.7165 113.719 51.7166 113.435 51.7166C113.321 51.7166 113.218 51.7071 113.109 51.6973L113.108 51.6972C113.002 51.6874 112.891 51.6772 112.771 51.6772H112.692V50.4164L113.232 50.0086L112.996 49.8901L112.457 50.2979V51.6479C112.431 51.6429 112.404 51.6404 112.38 51.6391V50.3381L113.127 49.7854ZM112.416 52.1902L112.496 52.1976V53.7989L112.38 53.7233V52.1902H112.416Z" fill="white"/>
<path d="M76.0055 49.9771L76.2257 50.1991L76.0665 50.2193L76.031 50.2239L75.9859 50.2921L75.9525 50.2976C75.7253 50.3357 75.5958 50.409 75.5356 50.4999C75.47 50.599 75.4316 50.7381 75.4316 51.0077V54.5159H74.3662L74.2485 54.2789H75.1964V51.0473C75.1964 50.7273 75.2354 50.5085 75.3685 50.3297L75.3719 50.3252L75.3757 50.3213C75.4955 50.2004 75.6783 50.1225 75.9386 50.0782L76.0055 49.9771Z" fill="white"/>
<path d="M124.47 50.1991L124.25 49.9771L124.184 50.0782C123.923 50.1225 123.741 50.2004 123.621 50.3213L123.616 50.3252L123.613 50.3297C123.48 50.5085 123.442 50.7273 123.442 51.0473V54.2789H122.494L122.611 54.5159H123.676V51.0077C123.676 50.7381 123.715 50.599 123.78 50.4999C123.841 50.409 123.97 50.3357 124.197 50.2976L124.231 50.2921L124.276 50.2239L124.312 50.2193L124.47 50.1991Z" fill="white"/>
<path d="M81.3442 50.0464L81.6162 50.1377L80.7818 51.3773L80.5098 51.286L81.3442 50.0464Z" fill="white"/>
<path d="M129.862 50.1377L129.589 50.0464L128.755 51.286L129.028 51.3773L129.862 50.1377Z" fill="white"/>
<path d="M101.508 51.0948L101.783 51.1869V52.7724L101.508 52.6803V51.0948Z" fill="white"/>
<path fill-rule="evenodd" clip-rule="evenodd" d="M90.1681 52.3798V52.3474C90.1681 52.2677 90.1681 52.1919 90.1634 52.1263C90.1585 52.0583 90.1494 52.0128 90.1373 51.9886L90.2631 51.8973L90.2982 51.9327C90.6058 52.1648 90.8702 52.3158 91.0924 52.3906L91.2129 52.431L91.1481 52.4964L91.2592 52.5526L91.2329 52.6646L91.2445 52.6747L91.2253 52.6974L91.224 52.7023H91.2211L91.1416 52.7942L91.132 52.8053L91.1209 52.818L91.1059 52.8352C91.0424 52.9077 90.9848 52.974 90.933 53.0379C90.8529 53.1366 90.7936 53.2216 90.7579 53.3028L90.7714 53.3162C90.8679 53.4135 90.9512 53.4877 91.0272 53.5373C91.1028 53.5867 91.1663 53.6083 91.224 53.6083C91.2451 53.6083 91.255 53.608 91.2636 53.6058C91.2697 53.6043 91.2767 53.6014 91.2859 53.5921L91.4198 53.4571V53.7201L91.3968 53.7434C91.3592 53.7813 91.3091 53.7944 91.2693 53.8002C91.2296 53.806 91.1857 53.806 91.1488 53.806H91.1459C90.9139 53.806 90.6961 53.6641 90.5303 53.3719L90.5096 53.3351L90.5284 53.2974C90.541 53.2716 90.5542 53.2462 90.5674 53.2214C90.5297 53.2812 90.4932 53.3421 90.4581 53.4042C90.5805 53.5588 90.6924 53.677 90.7975 53.7574C90.9115 53.8447 91.0124 53.8842 91.1068 53.8842C91.1628 53.8842 91.2235 53.8555 91.3063 53.8136L91.3742 53.7794C91.4002 53.7562 91.4265 53.7429 91.4485 53.7355C91.4607 53.7313 91.4716 53.7292 91.4799 53.728C91.4841 53.7274 91.4878 53.7269 91.4907 53.7268L91.4948 53.7266H91.4976C91.4976 53.7266 91.4978 53.7266 91.4978 53.8056L91.4976 53.7266C91.5864 53.7266 91.6732 53.7708 91.6904 53.8538L91.7788 53.8982L91.8583 53.9786L91.8475 54.0219C91.8043 54.1967 91.7144 54.335 91.5372 54.4259C91.4164 54.5067 91.2458 54.5942 91.0677 54.5942C90.8539 54.5942 90.6376 54.5088 90.5038 54.374L90.4809 54.3507V54.2594C90.4068 54.2285 90.333 54.19 90.2597 54.1445C89.9375 54.4834 89.5378 54.6336 89.0346 54.6336C88.5464 54.6336 88.1371 54.469 87.81 54.1805L87.7833 54.1569V53.9927C87.7657 53.9772 87.7488 53.9611 87.732 53.9443C87.3965 53.6882 87.2749 53.3072 87.2749 52.8991C87.2749 52.5271 87.3981 52.2311 87.6083 52.0181C87.8196 51.7645 88.1899 51.602 88.6538 51.446L88.6481 51.4286C88.5651 51.2177 88.5652 50.97 88.5652 50.8152V50.8102C88.5652 50.4847 88.6455 50.2257 88.8196 50.048C88.9923 49.8324 89.2106 49.7458 89.4646 49.7458C89.7186 49.7458 89.9346 49.8319 90.1067 50.0055C90.1689 50.0683 90.2212 50.1327 90.2621 50.2035L90.2858 50.1796L90.3412 50.1236L90.3842 50.1671L90.3877 50.1716L90.3931 50.1789C90.5329 50.3367 90.6379 50.5343 90.6379 50.7709C90.6379 51.2267 90.3593 51.5542 89.8803 51.7941C89.9769 52.0098 90.0729 52.208 90.1681 52.3798ZM90.3394 50.3947C90.3561 50.4621 90.3641 50.5342 90.3641 50.6131C90.3641 50.8512 90.2775 51.0586 90.1114 51.2257C89.963 51.3756 89.7535 51.491 89.4918 51.5715C89.692 52.0696 89.8913 52.5012 90.1132 52.8223C90.1205 52.8015 90.1255 52.7821 90.1277 52.7633C89.8977 52.4129 89.7037 52.059 89.5858 51.7024L89.5513 51.5982H89.6846C90.1621 51.4087 90.4029 51.0807 90.4029 50.692C90.4029 50.5923 90.3857 50.4936 90.3394 50.3947ZM88.4703 54.3173C88.6109 54.3448 88.7606 54.3576 88.9173 54.3576C89.3075 54.3576 89.6383 54.2635 89.934 54.0742C89.6709 54.2898 89.3746 54.3967 88.9956 54.3967C88.819 54.3967 88.6427 54.3714 88.4703 54.3173ZM88.9958 53.8027C89.2355 53.7856 89.4487 53.6882 89.6385 53.4842C89.3875 53.1175 89.1071 52.6529 88.8547 52.0615C88.5264 52.2807 88.3701 52.559 88.3701 52.8991C88.3701 53.128 88.4084 53.305 88.5108 53.4429C88.6188 53.5882 88.7633 53.6978 88.9466 53.7717L88.9958 53.7916V53.8027ZM88.2075 53.4471C88.1047 53.3063 88.0574 53.1085 88.0574 52.8991C88.0574 52.6677 88.0965 52.4145 88.2357 52.2391C88.3673 52.0735 88.528 51.9366 88.7186 51.8289C88.5149 51.9487 88.3619 52.0987 88.2582 52.2779C88.1473 52.4698 88.0959 52.691 88.0959 52.9387C88.0959 53.1171 88.1375 53.2964 88.2075 53.4471ZM89.5317 51.0189C89.6978 50.9128 89.7772 50.7572 89.7772 50.5738C89.7772 50.5434 89.7756 50.5171 89.7726 50.4934L89.7708 50.4951H89.6807L89.6641 50.4868C89.6299 50.4695 89.6071 50.4624 89.5909 50.4592C89.5749 50.4559 89.5624 50.4557 89.5429 50.4557C89.5031 50.4557 89.4795 50.468 89.4631 50.4893C89.4441 50.5139 89.4258 50.5627 89.4258 50.6526C89.4258 50.7537 89.4644 50.8807 89.5317 51.0189ZM89.5583 50.1797C89.5142 50.1555 89.4683 50.1405 89.4256 50.1405C89.3271 50.1405 89.2639 50.1726 89.2228 50.2241C89.1797 50.2786 89.1522 50.3666 89.1522 50.4949C89.1522 50.6979 89.2142 50.9047 89.3157 51.1517L89.3316 51.1436C89.2286 50.889 89.1908 50.6983 89.1908 50.5738C89.1908 50.4507 89.2103 50.3464 89.2743 50.2744C89.3408 50.2001 89.4375 50.1792 89.5429 50.1792C89.5481 50.1792 89.5531 50.1794 89.5583 50.1797Z" fill="white"/>
<path fill-rule="evenodd" clip-rule="evenodd" d="M90.3269 0C65.9613 0 43.8405 3.42868 27.7605 9.01498C19.7274 11.8057 13.1225 15.1618 8.49701 18.961C3.88287 22.7507 1.06104 27.1386 1.06104 31.9709C1.06104 36.803 3.88287 41.1909 8.49701 44.9807C13.1225 48.7797 19.7274 52.136 27.7605 54.9266C43.8405 60.513 65.9613 63.9417 90.3269 63.9417C114.692 63.9417 136.813 60.513 152.894 54.9266C160.926 52.136 167.531 48.7797 172.157 44.9807C176.771 41.1909 179.593 36.803 179.593 31.9709C179.593 27.1386 176.771 22.7507 172.157 18.961C167.531 15.1618 160.926 11.8057 152.894 9.01498C136.813 3.42868 114.692 0 90.3269 0ZM3.9675 31.9709C3.9675 28.379 6.06003 24.7417 10.333 21.2321C14.5946 17.7317 20.8496 14.5146 28.7076 11.7846C44.4093 6.32991 66.1949 2.92953 90.3269 2.92953C114.459 2.92953 136.244 6.32991 151.947 11.7846C159.804 14.5146 166.059 17.7317 170.321 21.2321C174.594 24.7417 176.687 28.379 176.687 31.9709C176.687 35.5626 174.594 39.2 170.321 42.7097C166.059 46.2099 159.804 49.4271 151.947 52.157C136.244 57.6117 114.459 61.0121 90.3269 61.0121C66.1949 61.0121 44.4093 57.6117 28.7076 52.157C20.8496 49.4271 14.5946 46.2099 10.333 42.7097C6.06003 39.2 3.9675 35.5626 3.9675 31.9709Z" fill="white"/>
</g>
</g>
<defs>
<clipPath id="clip0_454_8020">
<rect width="180" height="64" fill="white"/>
</clipPath>
</defs>
</svg>
